<svg width="1239" height="2006" viewBox="0 0 1239 2006" xmlns="http://www.w3.org/2000/svg" xmlns:xlink="http://www.w3.org/1999/xlink">
<g transform="rotate(0.000000) translate(0.000000 2006.000000) scale(1.000000 -1.000000)">
<path style="stroke-opacity:1.000;stroke:#FFFFFF;stroke-width:1.000px;fill-opacity:1.000;fill:#FFFFFF" d="M0.000000 0.000000 1239.000000 0.000000 1239.000000 2006.000000 0.000000 2006.000000 Z"/>
<path style="opacity:1.000;stroke:#555555;stroke-width:0.500px;fill:none" d="M59.000000 2006.000000L59.000000 0.000000M118.000000 2006.000000L118.000000 0.000000M177.000000 2006.000000L177.000000 0.000000M236.000000 2006.000000L236.000000 0.000000M295.000000 2006.000000L295.000000 0.000000M354.000000 2006.000000L354.000000 0.000000M413.000000 2006.000000L413.000000 0.000000M472.000000 2006.000000L472.000000 0.000000M531.000000 2006.000000L531.000000 0.000000M590.000000 2006.000000L590.000000 0.000000M649.000000 2006.000000L649.000000 0.000000M708.000000 2006.000000L708.000000 0.000000M767.000000 2006.000000L767.000000 0.000000M826.000000 2006.000000L826.000000 0.000000M885.000000 2006.000000L885.000000 0.000000M944.000000 2006.000000L944.000000 0.000000M1003.000000 2006.000000L1003.000000 0.000000M1062.000000 2006.000000L1062.000000 0.000000M1121.000000 2006.000000L1121.000000 0.000000M1180.000000 2006.000000L1180.000000 0.000000M0.000000 59.000000L1239.000000 59.000000M0.000000 118.000000L1239.000000 118.000000M0.000000 177.000000L1239.000000 177.000000M0.000000 236.000000L1239.000000 236.000000M0.000000 295.000000L1239.000000 295.000000M0.000000 354.000000L1239.000000 354.000000M0.000000 413.000000L1239.000000 413.000000M0.000000 472.000000L1239.000000 472.000000M0.000000 531.000000L1239.000000 531.000000M0.000000 590.000000L1239.000000 590.000000M0.000000 649.000000L1239.000000 649.000000M0.000000 708.000000L1239.000000 708.000000M0.000000 767.000000L1239.000000 767.000000M0.000000 826.000000L1239.000000 826.000000M0.000000 885.000000L1239.000000 885.000000M0.000000 944.000000L1239.000000 944.000000M0.000000 1003.000000L1239.000000 1003.000000M0.000000 1062.000000L1239.000000 1062.000000M0.000000 1121.000000L1239.000000 1121.000000M0.000000 1180.000000L1239.000000 1180.000000M0.000000 1239.000000L1239.000000 1239.000000M0.000000 1298.000000L1239.000000 1298.000000M0.000000 1357.000000L1239.000000 1357.000000M0.000000 1416.000000L1239.000000 1416.000000M0.000000 1475.000000L1239.000000 1475.000000M0.000000 1534.000000L1239.000000 1534.000000M0.000000 1593.000000L1239.000000 1593.000000M0.000000 1652.000000L1239.000000 1652.000000M0.000000 1711.000000L1239.000000 1711.000000M0.000000 1770.000000L1239.000000 1770.000000M0.000000 1829.000000L1239.000000 1829.000000M0.000000 1888.000000L1239.000000 1888.000000M0.000000 1947.000000L1239.000000 1947.000000"/>
<path style="stroke-opacity:0.000;stroke:#000000;stroke-width:1.000px;fill-opacity:0.300;fill:#000000" d="M2.000000 57.000000 57.000000 57.000000 57.000000 2.000000 2.000000 2.000000 Z"/>
<path style="stroke-opacity:0.000;stroke:#000000;stroke-width:1.000px;fill-opacity:0.300;fill:#000000" d="M2.000000 116.000000 57.000000 116.000000 57.000000 61.000000 2.000000 61.000000 Z"/>
<path style="stroke-opacity:0.000;stroke:#000000;stroke-width:1.000px;fill-opacity:0.300;fill:#000000" d="M61.000000 175.000000 116.000000 175.000000 116.000000 120.000000 61.000000 120.000000 Z"/>
<path style="stroke-opacity:0.000;stroke:#000000;stroke-width:1.000px;fill-opacity:0.300;fill:#000000" d="M61.000000 234.000000 116.000000 234.000000 116.000000 179.000000 61.000000 179.000000 Z"/>
<path style="stroke-opacity:0.000;stroke:#000000;stroke-width:1.000px;fill-opacity:0.300;fill:#000000" d="M120.000000 293.000000 175.000000 293.000000 175.000000 238.000000 120.000000 238.000000 Z"/>
<path style="stroke-opacity:0.000;stroke:#000000;stroke-width:1.000px;fill-opacity:0.300;fill:#000000" d="M179.000000 352.000000 234.000000 352.000000 234.000000 297.000000 179.000000 297.000000 Z"/>
<path style="stroke-opacity:0.000;stroke:#000000;stroke-width:1.000px;fill-opacity:0.300;fill:#000000" d="M179.000000 411.000000 234.000000 411.000000 234.000000 356.000000 179.000000 356.000000 Z"/>
<path style="stroke-opacity:0.000;stroke:#000000;stroke-width:1.000px;fill-opacity:0.300;fill:#000000" d="M238.000000 470.000000 293.000000 470.000000 293.000000 415.000000 238.000000 415.000000 Z"/>
<path style="stroke-opacity:0.000;stroke:#000000;stroke-width:1.000px;fill-opacity:0.300;fill:#000000" d="M238.000000 529.000000 293.000000 529.000000 293.000000 474.000000 238.000000 474.000000 Z"/>
<path style="stroke-opacity:0.000;stroke:#000000;stroke-width:1.000px;fill-opacity:0.300;fill:#000000" d="M297.000000 588.000000 352.000000 588.000000 352.000000 533.000000 297.000000 533.000000 Z"/>
<path style="stroke-opacity:0.000;stroke:#000000;stroke-width:1.000px;fill-opacity:0.300;fill:#000000" d="M356.000000 647.000000 411.000000 647.000000 411.000000 592.000000 356.000000 592.000000 Z"/>
<path style="stroke-opacity:0.000;stroke:#000000;stroke-width:1.000px;fill-opacity:0.300;fill:#000000" d="M356.000000 706.000000 411.000000 706.000000 411.000000 651.000000 356.000000 651.000000 Z"/>
<path style="stroke-opacity:0.000;stroke:#000000;stroke-width:1.000px;fill-opacity:0.300;fill:#000000" d="M415.000000 765.000000 470.000000 765.000000 470.000000 710.000000 415.000000 710.000000 Z"/>
<path style="stroke-opacity:0.000;stroke:#000000;stroke-width:1.000px;fill-opacity:0.300;fill:#000000" d="M474.000000 824.000000 529.000000 824.000000 529.000000 769.000000 474.000000 769.000000 Z"/>
<path style="stroke-opacity:0.000;stroke:#000000;stroke-width:1.000px;fill-opacity:0.300;fill:#000000" d="M474.000000 883.000000 529.000000 883.000000 529.000000 828.000000 474.000000 828.000000 Z"/>
<path style="stroke-opacity:0.000;stroke:#000000;stroke-width:1.000px;fill-opacity:0.300;fill:#000000" d="M533.000000 942.000000 588.000000 942.000000 588.000000 887.000000 533.000000 887.000000 Z"/>
<path style="stroke-opacity:0.000;stroke:#000000;stroke-width:1.000px;fill-opacity:0.300;fill:#000000" d="M533.000000 1001.000000 588.000000 1001.000000 588.000000 946.000000 533.000000 946.000000 Z"/>
<path style="stroke-opacity:0.000;stroke:#000000;stroke-width:1.000px;fill-opacity:0.300;fill:#000000" d="M592.000000 1060.000000 647.000000 1060.000000 647.000000 1005.000000 592.000000 1005.000000 Z"/>
<path style="stroke-opacity:0.000;stroke:#000000;stroke-width:1.000px;fill-opacity:0.300;fill:#000000" d="M651.000000 1119.000000 706.000000 1119.000000 706.000000 1064.000000 651.000000 1064.000000 Z"/>
<path style="stroke-opacity:0.000;stroke:#000000;stroke-width:1.000px;fill-opacity:0.300;fill:#000000" d="M651.000000 1178.000000 706.000000 1178.000000 706.000000 1123.000000 651.000000 1123.000000 Z"/>
<path style="stroke-opacity:0.000;stroke:#000000;stroke-width:1.000px;fill-opacity:0.300;fill:#000000" d="M710.000000 1237.000000 765.000000 1237.000000 765.000000 1182.000000 710.000000 1182.000000 Z"/>
<path style="stroke-opacity:0.000;stroke:#000000;stroke-width:1.000px;fill-opacity:0.300;fill:#000000" d="M710.000000 1296.000000 765.000000 1296.000000 765.000000 1241.000000 710.000000 1241.000000 Z"/>
<path style="stroke-opacity:0.000;stroke:#000000;stroke-width:1.000px;fill-opacity:0.300;fill:#000000" d="M769.000000 1355.000000 824.000000 1355.000000 824.000000 1300.000000 769.000000 1300.000000 Z"/>
<path style="stroke-opacity:0.000;stroke:#000000;stroke-width:1.000px;fill-opacity:0.300;fill:#000000" d="M828.000000 1414.000000 883.000000 1414.000000 883.000000 1359.000000 828.000000 1359.000000 Z"/>
<path style="stroke-opacity:0.000;stroke:#000000;stroke-width:1.000px;fill-opacity:0.300;fill:#000000" d="M828.000000 1473.000000 883.000000 1473.000000 883.000000 1418.000000 828.000000 1418.000000 Z"/>
<path style="stroke-opacity:0.000;stroke:#000000;stroke-width:1.000px;fill-opacity:0.300;fill:#000000" d="M887.000000 1532.000000 942.000000 1532.000000 942.000000 1477.000000 887.000000 1477.000000 Z"/>
<path style="stroke-opacity:0.000;stroke:#000000;stroke-width:1.000px;fill-opacity:0.300;fill:#000000" d="M946.000000 1591.000000 1001.000000 1591.000000 1001.000000 1536.000000 946.000000 1536.000000 Z"/>
<path style="stroke-opacity:0.000;stroke:#000000;stroke-width:1.000px;fill-opacity:0.300;fill:#000000" d="M946.000000 1650.000000 1001.000000 1650.000000 1001.000000 1595.000000 946.000000 1595.000000 Z"/>
<path style="stroke-opacity:0.000;stroke:#000000;stroke-width:1.000px;fill-opacity:0.300;fill:#000000" d="M1005.000000 1709.000000 1060.000000 1709.000000 1060.000000 1654.000000 1005.000000 1654.000000 Z"/>
<path style="stroke-opacity:0.000;stroke:#000000;stroke-width:1.000px;fill-opacity:0.300;fill:#000000" d="M1005.000000 1768.000000 1060.000000 1768.000000 1060.000000 1713.000000 1005.000000 1713.000000 Z"/>
<path style="stroke-opacity:0.000;stroke:#000000;stroke-width:1.000px;fill-opacity:0.300;fill:#000000" d="M1064.000000 1827.000000 1119.000000 1827.000000 1119.000000 1772.000000 1064.000000 1772.000000 Z"/>
<path style="stroke-opacity:0.000;stroke:#000000;stroke-width:1.000px;fill-opacity:0.300;fill:#000000" d="M1123.000000 1886.000000 1178.000000 1886.000000 1178.000000 1831.000000 1123.000000 1831.000000 Z"/>
<path style="stroke-opacity:0.000;stroke:#000000;stroke-width:1.000px;fill-opacity:0.300;fill:#000000" d="M1123.000000 1945.000000 1178.000000 1945.000000 1178.000000 1890.000000 1123.000000 1890.000000 Z"/>
<path style="stroke-opacity:0.000;stroke:#000000;stroke-width:1.000px;fill-opacity:0.300;fill:#000000" d="M1182.000000 2004.000000 1237.000000 2004.000000 1237.000000 1949.000000 1182.000000 1949.000000 Z"/>
<path style="stroke-opacity:0.000;stroke:#0000FF;stroke-width:1.000px;fill-opacity:0.300;fill:#0000FF" d="M2.000000 57.000000 57.000000 57.000000 57.000000 2.000000 2.000000 2.000000 Z"/>
<path style="stroke-opacity:0.000;stroke:#0000FF;stroke-width:1.000px;fill-opacity:0.300;fill:#0000FF" d="M2.000000 57.000000 57.000000 57.000000 57.000000 2.000000 2.000000 2.000000 Z"/>
<path style="stroke-opacity:0.000;stroke:#0000FF;stroke-width:1.000px;fill-opacity:0.300;fill:#0000FF" d="M2.000000 57.000000 57.000000 57.000000 57.000000 2.000000 2.000000 2.000000 Z"/>
<path style="stroke-opacity:0.000;stroke:#0000FF;stroke-width:1.000px;fill-opacity:0.300;fill:#0000FF" d="M2.000000 116.000000 57.000000 116.000000 57.000000 61.000000 2.000000 61.000000 Z"/>
<path style="stroke-opacity:0.000;stroke:#0000FF;stroke-width:1.000px;fill-opacity:0.300;fill:#0000FF" d="M2.000000 116.000000 57.000000 116.000000 57.000000 61.000000 2.000000 61.000000 Z"/>
<path style="stroke-opacity:0.000;stroke:#0000FF;stroke-width:1.000px;fill-opacity:0.300;fill:#0000FF" d="M2.000000 116.000000 57.000000 116.000000 57.000000 61.000000 2.000000 61.000000 Z"/>
<path style="stroke-opacity:0.000;stroke:#0000FF;stroke-width:1.000px;fill-opacity:0.300;fill:#0000FF" d="M61.000000 175.000000 116.000000 175.000000 116.000000 120.000000 61.000000 120.000000 Z"/>
<path style="stroke-opacity:0.000;stroke:#0000FF;stroke-width:1.000px;fill-opacity:0.300;fill:#0000FF" d="M61.000000 175.000000 116.000000 175.000000 116.000000 120.000000 61.000000 120.000000 Z"/>
<path style="stroke-opacity:0.000;stroke:#0000FF;stroke-width:1.000px;fill-opacity:0.300;fill:#0000FF" d="M61.000000 175.000000 116.000000 175.000000 116.000000 120.000000 61.000000 120.000000 Z"/>
<path style="stroke-opacity:0.000;stroke:#0000FF;stroke-width:1.000px;fill-opacity:0.300;fill:#0000FF" d="M61.000000 234.000000 116.000000 234.000000 116.000000 179.000000 61.000000 179.000000 Z"/>
<path style="stroke-opacity:0.000;stroke:#0000FF;stroke-width:1.000px;fill-opacity:0.300;fill:#0000FF" d="M61.000000 234.000000 116.000000 234.000000 116.000000 179.000000 61.000000 179.000000 Z"/>
<path style="stroke-opacity:0.000;stroke:#0000FF;stroke-width:1.000px;fill-opacity:0.300;fill:#0000FF" d="M61.000000 234.000000 116.000000 234.000000 116.000000 179.000000 61.000000 179.000000 Z"/>
<path style="stroke-opacity:0.000;stroke:#0000FF;stroke-width:1.000px;fill-opacity:0.300;fill:#0000FF" d="M120.000000 293.000000 175.000000 293.000000 175.000000 238.000000 120.000000 238.000000 Z"/>
<path style="stroke-opacity:0.000;stroke:#0000FF;stroke-width:1.000px;fill-opacity:0.300;fill:#0000FF" d="M120.000000 293.000000 175.000000 293.000000 175.000000 238.000000 120.000000 238.000000 Z"/>
<path style="stroke-opacity:0.000;stroke:#FF0000;stroke-width:1.000px;fill-opacity:0.300;fill:#FF0000" d="M120.000000 293.000000 175.000000 293.000000 175.000000 238.000000 120.000000 238.000000 Z"/>
<path style="stroke-opacity:0.000;stroke:#0000FF;stroke-width:1.000px;fill-opacity:0.300;fill:#0000FF" d="M179.000000 352.000000 234.000000 352.000000 234.000000 297.000000 179.000000 297.000000 Z"/>
<path style="stroke-opacity:0.000;stroke:#0000FF;stroke-width:1.000px;fill-opacity:0.300;fill:#0000FF" d="M179.000000 352.000000 234.000000 352.000000 234.000000 297.000000 179.000000 297.000000 Z"/>
<path style="stroke-opacity:0.000;stroke:#0000FF;stroke-width:1.000px;fill-opacity:0.300;fill:#0000FF" d="M179.000000 352.000000 234.000000 352.000000 234.000000 297.000000 179.000000 297.000000 Z"/>
<path style="stroke-opacity:0.000;stroke:#0000FF;stroke-width:1.000px;fill-opacity:0.300;fill:#0000FF" d="M179.000000 411.000000 234.000000 411.000000 234.000000 356.000000 179.000000 356.000000 Z"/>
<path style="stroke-opacity:0.000;stroke:#0000FF;stroke-width:1.000px;fill-opacity:0.300;fill:#0000FF" d="M179.000000 411.000000 234.000000 411.000000 234.000000 356.000000 179.000000 356.000000 Z"/>
<path style="stroke-opacity:0.000;stroke:#0000FF;stroke-width:1.000px;fill-opacity:0.300;fill:#0000FF" d="M179.000000 411.000000 234.000000 411.000000 234.000000 356.000000 179.000000 356.000000 Z"/>
<path style="stroke-opacity:0.000;stroke:#0000FF;stroke-width:1.000px;fill-opacity:0.300;fill:#0000FF" d="M238.000000 470.000000 293.000000 470.000000 293.000000 415.000000 238.000000 415.000000 Z"/>
<path style="stroke-opacity:0.000;stroke:#0000FF;stroke-width:1.000px;fill-opacity:0.300;fill:#0000FF" d="M238.000000 470.000000 293.000000 470.000000 293.000000 415.000000 238.000000 415.000000 Z"/>
<path style="stroke-opacity:0.000;stroke:#0000FF;stroke-width:1.000px;fill-opacity:0.300;fill:#0000FF" d="M238.000000 470.000000 293.000000 470.000000 293.000000 415.000000 238.000000 415.000000 Z"/>
<path style="stroke-opacity:0.000;stroke:#0000FF;stroke-width:1.000px;fill-opacity:0.300;fill:#0000FF" d="M238.000000 529.000000 293.000000 529.000000 293.000000 474.000000 238.000000 474.000000 Z"/>
<path style="stroke-opacity:0.000;stroke:#0000FF;stroke-width:1.000px;fill-opacity:0.300;fill:#0000FF" d="M238.000000 529.000000 293.000000 529.000000 293.000000 474.000000 238.000000 474.000000 Z"/>
<path style="stroke-opacity:0.000;stroke:#0000FF;stroke-width:1.000px;fill-opacity:0.300;fill:#0000FF" d="M238.000000 529.000000 293.000000 529.000000 293.000000 474.000000 238.000000 474.000000 Z"/>
<path style="stroke-opacity:0.000;stroke:#0000FF;stroke-width:1.000px;fill-opacity:0.300;fill:#0000FF" d="M297.000000 588.000000 352.000000 588.000000 352.000000 533.000000 297.000000 533.000000 Z"/>
<path style="stroke-opacity:0.000;stroke:#0000FF;stroke-width:1.000px;fill-opacity:0.300;fill:#0000FF" d="M297.000000 588.000000 352.000000 588.000000 352.000000 533.000000 297.000000 533.000000 Z"/>
<path style="stroke-opacity:0.000;stroke:#FF0000;stroke-width:1.000px;fill-opacity:0.300;fill:#FF0000" d="M297.000000 588.000000 352.000000 588.000000 352.000000 533.000000 297.000000 533.000000 Z"/>
<path style="stroke-opacity:0.000;stroke:#0000FF;stroke-width:1.000px;fill-opacity:0.300;fill:#0000FF" d="M356.000000 647.000000 411.000000 647.000000 411.000000 592.000000 356.000000 592.000000 Z"/>
<path style="stroke-opacity:0.000;stroke:#FF0000;stroke-width:1.000px;fill-opacity:0.300;fill:#FF0000" d="M356.000000 647.000000 411.000000 647.000000 411.000000 592.000000 356.000000 592.000000 Z"/>
<path style="stroke-opacity:0.000;stroke:#0000FF;stroke-width:1.000px;fill-opacity:0.300;fill:#0000FF" d="M356.000000 647.000000 411.000000 647.000000 411.000000 592.000000 356.000000 592.000000 Z"/>
<path style="stroke-opacity:0.000;stroke:#0000FF;stroke-width:1.000px;fill-opacity:0.300;fill:#0000FF" d="M356.000000 706.000000 411.000000 706.000000 411.000000 651.000000 356.000000 651.000000 Z"/>
<path style="stroke-opacity:0.000;stroke:#FF0000;stroke-width:1.000px;fill-opacity:0.300;fill:#FF0000" d="M356.000000 706.000000 411.000000 706.000000 411.000000 651.000000 356.000000 651.000000 Z"/>
<path style="stroke-opacity:0.000;stroke:#0000FF;stroke-width:1.000px;fill-opacity:0.300;fill:#0000FF" d="M356.000000 706.000000 411.000000 706.000000 411.000000 651.000000 356.000000 651.000000 Z"/>
<path style="stroke-opacity:0.000;stroke:#0000FF;stroke-width:1.000px;fill-opacity:0.300;fill:#0000FF" d="M415.000000 765.000000 470.000000 765.000000 470.000000 710.000000 415.000000 710.000000 Z"/>
<path style="stroke-opacity:0.000;stroke:#FF0000;stroke-width:1.000px;fill-opacity:0.300;fill:#FF0000" d="M415.000000 765.000000 470.000000 765.000000 470.000000 710.000000 415.000000 710.000000 Z"/>
<path style="stroke-opacity:0.000;stroke:#FF0000;stroke-width:1.000px;fill-opacity:0.300;fill:#FF0000" d="M415.000000 765.000000 470.000000 765.000000 470.000000 710.000000 415.000000 710.000000 Z"/>
<path style="stroke-opacity:0.000;stroke:#0000FF;stroke-width:1.000px;fill-opacity:0.300;fill:#0000FF" d="M474.000000 824.000000 529.000000 824.000000 529.000000 769.000000 474.000000 769.000000 Z"/>
<path style="stroke-opacity:0.000;stroke:#0000FF;stroke-width:1.000px;fill-opacity:0.300;fill:#0000FF" d="M474.000000 824.000000 529.000000 824.000000 529.000000 769.000000 474.000000 769.000000 Z"/>
<path style="stroke-opacity:0.000;stroke:#0000FF;stroke-width:1.000px;fill-opacity:0.300;fill:#0000FF" d="M474.000000 824.000000 529.000000 824.000000 529.000000 769.000000 474.000000 769.000000 Z"/>
<path style="stroke-opacity:0.000;stroke:#0000FF;stroke-width:1.000px;fill-opacity:0.300;fill:#0000FF" d="M474.000000 883.000000 529.000000 883.000000 529.000000 828.000000 474.000000 828.000000 Z"/>
<path style="stroke-opacity:0.000;stroke:#0000FF;stroke-width:1.000px;fill-opacity:0.300;fill:#0000FF" d="M474.000000 883.000000 529.000000 883.000000 529.000000 828.000000 474.000000 828.000000 Z"/>
<path style="stroke-opacity:0.000;stroke:#0000FF;stroke-width:1.000px;fill-opacity:0.300;fill:#0000FF" d="M474.000000 883.000000 529.000000 883.000000 529.000000 828.000000 474.000000 828.000000 Z"/>
<path style="stroke-opacity:0.000;stroke:#0000FF;stroke-width:1.000px;fill-opacity:0.300;fill:#0000FF" d="M533.000000 942.000000 588.000000 942.000000 588.000000 887.000000 533.000000 887.000000 Z"/>
<path style="stroke-opacity:0.000;stroke:#0000FF;stroke-width:1.000px;fill-opacity:0.300;fill:#0000FF" d="M533.000000 942.000000 588.000000 942.000000 588.000000 887.000000 533.000000 887.000000 Z"/>
<path style="stroke-opacity:0.000;stroke:#0000FF;stroke-width:1.000px;fill-opacity:0.300;fill:#0000FF" d="M533.000000 942.000000 588.000000 942.000000 588.000000 887.000000 533.000000 887.000000 Z"/>
<path style="stroke-opacity:0.000;stroke:#0000FF;stroke-width:1.000px;fill-opacity:0.300;fill:#0000FF" d="M533.000000 1001.000000 588.000000 1001.000000 588.000000 946.000000 533.000000 946.000000 Z"/>
<path style="stroke-opacity:0.000;stroke:#0000FF;stroke-width:1.000px;fill-opacity:0.300;fill:#0000FF" d="M533.000000 1001.000000 588.000000 1001.000000 588.000000 946.000000 533.000000 946.000000 Z"/>
<path style="stroke-opacity:0.000;stroke:#0000FF;stroke-width:1.000px;fill-opacity:0.300;fill:#0000FF" d="M533.000000 1001.000000 588.000000 1001.000000 588.000000 946.000000 533.000000 946.000000 Z"/>
<path style="stroke-opacity:0.000;stroke:#0000FF;stroke-width:1.000px;fill-opacity:0.300;fill:#0000FF" d="M592.000000 1060.000000 647.000000 1060.000000 647.000000 1005.000000 592.000000 1005.000000 Z"/>
<path style="stroke-opacity:0.000;stroke:#0000FF;stroke-width:1.000px;fill-opacity:0.300;fill:#0000FF" d="M592.000000 1060.000000 647.000000 1060.000000 647.000000 1005.000000 592.000000 1005.000000 Z"/>
<path style="stroke-opacity:0.000;stroke:#FF0000;stroke-width:1.000px;fill-opacity:0.300;fill:#FF0000" d="M592.000000 1060.000000 647.000000 1060.000000 647.000000 1005.000000 592.000000 1005.000000 Z"/>
<path style="stroke-opacity:0.000;stroke:#0000FF;stroke-width:1.000px;fill-opacity:0.300;fill:#0000FF" d="M651.000000 1119.000000 706.000000 1119.000000 706.000000 1064.000000 651.000000 1064.000000 Z"/>
<path style="stroke-opacity:0.000;stroke:#0000FF;stroke-width:1.000px;fill-opacity:0.300;fill:#0000FF" d="M651.000000 1119.000000 706.000000 1119.000000 706.000000 1064.000000 651.000000 1064.000000 Z"/>
<path style="stroke-opacity:0.000;stroke:#0000FF;stroke-width:1.000px;fill-opacity:0.300;fill:#0000FF" d="M651.000000 1119.000000 706.000000 1119.000000 706.000000 1064.000000 651.000000 1064.000000 Z"/>
<path style="stroke-opacity:0.000;stroke:#0000FF;stroke-width:1.000px;fill-opacity:0.300;fill:#0000FF" d="M651.000000 1178.000000 706.000000 1178.000000 706.000000 1123.000000 651.000000 1123.000000 Z"/>
<path style="stroke-opacity:0.000;stroke:#0000FF;stroke-width:1.000px;fill-opacity:0.300;fill:#0000FF" d="M651.000000 1178.000000 706.000000 1178.000000 706.000000 1123.000000 651.000000 1123.000000 Z"/>
<path style="stroke-opacity:0.000;stroke:#0000FF;stroke-width:1.000px;fill-opacity:0.300;fill:#0000FF" d="M651.000000 1178.000000 706.000000 1178.000000 706.000000 1123.000000 651.000000 1123.000000 Z"/>
<path style="stroke-opacity:0.000;stroke:#0000FF;stroke-width:1.000px;fill-opacity:0.300;fill:#0000FF" d="M710.000000 1237.000000 765.000000 1237.000000 765.000000 1182.000000 710.000000 1182.000000 Z"/>
<path style="stroke-opacity:0.000;stroke:#0000FF;stroke-width:1.000px;fill-opacity:0.300;fill:#0000FF" d="M710.000000 1237.000000 765.000000 1237.000000 765.000000 1182.000000 710.000000 1182.000000 Z"/>
<path style="stroke-opacity:0.000;stroke:#0000FF;stroke-width:1.000px;fill-opacity:0.300;fill:#0000FF" d="M710.000000 1237.000000 765.000000 1237.000000 765.000000 1182.000000 710.000000 1182.000000 Z"/>
<path style="stroke-opacity:0.000;stroke:#0000FF;stroke-width:1.000px;fill-opacity:0.300;fill:#0000FF" d="M710.000000 1296.000000 765.000000 1296.000000 765.000000 1241.000000 710.000000 1241.000000 Z"/>
<path style="stroke-opacity:0.000;stroke:#0000FF;stroke-width:1.000px;fill-opacity:0.300;fill:#0000FF" d="M710.000000 1296.000000 765.000000 1296.000000 765.000000 1241.000000 710.000000 1241.000000 Z"/>
<path style="stroke-opacity:0.000;stroke:#0000FF;stroke-width:1.000px;fill-opacity:0.300;fill:#0000FF" d="M710.000000 1296.000000 765.000000 1296.000000 765.000000 1241.000000 710.000000 1241.000000 Z"/>
<path style="stroke-opacity:0.000;stroke:#0000FF;stroke-width:1.000px;fill-opacity:0.300;fill:#0000FF" d="M769.000000 1355.000000 824.000000 1355.000000 824.000000 1300.000000 769.000000 1300.000000 Z"/>
<path style="stroke-opacity:0.000;stroke:#0000FF;stroke-width:1.000px;fill-opacity:0.300;fill:#0000FF" d="M769.000000 1355.000000 824.000000 1355.000000 824.000000 1300.000000 769.000000 1300.000000 Z"/>
<path style="stroke-opacity:0.000;stroke:#FF0000;stroke-width:1.000px;fill-opacity:0.300;fill:#FF0000" d="M769.000000 1355.000000 824.000000 1355.000000 824.000000 1300.000000 769.000000 1300.000000 Z"/>
<path style="stroke-opacity:0.000;stroke:#0000FF;stroke-width:1.000px;fill-opacity:0.300;fill:#0000FF" d="M828.000000 1414.000000 883.000000 1414.000000 883.000000 1359.000000 828.000000 1359.000000 Z"/>
<path style="stroke-opacity:0.000;stroke:#FF0000;stroke-width:1.000px;fill-opacity:0.300;fill:#FF0000" d="M828.000000 1414.000000 883.000000 1414.000000 883.000000 1359.000000 828.000000 1359.000000 Z"/>
<path style="stroke-opacity:0.000;stroke:#0000FF;stroke-width:1.000px;fill-opacity:0.300;fill:#0000FF" d="M828.000000 1414.000000 883.000000 1414.000000 883.000000 1359.000000 828.000000 1359.000000 Z"/>
<path style="stroke-opacity:0.000;stroke:#0000FF;stroke-width:1.000px;fill-opacity:0.300;fill:#0000FF" d="M828.000000 1473.000000 883.000000 1473.000000 883.000000 1418.000000 828.000000 1418.000000 Z"/>
<path style="stroke-opacity:0.000;stroke:#FF0000;stroke-width:1.000px;fill-opacity:0.300;fill:#FF0000" d="M828.000000 1473.000000 883.000000 1473.000000 883.000000 1418.000000 828.000000 1418.000000 Z"/>
<path style="stroke-opacity:0.000;stroke:#0000FF;stroke-width:1.000px;fill-opacity:0.300;fill:#0000FF" d="M828.000000 1473.000000 883.000000 1473.000000 883.000000 1418.000000 828.000000 1418.000000 Z"/>
<path style="stroke-opacity:0.000;stroke:#0000FF;stroke-width:1.000px;fill-opacity:0.300;fill:#0000FF" d="M887.000000 1532.000000 942.000000 1532.000000 942.000000 1477.000000 887.000000 1477.000000 Z"/>
<path style="stroke-opacity:0.000;stroke:#FF0000;stroke-width:1.000px;fill-opacity:0.300;fill:#FF0000" d="M887.000000 1532.000000 942.000000 1532.000000 942.000000 1477.000000 887.000000 1477.000000 Z"/>
<path style="stroke-opacity:0.000;stroke:#FF0000;stroke-width:1.000px;fill-opacity:0.300;fill:#FF0000" d="M887.000000 1532.000000 942.000000 1532.000000 942.000000 1477.000000 887.000000 1477.000000 Z"/>
<path style="stroke-opacity:0.000;stroke:#FF0000;stroke-width:1.000px;fill-opacity:0.300;fill:#FF0000" d="M946.000000 1591.000000 1001.000000 1591.000000 1001.000000 1536.000000 946.000000 1536.000000 Z"/>
<path style="stroke-opacity:0.000;stroke:#0000FF;stroke-width:1.000px;fill-opacity:0.300;fill:#0000FF" d="M946.000000 1591.000000 1001.000000 1591.000000 1001.000000 1536.000000 946.000000 1536.000000 Z"/>
<path style="stroke-opacity:0.000;stroke:#FF0000;stroke-width:1.000px;fill-opacity:0.300;fill:#FF0000" d="M946.000000 1650.000000 1001.000000 1650.000000 1001.000000 1595.000000 946.000000 1595.000000 Z"/>
<path style="stroke-opacity:0.000;stroke:#0000FF;stroke-width:1.000px;fill-opacity:0.300;fill:#0000FF" d="M946.000000 1650.000000 1001.000000 1650.000000 1001.000000 1595.000000 946.000000 1595.000000 Z"/>
<path style="stroke-opacity:0.000;stroke:#FF0000;stroke-width:1.000px;fill-opacity:0.300;fill:#FF0000" d="M1005.000000 1709.000000 1060.000000 1709.000000 1060.000000 1654.000000 1005.000000 1654.000000 Z"/>
<path style="stroke-opacity:0.000;stroke:#0000FF;stroke-width:1.000px;fill-opacity:0.300;fill:#0000FF" d="M1005.000000 1709.000000 1060.000000 1709.000000 1060.000000 1654.000000 1005.000000 1654.000000 Z"/>
<path style="stroke-opacity:0.000;stroke:#FF0000;stroke-width:1.000px;fill-opacity:0.300;fill:#FF0000" d="M1005.000000 1768.000000 1060.000000 1768.000000 1060.000000 1713.000000 1005.000000 1713.000000 Z"/>
<path style="stroke-opacity:0.000;stroke:#0000FF;stroke-width:1.000px;fill-opacity:0.300;fill:#0000FF" d="M1005.000000 1768.000000 1060.000000 1768.000000 1060.000000 1713.000000 1005.000000 1713.000000 Z"/>
<path style="stroke-opacity:0.000;stroke:#FF0000;stroke-width:1.000px;fill-opacity:0.300;fill:#FF0000" d="M1064.000000 1827.000000 1119.000000 1827.000000 1119.000000 1772.000000 1064.000000 1772.000000 Z"/>
<path style="stroke-opacity:0.000;stroke:#0000FF;stroke-width:1.000px;fill-opacity:0.300;fill:#0000FF" d="M1064.000000 1827.000000 1119.000000 1827.000000 1119.000000 1772.000000 1064.000000 1772.000000 Z"/>
<path style="stroke-opacity:0.000;stroke:#FF0000;stroke-width:1.000px;fill-opacity:0.300;fill:#FF0000" d="M1123.000000 1886.000000 1178.000000 1886.000000 1178.000000 1831.000000 1123.000000 1831.000000 Z"/>
<path style="stroke-opacity:0.000;stroke:#FF0000;stroke-width:1.000px;fill-opacity:0.300;fill:#FF0000" d="M1123.000000 1886.000000 1178.000000 1886.000000 1178.000000 1831.000000 1123.000000 1831.000000 Z"/>
<path style="stroke-opacity:0.000;stroke:#FF0000;stroke-width:1.000px;fill-opacity:0.300;fill:#FF0000" d="M1123.000000 1945.000000 1178.000000 1945.000000 1178.000000 1890.000000 1123.000000 1890.000000 Z"/>
<path style="stroke-opacity:0.000;stroke:#FF0000;stroke-width:1.000px;fill-opacity:0.300;fill:#FF0000" d="M1123.000000 1945.000000 1178.000000 1945.000000 1178.000000 1890.000000 1123.000000 1890.000000 Z"/>
<path style="stroke-opacity:0.000;stroke:#FF0000;stroke-width:1.000px;fill-opacity:0.300;fill:#FF0000" d="M1182.000000 2004.000000 1237.000000 2004.000000 1237.000000 1949.000000 1182.000000 1949.000000 Z"/>
<path style="stroke-opacity:0.000;stroke:#FF0000;stroke-width:1.000px;fill-opacity:0.300;fill:#FF0000" d="M1182.000000 2004.000000 1237.000000 2004.000000 1237.000000 1949.000000 1182.000000 1949.000000 Z"/>
</g>
</svg>
