<svg width="1200" height="2000" viewBox="0 0 1200 2000" xmlns="http://www.w3.org/2000/svg" xmlns:xlink="http://www.w3.org/1999/xlink">
<g transform="rotate(0.000000) translate(0.000000 2000.000000) scale(1.000000 -1.000000)">
<path style="stroke-opacity:1.000;stroke:#FFFFFF;stroke-width:1.000px;fill-opacity:1.000;fill:#FFFFFF" d="M0.000000 0.000000 1200.000000 0.000000 1200.000000 2000.000000 0.000000 2000.000000 Z"/>
<path style="opacity:1.000;stroke:#555555;stroke-width:0.500px;fill:none" d="M400.000000 2000.000000L400.000000 0.000000M800.000000 2000.000000L800.000000 0.000000M0.000000 400.000000L1200.000000 400.000000M0.000000 800.000000L1200.000000 800.000000M0.000000 1200.000000L1200.000000 1200.000000M0.000000 1600.000000L1200.000000 1600.000000"/>
<path style="stroke-opacity:0.000;stroke:#000000;stroke-width:1.000px;fill-opacity:0.300;fill:#000000" d="M2.000000 398.000000 398.000000 398.000000 398.000000 2.000000 2.000000 2.000000 Z"/>
<path style="stroke-opacity:0.000;stroke:#000000;stroke-width:1.000px;fill-opacity:0.300;fill:#000000" d="M2.000000 798.000000 398.000000 798.000000 398.000000 402.000000 2.000000 402.000000 Z"/>
<path style="stroke-opacity:0.000;stroke:#000000;stroke-width:1.000px;fill-opacity:0.300;fill:#000000" d="M402.000000 1198.000000 798.000000 1198.000000 798.000000 802.000000 402.000000 802.000000 Z"/>
<path style="stroke-opacity:0.000;stroke:#000000;stroke-width:1.000px;fill-opacity:0.300;fill:#000000" d="M402.000000 1598.000000 798.000000 1598.000000 798.000000 1202.000000 402.000000 1202.000000 Z"/>
<path style="stroke-opacity:0.000;stroke:#000000;stroke-width:1.000px;fill-opacity:0.300;fill:#000000" d="M802.000000 1998.000000 1198.000000 1998.000000 1198.000000 1602.000000 802.000000 1602.000000 Z"/>
<path style="stroke-opacity:0.000;stroke:#0000FF;stroke-width:1.000px;fill-opacity:0.300;fill:#0000FF" d="M2.000000 398.000000 398.000000 398.000000 398.000000 2.000000 2.000000 2.000000 Z"/>
<path style="stroke-opacity:0.000;stroke:#0000FF;stroke-width:1.000px;fill-opacity:0.300;fill:#0000FF" d="M2.000000 798.000000 398.000000 798.000000 398.000000 402.000000 2.000000 402.000000 Z"/>
<path style="stroke-opacity:0.000;stroke:#0000FF;stroke-width:1.000px;fill-opacity:0.300;fill:#0000FF" d="M402.000000 1198.000000 798.000000 1198.000000 798.000000 802.000000 402.000000 802.000000 Z"/>
<path style="stroke-opacity:0.000;stroke:#0000FF;stroke-width:1.000px;fill-opacity:0.300;fill:#0000FF" d="M402.000000 1598.000000 798.000000 1598.000000 798.000000 1202.000000 402.000000 1202.000000 Z"/>
<path style="stroke-opacity:0.000;stroke:#FF0000;stroke-width:1.000px;fill-opacity:0.300;fill:#FF0000" d="M802.000000 1998.000000 1198.000000 1998.000000 1198.000000 1602.000000 802.000000 1602.000000 Z"/>
</g>
</svg>
