<svg width="1210" height="1958" viewBox="0 0 1210 1958" xmlns="http://www.w3.org/2000/svg" xmlns:xlink="http://www.w3.org/1999/xlink">
<g transform="rotate(0.000000) translate(0.000000 1958.000000) scale(1.000000 -1.000000)">
<path style="stroke-opacity:1.000;stroke:#FFFFFF;stroke-width:1.000px;fill-opacity:1.000;fill:#FFFFFF" d="M0.000000 0.000000 1210.000000 0.000000 1210.000000 1958.000000 0.000000 1958.000000 Z"/>
<path style="opacity:1.000;stroke:#555555;stroke-width:0.500px;fill:none" d="M22.000000 1958.000000L22.000000 0.000000M44.000000 1958.000000L44.000000 0.000000M66.000000 1958.000000L66.000000 0.000000M88.000000 1958.000000L88.000000 0.000000M110.000000 1958.000000L110.000000 0.000000M132.000000 1958.000000L132.000000 0.000000M154.000000 1958.000000L154.000000 0.000000M176.000000 1958.000000L176.000000 0.000000M198.000000 1958.000000L198.000000 0.000000M220.000000 1958.000000L220.000000 0.000000M242.000000 1958.000000L242.000000 0.000000M264.000000 1958.000000L264.000000 0.000000M286.000000 1958.000000L286.000000 0.000000M308.000000 1958.000000L308.000000 0.000000M330.000000 1958.000000L330.000000 0.000000M352.000000 1958.000000L352.000000 0.000000M374.000000 1958.000000L374.000000 0.000000M396.000000 1958.000000L396.000000 0.000000M418.000000 1958.000000L418.000000 0.000000M440.000000 1958.000000L440.000000 0.000000M462.000000 1958.000000L462.000000 0.000000M484.000000 1958.000000L484.000000 0.000000M506.000000 1958.000000L506.000000 0.000000M528.000000 1958.000000L528.000000 0.000000M550.000000 1958.000000L550.000000 0.000000M572.000000 1958.000000L572.000000 0.000000M594.000000 1958.000000L594.000000 0.000000M616.000000 1958.000000L616.000000 0.000000M638.000000 1958.000000L638.000000 0.000000M660.000000 1958.000000L660.000000 0.000000M682.000000 1958.000000L682.000000 0.000000M704.000000 1958.000000L704.000000 0.000000M726.000000 1958.000000L726.000000 0.000000M748.000000 1958.000000L748.000000 0.000000M770.000000 1958.000000L770.000000 0.000000M792.000000 1958.000000L792.000000 0.000000M814.000000 1958.000000L814.000000 0.000000M836.000000 1958.000000L836.000000 0.000000M858.000000 1958.000000L858.000000 0.000000M880.000000 1958.000000L880.000000 0.000000M902.000000 1958.000000L902.000000 0.000000M924.000000 1958.000000L924.000000 0.000000M946.000000 1958.000000L946.000000 0.000000M968.000000 1958.000000L968.000000 0.000000M990.000000 1958.000000L990.000000 0.000000M1012.000000 1958.000000L1012.000000 0.000000M1034.000000 1958.000000L1034.000000 0.000000M1056.000000 1958.000000L1056.000000 0.000000M1078.000000 1958.000000L1078.000000 0.000000M1100.000000 1958.000000L1100.000000 0.000000M1122.000000 1958.000000L1122.000000 0.000000M1144.000000 1958.000000L1144.000000 0.000000M1166.000000 1958.000000L1166.000000 0.000000M1188.000000 1958.000000L1188.000000 0.000000M0.000000 22.000000L1210.000000 22.000000M0.000000 44.000000L1210.000000 44.000000M0.000000 66.000000L1210.000000 66.000000M0.000000 88.000000L1210.000000 88.000000M0.000000 110.000000L1210.000000 110.000000M0.000000 132.000000L1210.000000 132.000000M0.000000 154.000000L1210.000000 154.000000M0.000000 176.000000L1210.000000 176.000000M0.000000 198.000000L1210.000000 198.000000M0.000000 220.000000L1210.000000 220.000000M0.000000 242.000000L1210.000000 242.000000M0.000000 264.000000L1210.000000 264.000000M0.000000 286.000000L1210.000000 286.000000M0.000000 308.000000L1210.000000 308.000000M0.000000 330.000000L1210.000000 330.000000M0.000000 352.000000L1210.000000 352.000000M0.000000 374.000000L1210.000000 374.000000M0.000000 396.000000L1210.000000 396.000000M0.000000 418.000000L1210.000000 418.000000M0.000000 440.000000L1210.000000 440.000000M0.000000 462.000000L1210.000000 462.000000M0.000000 484.000000L1210.000000 484.000000M0.000000 506.000000L1210.000000 506.000000M0.000000 528.000000L1210.000000 528.000000M0.000000 550.000000L1210.000000 550.000000M0.000000 572.000000L1210.000000 572.000000M0.000000 594.000000L1210.000000 594.000000M0.000000 616.000000L1210.000000 616.000000M0.000000 638.000000L1210.000000 638.000000M0.000000 660.000000L1210.000000 660.000000M0.000000 682.000000L1210.000000 682.000000M0.000000 704.000000L1210.000000 704.000000M0.000000 726.000000L1210.000000 726.000000M0.000000 748.000000L1210.000000 748.000000M0.000000 770.000000L1210.000000 770.000000M0.000000 792.000000L1210.000000 792.000000M0.000000 814.000000L1210.000000 814.000000M0.000000 836.000000L1210.000000 836.000000M0.000000 858.000000L1210.000000 858.000000M0.000000 880.000000L1210.000000 880.000000M0.000000 902.000000L1210.000000 902.000000M0.000000 924.000000L1210.000000 924.000000M0.000000 946.000000L1210.000000 946.000000M0.000000 968.000000L1210.000000 968.000000M0.000000 990.000000L1210.000000 990.000000M0.000000 1012.000000L1210.000000 1012.000000M0.000000 1034.000000L1210.000000 1034.000000M0.000000 1056.000000L1210.000000 1056.000000M0.000000 1078.000000L1210.000000 1078.000000M0.000000 1100.000000L1210.000000 1100.000000M0.000000 1122.000000L1210.000000 1122.000000M0.000000 1144.000000L1210.000000 1144.000000M0.000000 1166.000000L1210.000000 1166.000000M0.000000 1188.000000L1210.000000 1188.000000M0.000000 1210.000000L1210.000000 1210.000000M0.000000 1232.000000L1210.000000 1232.000000M0.000000 1254.000000L1210.000000 1254.000000M0.000000 1276.000000L1210.000000 1276.000000M0.000000 1298.000000L1210.000000 1298.000000M0.000000 1320.000000L1210.000000 1320.000000M0.000000 1342.000000L1210.000000 1342.000000M0.000000 1364.000000L1210.000000 1364.000000M0.000000 1386.000000L1210.000000 1386.000000M0.000000 1408.000000L1210.000000 1408.000000M0.000000 1430.000000L1210.000000 1430.000000M0.000000 1452.000000L1210.000000 1452.000000M0.000000 1474.000000L1210.000000 1474.000000M0.000000 1496.000000L1210.000000 1496.000000M0.000000 1518.000000L1210.000000 1518.000000M0.000000 1540.000000L1210.000000 1540.000000M0.000000 1562.000000L1210.000000 1562.000000M0.000000 1584.000000L1210.000000 1584.000000M0.000000 1606.000000L1210.000000 1606.000000M0.000000 1628.000000L1210.000000 1628.000000M0.000000 1650.000000L1210.000000 1650.000000M0.000000 1672.000000L1210.000000 1672.000000M0.000000 1694.000000L1210.000000 1694.000000M0.000000 1716.000000L1210.000000 1716.000000M0.000000 1738.000000L1210.000000 1738.000000M0.000000 1760.000000L1210.000000 1760.000000M0.000000 1782.000000L1210.000000 1782.000000M0.000000 1804.000000L1210.000000 1804.000000M0.000000 1826.000000L1210.000000 1826.000000M0.000000 1848.000000L1210.000000 1848.000000M0.000000 1870.000000L1210.000000 1870.000000M0.000000 1892.000000L1210.000000 1892.000000M0.000000 1914.000000L1210.000000 1914.000000M0.000000 1936.000000L1210.000000 1936.000000"/>
<path style="stroke-opacity:0.000;stroke:#000000;stroke-width:1.000px;fill-opacity:0.300;fill:#000000" d="M2.000000 20.000000 20.000000 20.000000 20.000000 2.000000 2.000000 2.000000 Z"/>
<path style="stroke-opacity:0.000;stroke:#000000;stroke-width:1.000px;fill-opacity:0.300;fill:#000000" d="M2.000000 42.000000 20.000000 42.000000 20.000000 24.000000 2.000000 24.000000 Z"/>
<path style="stroke-opacity:0.000;stroke:#000000;stroke-width:1.000px;fill-opacity:0.300;fill:#000000" d="M24.000000 64.000000 42.000000 64.000000 42.000000 46.000000 24.000000 46.000000 Z"/>
<path style="stroke-opacity:0.000;stroke:#000000;stroke-width:1.000px;fill-opacity:0.300;fill:#000000" d="M24.000000 86.000000 42.000000 86.000000 42.000000 68.000000 24.000000 68.000000 Z"/>
<path style="stroke-opacity:0.000;stroke:#000000;stroke-width:1.000px;fill-opacity:0.300;fill:#000000" d="M46.000000 108.000000 64.000000 108.000000 64.000000 90.000000 46.000000 90.000000 Z"/>
<path style="stroke-opacity:0.000;stroke:#000000;stroke-width:1.000px;fill-opacity:0.300;fill:#000000" d="M68.000000 130.000000 86.000000 130.000000 86.000000 112.000000 68.000000 112.000000 Z"/>
<path style="stroke-opacity:0.000;stroke:#000000;stroke-width:1.000px;fill-opacity:0.300;fill:#000000" d="M68.000000 152.000000 86.000000 152.000000 86.000000 134.000000 68.000000 134.000000 Z"/>
<path style="stroke-opacity:0.000;stroke:#000000;stroke-width:1.000px;fill-opacity:0.300;fill:#000000" d="M90.000000 174.000000 108.000000 174.000000 108.000000 156.000000 90.000000 156.000000 Z"/>
<path style="stroke-opacity:0.000;stroke:#000000;stroke-width:1.000px;fill-opacity:0.300;fill:#000000" d="M90.000000 196.000000 108.000000 196.000000 108.000000 178.000000 90.000000 178.000000 Z"/>
<path style="stroke-opacity:0.000;stroke:#000000;stroke-width:1.000px;fill-opacity:0.300;fill:#000000" d="M112.000000 218.000000 130.000000 218.000000 130.000000 200.000000 112.000000 200.000000 Z"/>
<path style="stroke-opacity:0.000;stroke:#000000;stroke-width:1.000px;fill-opacity:0.300;fill:#000000" d="M134.000000 240.000000 152.000000 240.000000 152.000000 222.000000 134.000000 222.000000 Z"/>
<path style="stroke-opacity:0.000;stroke:#000000;stroke-width:1.000px;fill-opacity:0.300;fill:#000000" d="M134.000000 262.000000 152.000000 262.000000 152.000000 244.000000 134.000000 244.000000 Z"/>
<path style="stroke-opacity:0.000;stroke:#000000;stroke-width:1.000px;fill-opacity:0.300;fill:#000000" d="M156.000000 284.000000 174.000000 284.000000 174.000000 266.000000 156.000000 266.000000 Z"/>
<path style="stroke-opacity:0.000;stroke:#000000;stroke-width:1.000px;fill-opacity:0.300;fill:#000000" d="M178.000000 306.000000 196.000000 306.000000 196.000000 288.000000 178.000000 288.000000 Z"/>
<path style="stroke-opacity:0.000;stroke:#000000;stroke-width:1.000px;fill-opacity:0.300;fill:#000000" d="M178.000000 328.000000 196.000000 328.000000 196.000000 310.000000 178.000000 310.000000 Z"/>
<path style="stroke-opacity:0.000;stroke:#000000;stroke-width:1.000px;fill-opacity:0.300;fill:#000000" d="M200.000000 350.000000 218.000000 350.000000 218.000000 332.000000 200.000000 332.000000 Z"/>
<path style="stroke-opacity:0.000;stroke:#000000;stroke-width:1.000px;fill-opacity:0.300;fill:#000000" d="M200.000000 372.000000 218.000000 372.000000 218.000000 354.000000 200.000000 354.000000 Z"/>
<path style="stroke-opacity:0.000;stroke:#000000;stroke-width:1.000px;fill-opacity:0.300;fill:#000000" d="M222.000000 394.000000 240.000000 394.000000 240.000000 376.000000 222.000000 376.000000 Z"/>
<path style="stroke-opacity:0.000;stroke:#000000;stroke-width:1.000px;fill-opacity:0.300;fill:#000000" d="M244.000000 416.000000 262.000000 416.000000 262.000000 398.000000 244.000000 398.000000 Z"/>
<path style="stroke-opacity:0.000;stroke:#000000;stroke-width:1.000px;fill-opacity:0.300;fill:#000000" d="M244.000000 438.000000 262.000000 438.000000 262.000000 420.000000 244.000000 420.000000 Z"/>
<path style="stroke-opacity:0.000;stroke:#000000;stroke-width:1.000px;fill-opacity:0.300;fill:#000000" d="M266.000000 460.000000 284.000000 460.000000 284.000000 442.000000 266.000000 442.000000 Z"/>
<path style="stroke-opacity:0.000;stroke:#000000;stroke-width:1.000px;fill-opacity:0.300;fill:#000000" d="M266.000000 482.000000 284.000000 482.000000 284.000000 464.000000 266.000000 464.000000 Z"/>
<path style="stroke-opacity:0.000;stroke:#000000;stroke-width:1.000px;fill-opacity:0.300;fill:#000000" d="M288.000000 504.000000 306.000000 504.000000 306.000000 486.000000 288.000000 486.000000 Z"/>
<path style="stroke-opacity:0.000;stroke:#000000;stroke-width:1.000px;fill-opacity:0.300;fill:#000000" d="M310.000000 526.000000 328.000000 526.000000 328.000000 508.000000 310.000000 508.000000 Z"/>
<path style="stroke-opacity:0.000;stroke:#000000;stroke-width:1.000px;fill-opacity:0.300;fill:#000000" d="M310.000000 548.000000 328.000000 548.000000 328.000000 530.000000 310.000000 530.000000 Z"/>
<path style="stroke-opacity:0.000;stroke:#000000;stroke-width:1.000px;fill-opacity:0.300;fill:#000000" d="M332.000000 570.000000 350.000000 570.000000 350.000000 552.000000 332.000000 552.000000 Z"/>
<path style="stroke-opacity:0.000;stroke:#000000;stroke-width:1.000px;fill-opacity:0.300;fill:#000000" d="M354.000000 592.000000 372.000000 592.000000 372.000000 574.000000 354.000000 574.000000 Z"/>
<path style="stroke-opacity:0.000;stroke:#000000;stroke-width:1.000px;fill-opacity:0.300;fill:#000000" d="M354.000000 614.000000 372.000000 614.000000 372.000000 596.000000 354.000000 596.000000 Z"/>
<path style="stroke-opacity:0.000;stroke:#000000;stroke-width:1.000px;fill-opacity:0.300;fill:#000000" d="M376.000000 636.000000 394.000000 636.000000 394.000000 618.000000 376.000000 618.000000 Z"/>
<path style="stroke-opacity:0.000;stroke:#000000;stroke-width:1.000px;fill-opacity:0.300;fill:#000000" d="M376.000000 658.000000 394.000000 658.000000 394.000000 640.000000 376.000000 640.000000 Z"/>
<path style="stroke-opacity:0.000;stroke:#000000;stroke-width:1.000px;fill-opacity:0.300;fill:#000000" d="M398.000000 680.000000 416.000000 680.000000 416.000000 662.000000 398.000000 662.000000 Z"/>
<path style="stroke-opacity:0.000;stroke:#000000;stroke-width:1.000px;fill-opacity:0.300;fill:#000000" d="M420.000000 702.000000 438.000000 702.000000 438.000000 684.000000 420.000000 684.000000 Z"/>
<path style="stroke-opacity:0.000;stroke:#000000;stroke-width:1.000px;fill-opacity:0.300;fill:#000000" d="M420.000000 724.000000 438.000000 724.000000 438.000000 706.000000 420.000000 706.000000 Z"/>
<path style="stroke-opacity:0.000;stroke:#000000;stroke-width:1.000px;fill-opacity:0.300;fill:#000000" d="M442.000000 746.000000 460.000000 746.000000 460.000000 728.000000 442.000000 728.000000 Z"/>
<path style="stroke-opacity:0.000;stroke:#000000;stroke-width:1.000px;fill-opacity:0.300;fill:#000000" d="M464.000000 768.000000 482.000000 768.000000 482.000000 750.000000 464.000000 750.000000 Z"/>
<path style="stroke-opacity:0.000;stroke:#000000;stroke-width:1.000px;fill-opacity:0.300;fill:#000000" d="M464.000000 790.000000 482.000000 790.000000 482.000000 772.000000 464.000000 772.000000 Z"/>
<path style="stroke-opacity:0.000;stroke:#000000;stroke-width:1.000px;fill-opacity:0.300;fill:#000000" d="M486.000000 812.000000 504.000000 812.000000 504.000000 794.000000 486.000000 794.000000 Z"/>
<path style="stroke-opacity:0.000;stroke:#000000;stroke-width:1.000px;fill-opacity:0.300;fill:#000000" d="M486.000000 834.000000 504.000000 834.000000 504.000000 816.000000 486.000000 816.000000 Z"/>
<path style="stroke-opacity:0.000;stroke:#000000;stroke-width:1.000px;fill-opacity:0.300;fill:#000000" d="M508.000000 856.000000 526.000000 856.000000 526.000000 838.000000 508.000000 838.000000 Z"/>
<path style="stroke-opacity:0.000;stroke:#000000;stroke-width:1.000px;fill-opacity:0.300;fill:#000000" d="M530.000000 878.000000 548.000000 878.000000 548.000000 860.000000 530.000000 860.000000 Z"/>
<path style="stroke-opacity:0.000;stroke:#000000;stroke-width:1.000px;fill-opacity:0.300;fill:#000000" d="M530.000000 900.000000 548.000000 900.000000 548.000000 882.000000 530.000000 882.000000 Z"/>
<path style="stroke-opacity:0.000;stroke:#000000;stroke-width:1.000px;fill-opacity:0.300;fill:#000000" d="M552.000000 922.000000 570.000000 922.000000 570.000000 904.000000 552.000000 904.000000 Z"/>
<path style="stroke-opacity:0.000;stroke:#000000;stroke-width:1.000px;fill-opacity:0.300;fill:#000000" d="M552.000000 944.000000 570.000000 944.000000 570.000000 926.000000 552.000000 926.000000 Z"/>
<path style="stroke-opacity:0.000;stroke:#000000;stroke-width:1.000px;fill-opacity:0.300;fill:#000000" d="M574.000000 966.000000 592.000000 966.000000 592.000000 948.000000 574.000000 948.000000 Z"/>
<path style="stroke-opacity:0.000;stroke:#000000;stroke-width:1.000px;fill-opacity:0.300;fill:#000000" d="M596.000000 988.000000 614.000000 988.000000 614.000000 970.000000 596.000000 970.000000 Z"/>
<path style="stroke-opacity:0.000;stroke:#000000;stroke-width:1.000px;fill-opacity:0.300;fill:#000000" d="M596.000000 1010.000000 614.000000 1010.000000 614.000000 992.000000 596.000000 992.000000 Z"/>
<path style="stroke-opacity:0.000;stroke:#000000;stroke-width:1.000px;fill-opacity:0.300;fill:#000000" d="M618.000000 1032.000000 636.000000 1032.000000 636.000000 1014.000000 618.000000 1014.000000 Z"/>
<path style="stroke-opacity:0.000;stroke:#000000;stroke-width:1.000px;fill-opacity:0.300;fill:#000000" d="M640.000000 1054.000000 658.000000 1054.000000 658.000000 1036.000000 640.000000 1036.000000 Z"/>
<path style="stroke-opacity:0.000;stroke:#000000;stroke-width:1.000px;fill-opacity:0.300;fill:#000000" d="M640.000000 1076.000000 658.000000 1076.000000 658.000000 1058.000000 640.000000 1058.000000 Z"/>
<path style="stroke-opacity:0.000;stroke:#000000;stroke-width:1.000px;fill-opacity:0.300;fill:#000000" d="M662.000000 1098.000000 680.000000 1098.000000 680.000000 1080.000000 662.000000 1080.000000 Z"/>
<path style="stroke-opacity:0.000;stroke:#000000;stroke-width:1.000px;fill-opacity:0.300;fill:#000000" d="M662.000000 1120.000000 680.000000 1120.000000 680.000000 1102.000000 662.000000 1102.000000 Z"/>
<path style="stroke-opacity:0.000;stroke:#000000;stroke-width:1.000px;fill-opacity:0.300;fill:#000000" d="M684.000000 1142.000000 702.000000 1142.000000 702.000000 1124.000000 684.000000 1124.000000 Z"/>
<path style="stroke-opacity:0.000;stroke:#000000;stroke-width:1.000px;fill-opacity:0.300;fill:#000000" d="M706.000000 1164.000000 724.000000 1164.000000 724.000000 1146.000000 706.000000 1146.000000 Z"/>
<path style="stroke-opacity:0.000;stroke:#000000;stroke-width:1.000px;fill-opacity:0.300;fill:#000000" d="M706.000000 1186.000000 724.000000 1186.000000 724.000000 1168.000000 706.000000 1168.000000 Z"/>
<path style="stroke-opacity:0.000;stroke:#000000;stroke-width:1.000px;fill-opacity:0.300;fill:#000000" d="M728.000000 1208.000000 746.000000 1208.000000 746.000000 1190.000000 728.000000 1190.000000 Z"/>
<path style="stroke-opacity:0.000;stroke:#000000;stroke-width:1.000px;fill-opacity:0.300;fill:#000000" d="M728.000000 1230.000000 746.000000 1230.000000 746.000000 1212.000000 728.000000 1212.000000 Z"/>
<path style="stroke-opacity:0.000;stroke:#000000;stroke-width:1.000px;fill-opacity:0.300;fill:#000000" d="M750.000000 1252.000000 768.000000 1252.000000 768.000000 1234.000000 750.000000 1234.000000 Z"/>
<path style="stroke-opacity:0.000;stroke:#000000;stroke-width:1.000px;fill-opacity:0.300;fill:#000000" d="M772.000000 1274.000000 790.000000 1274.000000 790.000000 1256.000000 772.000000 1256.000000 Z"/>
<path style="stroke-opacity:0.000;stroke:#000000;stroke-width:1.000px;fill-opacity:0.300;fill:#000000" d="M772.000000 1296.000000 790.000000 1296.000000 790.000000 1278.000000 772.000000 1278.000000 Z"/>
<path style="stroke-opacity:0.000;stroke:#000000;stroke-width:1.000px;fill-opacity:0.300;fill:#000000" d="M794.000000 1318.000000 812.000000 1318.000000 812.000000 1300.000000 794.000000 1300.000000 Z"/>
<path style="stroke-opacity:0.000;stroke:#000000;stroke-width:1.000px;fill-opacity:0.300;fill:#000000" d="M816.000000 1340.000000 834.000000 1340.000000 834.000000 1322.000000 816.000000 1322.000000 Z"/>
<path style="stroke-opacity:0.000;stroke:#000000;stroke-width:1.000px;fill-opacity:0.300;fill:#000000" d="M816.000000 1362.000000 834.000000 1362.000000 834.000000 1344.000000 816.000000 1344.000000 Z"/>
<path style="stroke-opacity:0.000;stroke:#000000;stroke-width:1.000px;fill-opacity:0.300;fill:#000000" d="M838.000000 1384.000000 856.000000 1384.000000 856.000000 1366.000000 838.000000 1366.000000 Z"/>
<path style="stroke-opacity:0.000;stroke:#000000;stroke-width:1.000px;fill-opacity:0.300;fill:#000000" d="M838.000000 1406.000000 856.000000 1406.000000 856.000000 1388.000000 838.000000 1388.000000 Z"/>
<path style="stroke-opacity:0.000;stroke:#000000;stroke-width:1.000px;fill-opacity:0.300;fill:#000000" d="M860.000000 1428.000000 878.000000 1428.000000 878.000000 1410.000000 860.000000 1410.000000 Z"/>
<path style="stroke-opacity:0.000;stroke:#000000;stroke-width:1.000px;fill-opacity:0.300;fill:#000000" d="M882.000000 1450.000000 900.000000 1450.000000 900.000000 1432.000000 882.000000 1432.000000 Z"/>
<path style="stroke-opacity:0.000;stroke:#000000;stroke-width:1.000px;fill-opacity:0.300;fill:#000000" d="M882.000000 1472.000000 900.000000 1472.000000 900.000000 1454.000000 882.000000 1454.000000 Z"/>
<path style="stroke-opacity:0.000;stroke:#000000;stroke-width:1.000px;fill-opacity:0.300;fill:#000000" d="M904.000000 1494.000000 922.000000 1494.000000 922.000000 1476.000000 904.000000 1476.000000 Z"/>
<path style="stroke-opacity:0.000;stroke:#000000;stroke-width:1.000px;fill-opacity:0.300;fill:#000000" d="M926.000000 1516.000000 944.000000 1516.000000 944.000000 1498.000000 926.000000 1498.000000 Z"/>
<path style="stroke-opacity:0.000;stroke:#000000;stroke-width:1.000px;fill-opacity:0.300;fill:#000000" d="M926.000000 1538.000000 944.000000 1538.000000 944.000000 1520.000000 926.000000 1520.000000 Z"/>
<path style="stroke-opacity:0.000;stroke:#000000;stroke-width:1.000px;fill-opacity:0.300;fill:#000000" d="M948.000000 1560.000000 966.000000 1560.000000 966.000000 1542.000000 948.000000 1542.000000 Z"/>
<path style="stroke-opacity:0.000;stroke:#000000;stroke-width:1.000px;fill-opacity:0.300;fill:#000000" d="M948.000000 1582.000000 966.000000 1582.000000 966.000000 1564.000000 948.000000 1564.000000 Z"/>
<path style="stroke-opacity:0.000;stroke:#000000;stroke-width:1.000px;fill-opacity:0.300;fill:#000000" d="M970.000000 1604.000000 988.000000 1604.000000 988.000000 1586.000000 970.000000 1586.000000 Z"/>
<path style="stroke-opacity:0.000;stroke:#000000;stroke-width:1.000px;fill-opacity:0.300;fill:#000000" d="M992.000000 1626.000000 1010.000000 1626.000000 1010.000000 1608.000000 992.000000 1608.000000 Z"/>
<path style="stroke-opacity:0.000;stroke:#000000;stroke-width:1.000px;fill-opacity:0.300;fill:#000000" d="M992.000000 1648.000000 1010.000000 1648.000000 1010.000000 1630.000000 992.000000 1630.000000 Z"/>
<path style="stroke-opacity:0.000;stroke:#000000;stroke-width:1.000px;fill-opacity:0.300;fill:#000000" d="M1014.000000 1670.000000 1032.000000 1670.000000 1032.000000 1652.000000 1014.000000 1652.000000 Z"/>
<path style="stroke-opacity:0.000;stroke:#000000;stroke-width:1.000px;fill-opacity:0.300;fill:#000000" d="M1014.000000 1692.000000 1032.000000 1692.000000 1032.000000 1674.000000 1014.000000 1674.000000 Z"/>
<path style="stroke-opacity:0.000;stroke:#000000;stroke-width:1.000px;fill-opacity:0.300;fill:#000000" d="M1036.000000 1714.000000 1054.000000 1714.000000 1054.000000 1696.000000 1036.000000 1696.000000 Z"/>
<path style="stroke-opacity:0.000;stroke:#000000;stroke-width:1.000px;fill-opacity:0.300;fill:#000000" d="M1058.000000 1736.000000 1076.000000 1736.000000 1076.000000 1718.000000 1058.000000 1718.000000 Z"/>
<path style="stroke-opacity:0.000;stroke:#000000;stroke-width:1.000px;fill-opacity:0.300;fill:#000000" d="M1058.000000 1758.000000 1076.000000 1758.000000 1076.000000 1740.000000 1058.000000 1740.000000 Z"/>
<path style="stroke-opacity:0.000;stroke:#000000;stroke-width:1.000px;fill-opacity:0.300;fill:#000000" d="M1080.000000 1780.000000 1098.000000 1780.000000 1098.000000 1762.000000 1080.000000 1762.000000 Z"/>
<path style="stroke-opacity:0.000;stroke:#000000;stroke-width:1.000px;fill-opacity:0.300;fill:#000000" d="M1102.000000 1802.000000 1120.000000 1802.000000 1120.000000 1784.000000 1102.000000 1784.000000 Z"/>
<path style="stroke-opacity:0.000;stroke:#000000;stroke-width:1.000px;fill-opacity:0.300;fill:#000000" d="M1102.000000 1824.000000 1120.000000 1824.000000 1120.000000 1806.000000 1102.000000 1806.000000 Z"/>
<path style="stroke-opacity:0.000;stroke:#000000;stroke-width:1.000px;fill-opacity:0.300;fill:#000000" d="M1124.000000 1846.000000 1142.000000 1846.000000 1142.000000 1828.000000 1124.000000 1828.000000 Z"/>
<path style="stroke-opacity:0.000;stroke:#000000;stroke-width:1.000px;fill-opacity:0.300;fill:#000000" d="M1124.000000 1868.000000 1142.000000 1868.000000 1142.000000 1850.000000 1124.000000 1850.000000 Z"/>
<path style="stroke-opacity:0.000;stroke:#000000;stroke-width:1.000px;fill-opacity:0.300;fill:#000000" d="M1146.000000 1890.000000 1164.000000 1890.000000 1164.000000 1872.000000 1146.000000 1872.000000 Z"/>
<path style="stroke-opacity:0.000;stroke:#000000;stroke-width:1.000px;fill-opacity:0.300;fill:#000000" d="M1168.000000 1912.000000 1186.000000 1912.000000 1186.000000 1894.000000 1168.000000 1894.000000 Z"/>
<path style="stroke-opacity:0.000;stroke:#000000;stroke-width:1.000px;fill-opacity:0.300;fill:#000000" d="M1168.000000 1934.000000 1186.000000 1934.000000 1186.000000 1916.000000 1168.000000 1916.000000 Z"/>
<path style="stroke-opacity:0.000;stroke:#000000;stroke-width:1.000px;fill-opacity:0.300;fill:#000000" d="M1190.000000 1956.000000 1208.000000 1956.000000 1208.000000 1938.000000 1190.000000 1938.000000 Z"/>
<path style="stroke-opacity:0.000;stroke:#0000FF;stroke-width:1.000px;fill-opacity:0.300;fill:#0000FF" d="M2.000000 20.000000 20.000000 20.000000 20.000000 2.000000 2.000000 2.000000 Z"/>
<path style="stroke-opacity:0.000;stroke:#0000FF;stroke-width:1.000px;fill-opacity:0.300;fill:#0000FF" d="M2.000000 20.000000 20.000000 20.000000 20.000000 2.000000 2.000000 2.000000 Z"/>
<path style="stroke-opacity:0.000;stroke:#0000FF;stroke-width:1.000px;fill-opacity:0.300;fill:#0000FF" d="M2.000000 20.000000 20.000000 20.000000 20.000000 2.000000 2.000000 2.000000 Z"/>
<path style="stroke-opacity:0.000;stroke:#0000FF;stroke-width:1.000px;fill-opacity:0.300;fill:#0000FF" d="M2.000000 20.000000 20.000000 20.000000 20.000000 2.000000 2.000000 2.000000 Z"/>
<path style="stroke-opacity:0.000;stroke:#0000FF;stroke-width:1.000px;fill-opacity:0.300;fill:#0000FF" d="M2.000000 42.000000 20.000000 42.000000 20.000000 24.000000 2.000000 24.000000 Z"/>
<path style="stroke-opacity:0.000;stroke:#0000FF;stroke-width:1.000px;fill-opacity:0.300;fill:#0000FF" d="M2.000000 42.000000 20.000000 42.000000 20.000000 24.000000 2.000000 24.000000 Z"/>
<path style="stroke-opacity:0.000;stroke:#0000FF;stroke-width:1.000px;fill-opacity:0.300;fill:#0000FF" d="M2.000000 42.000000 20.000000 42.000000 20.000000 24.000000 2.000000 24.000000 Z"/>
<path style="stroke-opacity:0.000;stroke:#0000FF;stroke-width:1.000px;fill-opacity:0.300;fill:#0000FF" d="M2.000000 42.000000 20.000000 42.000000 20.000000 24.000000 2.000000 24.000000 Z"/>
<path style="stroke-opacity:0.000;stroke:#0000FF;stroke-width:1.000px;fill-opacity:0.300;fill:#0000FF" d="M24.000000 64.000000 42.000000 64.000000 42.000000 46.000000 24.000000 46.000000 Z"/>
<path style="stroke-opacity:0.000;stroke:#0000FF;stroke-width:1.000px;fill-opacity:0.300;fill:#0000FF" d="M24.000000 64.000000 42.000000 64.000000 42.000000 46.000000 24.000000 46.000000 Z"/>
<path style="stroke-opacity:0.000;stroke:#0000FF;stroke-width:1.000px;fill-opacity:0.300;fill:#0000FF" d="M24.000000 64.000000 42.000000 64.000000 42.000000 46.000000 24.000000 46.000000 Z"/>
<path style="stroke-opacity:0.000;stroke:#0000FF;stroke-width:1.000px;fill-opacity:0.300;fill:#0000FF" d="M24.000000 64.000000 42.000000 64.000000 42.000000 46.000000 24.000000 46.000000 Z"/>
<path style="stroke-opacity:0.000;stroke:#0000FF;stroke-width:1.000px;fill-opacity:0.300;fill:#0000FF" d="M24.000000 86.000000 42.000000 86.000000 42.000000 68.000000 24.000000 68.000000 Z"/>
<path style="stroke-opacity:0.000;stroke:#0000FF;stroke-width:1.000px;fill-opacity:0.300;fill:#0000FF" d="M24.000000 86.000000 42.000000 86.000000 42.000000 68.000000 24.000000 68.000000 Z"/>
<path style="stroke-opacity:0.000;stroke:#0000FF;stroke-width:1.000px;fill-opacity:0.300;fill:#0000FF" d="M24.000000 86.000000 42.000000 86.000000 42.000000 68.000000 24.000000 68.000000 Z"/>
<path style="stroke-opacity:0.000;stroke:#0000FF;stroke-width:1.000px;fill-opacity:0.300;fill:#0000FF" d="M24.000000 86.000000 42.000000 86.000000 42.000000 68.000000 24.000000 68.000000 Z"/>
<path style="stroke-opacity:0.000;stroke:#0000FF;stroke-width:1.000px;fill-opacity:0.300;fill:#0000FF" d="M46.000000 108.000000 64.000000 108.000000 64.000000 90.000000 46.000000 90.000000 Z"/>
<path style="stroke-opacity:0.000;stroke:#0000FF;stroke-width:1.000px;fill-opacity:0.300;fill:#0000FF" d="M46.000000 108.000000 64.000000 108.000000 64.000000 90.000000 46.000000 90.000000 Z"/>
<path style="stroke-opacity:0.000;stroke:#0000FF;stroke-width:1.000px;fill-opacity:0.300;fill:#0000FF" d="M46.000000 108.000000 64.000000 108.000000 64.000000 90.000000 46.000000 90.000000 Z"/>
<path style="stroke-opacity:0.000;stroke:#FF0000;stroke-width:1.000px;fill-opacity:0.300;fill:#FF0000" d="M46.000000 108.000000 64.000000 108.000000 64.000000 90.000000 46.000000 90.000000 Z"/>
<path style="stroke-opacity:0.000;stroke:#0000FF;stroke-width:1.000px;fill-opacity:0.300;fill:#0000FF" d="M68.000000 130.000000 86.000000 130.000000 86.000000 112.000000 68.000000 112.000000 Z"/>
<path style="stroke-opacity:0.000;stroke:#0000FF;stroke-width:1.000px;fill-opacity:0.300;fill:#0000FF" d="M68.000000 130.000000 86.000000 130.000000 86.000000 112.000000 68.000000 112.000000 Z"/>
<path style="stroke-opacity:0.000;stroke:#0000FF;stroke-width:1.000px;fill-opacity:0.300;fill:#0000FF" d="M68.000000 130.000000 86.000000 130.000000 86.000000 112.000000 68.000000 112.000000 Z"/>
<path style="stroke-opacity:0.000;stroke:#0000FF;stroke-width:1.000px;fill-opacity:0.300;fill:#0000FF" d="M68.000000 130.000000 86.000000 130.000000 86.000000 112.000000 68.000000 112.000000 Z"/>
<path style="stroke-opacity:0.000;stroke:#0000FF;stroke-width:1.000px;fill-opacity:0.300;fill:#0000FF" d="M68.000000 152.000000 86.000000 152.000000 86.000000 134.000000 68.000000 134.000000 Z"/>
<path style="stroke-opacity:0.000;stroke:#0000FF;stroke-width:1.000px;fill-opacity:0.300;fill:#0000FF" d="M68.000000 152.000000 86.000000 152.000000 86.000000 134.000000 68.000000 134.000000 Z"/>
<path style="stroke-opacity:0.000;stroke:#0000FF;stroke-width:1.000px;fill-opacity:0.300;fill:#0000FF" d="M68.000000 152.000000 86.000000 152.000000 86.000000 134.000000 68.000000 134.000000 Z"/>
<path style="stroke-opacity:0.000;stroke:#0000FF;stroke-width:1.000px;fill-opacity:0.300;fill:#0000FF" d="M68.000000 152.000000 86.000000 152.000000 86.000000 134.000000 68.000000 134.000000 Z"/>
<path style="stroke-opacity:0.000;stroke:#0000FF;stroke-width:1.000px;fill-opacity:0.300;fill:#0000FF" d="M90.000000 174.000000 108.000000 174.000000 108.000000 156.000000 90.000000 156.000000 Z"/>
<path style="stroke-opacity:0.000;stroke:#0000FF;stroke-width:1.000px;fill-opacity:0.300;fill:#0000FF" d="M90.000000 174.000000 108.000000 174.000000 108.000000 156.000000 90.000000 156.000000 Z"/>
<path style="stroke-opacity:0.000;stroke:#0000FF;stroke-width:1.000px;fill-opacity:0.300;fill:#0000FF" d="M90.000000 174.000000 108.000000 174.000000 108.000000 156.000000 90.000000 156.000000 Z"/>
<path style="stroke-opacity:0.000;stroke:#0000FF;stroke-width:1.000px;fill-opacity:0.300;fill:#0000FF" d="M90.000000 174.000000 108.000000 174.000000 108.000000 156.000000 90.000000 156.000000 Z"/>
<path style="stroke-opacity:0.000;stroke:#0000FF;stroke-width:1.000px;fill-opacity:0.300;fill:#0000FF" d="M90.000000 196.000000 108.000000 196.000000 108.000000 178.000000 90.000000 178.000000 Z"/>
<path style="stroke-opacity:0.000;stroke:#0000FF;stroke-width:1.000px;fill-opacity:0.300;fill:#0000FF" d="M90.000000 196.000000 108.000000 196.000000 108.000000 178.000000 90.000000 178.000000 Z"/>
<path style="stroke-opacity:0.000;stroke:#0000FF;stroke-width:1.000px;fill-opacity:0.300;fill:#0000FF" d="M90.000000 196.000000 108.000000 196.000000 108.000000 178.000000 90.000000 178.000000 Z"/>
<path style="stroke-opacity:0.000;stroke:#0000FF;stroke-width:1.000px;fill-opacity:0.300;fill:#0000FF" d="M90.000000 196.000000 108.000000 196.000000 108.000000 178.000000 90.000000 178.000000 Z"/>
<path style="stroke-opacity:0.000;stroke:#0000FF;stroke-width:1.000px;fill-opacity:0.300;fill:#0000FF" d="M112.000000 218.000000 130.000000 218.000000 130.000000 200.000000 112.000000 200.000000 Z"/>
<path style="stroke-opacity:0.000;stroke:#0000FF;stroke-width:1.000px;fill-opacity:0.300;fill:#0000FF" d="M112.000000 218.000000 130.000000 218.000000 130.000000 200.000000 112.000000 200.000000 Z"/>
<path style="stroke-opacity:0.000;stroke:#0000FF;stroke-width:1.000px;fill-opacity:0.300;fill:#0000FF" d="M112.000000 218.000000 130.000000 218.000000 130.000000 200.000000 112.000000 200.000000 Z"/>
<path style="stroke-opacity:0.000;stroke:#FF0000;stroke-width:1.000px;fill-opacity:0.300;fill:#FF0000" d="M112.000000 218.000000 130.000000 218.000000 130.000000 200.000000 112.000000 200.000000 Z"/>
<path style="stroke-opacity:0.000;stroke:#0000FF;stroke-width:1.000px;fill-opacity:0.300;fill:#0000FF" d="M134.000000 240.000000 152.000000 240.000000 152.000000 222.000000 134.000000 222.000000 Z"/>
<path style="stroke-opacity:0.000;stroke:#0000FF;stroke-width:1.000px;fill-opacity:0.300;fill:#0000FF" d="M134.000000 240.000000 152.000000 240.000000 152.000000 222.000000 134.000000 222.000000 Z"/>
<path style="stroke-opacity:0.000;stroke:#FF0000;stroke-width:1.000px;fill-opacity:0.300;fill:#FF0000" d="M134.000000 240.000000 152.000000 240.000000 152.000000 222.000000 134.000000 222.000000 Z"/>
<path style="stroke-opacity:0.000;stroke:#0000FF;stroke-width:1.000px;fill-opacity:0.300;fill:#0000FF" d="M134.000000 240.000000 152.000000 240.000000 152.000000 222.000000 134.000000 222.000000 Z"/>
<path style="stroke-opacity:0.000;stroke:#0000FF;stroke-width:1.000px;fill-opacity:0.300;fill:#0000FF" d="M134.000000 262.000000 152.000000 262.000000 152.000000 244.000000 134.000000 244.000000 Z"/>
<path style="stroke-opacity:0.000;stroke:#0000FF;stroke-width:1.000px;fill-opacity:0.300;fill:#0000FF" d="M134.000000 262.000000 152.000000 262.000000 152.000000 244.000000 134.000000 244.000000 Z"/>
<path style="stroke-opacity:0.000;stroke:#FF0000;stroke-width:1.000px;fill-opacity:0.300;fill:#FF0000" d="M134.000000 262.000000 152.000000 262.000000 152.000000 244.000000 134.000000 244.000000 Z"/>
<path style="stroke-opacity:0.000;stroke:#0000FF;stroke-width:1.000px;fill-opacity:0.300;fill:#0000FF" d="M134.000000 262.000000 152.000000 262.000000 152.000000 244.000000 134.000000 244.000000 Z"/>
<path style="stroke-opacity:0.000;stroke:#0000FF;stroke-width:1.000px;fill-opacity:0.300;fill:#0000FF" d="M156.000000 284.000000 174.000000 284.000000 174.000000 266.000000 156.000000 266.000000 Z"/>
<path style="stroke-opacity:0.000;stroke:#0000FF;stroke-width:1.000px;fill-opacity:0.300;fill:#0000FF" d="M156.000000 284.000000 174.000000 284.000000 174.000000 266.000000 156.000000 266.000000 Z"/>
<path style="stroke-opacity:0.000;stroke:#FF0000;stroke-width:1.000px;fill-opacity:0.300;fill:#FF0000" d="M156.000000 284.000000 174.000000 284.000000 174.000000 266.000000 156.000000 266.000000 Z"/>
<path style="stroke-opacity:0.000;stroke:#FF0000;stroke-width:1.000px;fill-opacity:0.300;fill:#FF0000" d="M156.000000 284.000000 174.000000 284.000000 174.000000 266.000000 156.000000 266.000000 Z"/>
<path style="stroke-opacity:0.000;stroke:#0000FF;stroke-width:1.000px;fill-opacity:0.300;fill:#0000FF" d="M178.000000 306.000000 196.000000 306.000000 196.000000 288.000000 178.000000 288.000000 Z"/>
<path style="stroke-opacity:0.000;stroke:#0000FF;stroke-width:1.000px;fill-opacity:0.300;fill:#0000FF" d="M178.000000 306.000000 196.000000 306.000000 196.000000 288.000000 178.000000 288.000000 Z"/>
<path style="stroke-opacity:0.000;stroke:#0000FF;stroke-width:1.000px;fill-opacity:0.300;fill:#0000FF" d="M178.000000 306.000000 196.000000 306.000000 196.000000 288.000000 178.000000 288.000000 Z"/>
<path style="stroke-opacity:0.000;stroke:#0000FF;stroke-width:1.000px;fill-opacity:0.300;fill:#0000FF" d="M178.000000 306.000000 196.000000 306.000000 196.000000 288.000000 178.000000 288.000000 Z"/>
<path style="stroke-opacity:0.000;stroke:#0000FF;stroke-width:1.000px;fill-opacity:0.300;fill:#0000FF" d="M178.000000 328.000000 196.000000 328.000000 196.000000 310.000000 178.000000 310.000000 Z"/>
<path style="stroke-opacity:0.000;stroke:#0000FF;stroke-width:1.000px;fill-opacity:0.300;fill:#0000FF" d="M178.000000 328.000000 196.000000 328.000000 196.000000 310.000000 178.000000 310.000000 Z"/>
<path style="stroke-opacity:0.000;stroke:#0000FF;stroke-width:1.000px;fill-opacity:0.300;fill:#0000FF" d="M178.000000 328.000000 196.000000 328.000000 196.000000 310.000000 178.000000 310.000000 Z"/>
<path style="stroke-opacity:0.000;stroke:#0000FF;stroke-width:1.000px;fill-opacity:0.300;fill:#0000FF" d="M178.000000 328.000000 196.000000 328.000000 196.000000 310.000000 178.000000 310.000000 Z"/>
<path style="stroke-opacity:0.000;stroke:#0000FF;stroke-width:1.000px;fill-opacity:0.300;fill:#0000FF" d="M200.000000 350.000000 218.000000 350.000000 218.000000 332.000000 200.000000 332.000000 Z"/>
<path style="stroke-opacity:0.000;stroke:#0000FF;stroke-width:1.000px;fill-opacity:0.300;fill:#0000FF" d="M200.000000 350.000000 218.000000 350.000000 218.000000 332.000000 200.000000 332.000000 Z"/>
<path style="stroke-opacity:0.000;stroke:#0000FF;stroke-width:1.000px;fill-opacity:0.300;fill:#0000FF" d="M200.000000 350.000000 218.000000 350.000000 218.000000 332.000000 200.000000 332.000000 Z"/>
<path style="stroke-opacity:0.000;stroke:#0000FF;stroke-width:1.000px;fill-opacity:0.300;fill:#0000FF" d="M200.000000 350.000000 218.000000 350.000000 218.000000 332.000000 200.000000 332.000000 Z"/>
<path style="stroke-opacity:0.000;stroke:#0000FF;stroke-width:1.000px;fill-opacity:0.300;fill:#0000FF" d="M200.000000 372.000000 218.000000 372.000000 218.000000 354.000000 200.000000 354.000000 Z"/>
<path style="stroke-opacity:0.000;stroke:#0000FF;stroke-width:1.000px;fill-opacity:0.300;fill:#0000FF" d="M200.000000 372.000000 218.000000 372.000000 218.000000 354.000000 200.000000 354.000000 Z"/>
<path style="stroke-opacity:0.000;stroke:#0000FF;stroke-width:1.000px;fill-opacity:0.300;fill:#0000FF" d="M200.000000 372.000000 218.000000 372.000000 218.000000 354.000000 200.000000 354.000000 Z"/>
<path style="stroke-opacity:0.000;stroke:#0000FF;stroke-width:1.000px;fill-opacity:0.300;fill:#0000FF" d="M200.000000 372.000000 218.000000 372.000000 218.000000 354.000000 200.000000 354.000000 Z"/>
<path style="stroke-opacity:0.000;stroke:#0000FF;stroke-width:1.000px;fill-opacity:0.300;fill:#0000FF" d="M222.000000 394.000000 240.000000 394.000000 240.000000 376.000000 222.000000 376.000000 Z"/>
<path style="stroke-opacity:0.000;stroke:#0000FF;stroke-width:1.000px;fill-opacity:0.300;fill:#0000FF" d="M222.000000 394.000000 240.000000 394.000000 240.000000 376.000000 222.000000 376.000000 Z"/>
<path style="stroke-opacity:0.000;stroke:#0000FF;stroke-width:1.000px;fill-opacity:0.300;fill:#0000FF" d="M222.000000 394.000000 240.000000 394.000000 240.000000 376.000000 222.000000 376.000000 Z"/>
<path style="stroke-opacity:0.000;stroke:#FF0000;stroke-width:1.000px;fill-opacity:0.300;fill:#FF0000" d="M222.000000 394.000000 240.000000 394.000000 240.000000 376.000000 222.000000 376.000000 Z"/>
<path style="stroke-opacity:0.000;stroke:#0000FF;stroke-width:1.000px;fill-opacity:0.300;fill:#0000FF" d="M244.000000 416.000000 262.000000 416.000000 262.000000 398.000000 244.000000 398.000000 Z"/>
<path style="stroke-opacity:0.000;stroke:#0000FF;stroke-width:1.000px;fill-opacity:0.300;fill:#0000FF" d="M244.000000 416.000000 262.000000 416.000000 262.000000 398.000000 244.000000 398.000000 Z"/>
<path style="stroke-opacity:0.000;stroke:#0000FF;stroke-width:1.000px;fill-opacity:0.300;fill:#0000FF" d="M244.000000 416.000000 262.000000 416.000000 262.000000 398.000000 244.000000 398.000000 Z"/>
<path style="stroke-opacity:0.000;stroke:#0000FF;stroke-width:1.000px;fill-opacity:0.300;fill:#0000FF" d="M244.000000 416.000000 262.000000 416.000000 262.000000 398.000000 244.000000 398.000000 Z"/>
<path style="stroke-opacity:0.000;stroke:#0000FF;stroke-width:1.000px;fill-opacity:0.300;fill:#0000FF" d="M244.000000 438.000000 262.000000 438.000000 262.000000 420.000000 244.000000 420.000000 Z"/>
<path style="stroke-opacity:0.000;stroke:#0000FF;stroke-width:1.000px;fill-opacity:0.300;fill:#0000FF" d="M244.000000 438.000000 262.000000 438.000000 262.000000 420.000000 244.000000 420.000000 Z"/>
<path style="stroke-opacity:0.000;stroke:#0000FF;stroke-width:1.000px;fill-opacity:0.300;fill:#0000FF" d="M244.000000 438.000000 262.000000 438.000000 262.000000 420.000000 244.000000 420.000000 Z"/>
<path style="stroke-opacity:0.000;stroke:#0000FF;stroke-width:1.000px;fill-opacity:0.300;fill:#0000FF" d="M244.000000 438.000000 262.000000 438.000000 262.000000 420.000000 244.000000 420.000000 Z"/>
<path style="stroke-opacity:0.000;stroke:#0000FF;stroke-width:1.000px;fill-opacity:0.300;fill:#0000FF" d="M266.000000 460.000000 284.000000 460.000000 284.000000 442.000000 266.000000 442.000000 Z"/>
<path style="stroke-opacity:0.000;stroke:#0000FF;stroke-width:1.000px;fill-opacity:0.300;fill:#0000FF" d="M266.000000 460.000000 284.000000 460.000000 284.000000 442.000000 266.000000 442.000000 Z"/>
<path style="stroke-opacity:0.000;stroke:#0000FF;stroke-width:1.000px;fill-opacity:0.300;fill:#0000FF" d="M266.000000 460.000000 284.000000 460.000000 284.000000 442.000000 266.000000 442.000000 Z"/>
<path style="stroke-opacity:0.000;stroke:#0000FF;stroke-width:1.000px;fill-opacity:0.300;fill:#0000FF" d="M266.000000 460.000000 284.000000 460.000000 284.000000 442.000000 266.000000 442.000000 Z"/>
<path style="stroke-opacity:0.000;stroke:#0000FF;stroke-width:1.000px;fill-opacity:0.300;fill:#0000FF" d="M266.000000 482.000000 284.000000 482.000000 284.000000 464.000000 266.000000 464.000000 Z"/>
<path style="stroke-opacity:0.000;stroke:#0000FF;stroke-width:1.000px;fill-opacity:0.300;fill:#0000FF" d="M266.000000 482.000000 284.000000 482.000000 284.000000 464.000000 266.000000 464.000000 Z"/>
<path style="stroke-opacity:0.000;stroke:#0000FF;stroke-width:1.000px;fill-opacity:0.300;fill:#0000FF" d="M266.000000 482.000000 284.000000 482.000000 284.000000 464.000000 266.000000 464.000000 Z"/>
<path style="stroke-opacity:0.000;stroke:#0000FF;stroke-width:1.000px;fill-opacity:0.300;fill:#0000FF" d="M266.000000 482.000000 284.000000 482.000000 284.000000 464.000000 266.000000 464.000000 Z"/>
<path style="stroke-opacity:0.000;stroke:#0000FF;stroke-width:1.000px;fill-opacity:0.300;fill:#0000FF" d="M288.000000 504.000000 306.000000 504.000000 306.000000 486.000000 288.000000 486.000000 Z"/>
<path style="stroke-opacity:0.000;stroke:#0000FF;stroke-width:1.000px;fill-opacity:0.300;fill:#0000FF" d="M288.000000 504.000000 306.000000 504.000000 306.000000 486.000000 288.000000 486.000000 Z"/>
<path style="stroke-opacity:0.000;stroke:#0000FF;stroke-width:1.000px;fill-opacity:0.300;fill:#0000FF" d="M288.000000 504.000000 306.000000 504.000000 306.000000 486.000000 288.000000 486.000000 Z"/>
<path style="stroke-opacity:0.000;stroke:#FF0000;stroke-width:1.000px;fill-opacity:0.300;fill:#FF0000" d="M288.000000 504.000000 306.000000 504.000000 306.000000 486.000000 288.000000 486.000000 Z"/>
<path style="stroke-opacity:0.000;stroke:#0000FF;stroke-width:1.000px;fill-opacity:0.300;fill:#0000FF" d="M310.000000 526.000000 328.000000 526.000000 328.000000 508.000000 310.000000 508.000000 Z"/>
<path style="stroke-opacity:0.000;stroke:#0000FF;stroke-width:1.000px;fill-opacity:0.300;fill:#0000FF" d="M310.000000 526.000000 328.000000 526.000000 328.000000 508.000000 310.000000 508.000000 Z"/>
<path style="stroke-opacity:0.000;stroke:#FF0000;stroke-width:1.000px;fill-opacity:0.300;fill:#FF0000" d="M310.000000 526.000000 328.000000 526.000000 328.000000 508.000000 310.000000 508.000000 Z"/>
<path style="stroke-opacity:0.000;stroke:#0000FF;stroke-width:1.000px;fill-opacity:0.300;fill:#0000FF" d="M310.000000 526.000000 328.000000 526.000000 328.000000 508.000000 310.000000 508.000000 Z"/>
<path style="stroke-opacity:0.000;stroke:#0000FF;stroke-width:1.000px;fill-opacity:0.300;fill:#0000FF" d="M310.000000 548.000000 328.000000 548.000000 328.000000 530.000000 310.000000 530.000000 Z"/>
<path style="stroke-opacity:0.000;stroke:#0000FF;stroke-width:1.000px;fill-opacity:0.300;fill:#0000FF" d="M310.000000 548.000000 328.000000 548.000000 328.000000 530.000000 310.000000 530.000000 Z"/>
<path style="stroke-opacity:0.000;stroke:#FF0000;stroke-width:1.000px;fill-opacity:0.300;fill:#FF0000" d="M310.000000 548.000000 328.000000 548.000000 328.000000 530.000000 310.000000 530.000000 Z"/>
<path style="stroke-opacity:0.000;stroke:#0000FF;stroke-width:1.000px;fill-opacity:0.300;fill:#0000FF" d="M310.000000 548.000000 328.000000 548.000000 328.000000 530.000000 310.000000 530.000000 Z"/>
<path style="stroke-opacity:0.000;stroke:#0000FF;stroke-width:1.000px;fill-opacity:0.300;fill:#0000FF" d="M332.000000 570.000000 350.000000 570.000000 350.000000 552.000000 332.000000 552.000000 Z"/>
<path style="stroke-opacity:0.000;stroke:#0000FF;stroke-width:1.000px;fill-opacity:0.300;fill:#0000FF" d="M332.000000 570.000000 350.000000 570.000000 350.000000 552.000000 332.000000 552.000000 Z"/>
<path style="stroke-opacity:0.000;stroke:#FF0000;stroke-width:1.000px;fill-opacity:0.300;fill:#FF0000" d="M332.000000 570.000000 350.000000 570.000000 350.000000 552.000000 332.000000 552.000000 Z"/>
<path style="stroke-opacity:0.000;stroke:#FF0000;stroke-width:1.000px;fill-opacity:0.300;fill:#FF0000" d="M332.000000 570.000000 350.000000 570.000000 350.000000 552.000000 332.000000 552.000000 Z"/>
<path style="stroke-opacity:0.000;stroke:#0000FF;stroke-width:1.000px;fill-opacity:0.300;fill:#0000FF" d="M354.000000 592.000000 372.000000 592.000000 372.000000 574.000000 354.000000 574.000000 Z"/>
<path style="stroke-opacity:0.000;stroke:#FF0000;stroke-width:1.000px;fill-opacity:0.300;fill:#FF0000" d="M354.000000 592.000000 372.000000 592.000000 372.000000 574.000000 354.000000 574.000000 Z"/>
<path style="stroke-opacity:0.000;stroke:#0000FF;stroke-width:1.000px;fill-opacity:0.300;fill:#0000FF" d="M354.000000 592.000000 372.000000 592.000000 372.000000 574.000000 354.000000 574.000000 Z"/>
<path style="stroke-opacity:0.000;stroke:#0000FF;stroke-width:1.000px;fill-opacity:0.300;fill:#0000FF" d="M354.000000 614.000000 372.000000 614.000000 372.000000 596.000000 354.000000 596.000000 Z"/>
<path style="stroke-opacity:0.000;stroke:#FF0000;stroke-width:1.000px;fill-opacity:0.300;fill:#FF0000" d="M354.000000 614.000000 372.000000 614.000000 372.000000 596.000000 354.000000 596.000000 Z"/>
<path style="stroke-opacity:0.000;stroke:#0000FF;stroke-width:1.000px;fill-opacity:0.300;fill:#0000FF" d="M354.000000 614.000000 372.000000 614.000000 372.000000 596.000000 354.000000 596.000000 Z"/>
<path style="stroke-opacity:0.000;stroke:#0000FF;stroke-width:1.000px;fill-opacity:0.300;fill:#0000FF" d="M376.000000 636.000000 394.000000 636.000000 394.000000 618.000000 376.000000 618.000000 Z"/>
<path style="stroke-opacity:0.000;stroke:#FF0000;stroke-width:1.000px;fill-opacity:0.300;fill:#FF0000" d="M376.000000 636.000000 394.000000 636.000000 394.000000 618.000000 376.000000 618.000000 Z"/>
<path style="stroke-opacity:0.000;stroke:#0000FF;stroke-width:1.000px;fill-opacity:0.300;fill:#0000FF" d="M376.000000 636.000000 394.000000 636.000000 394.000000 618.000000 376.000000 618.000000 Z"/>
<path style="stroke-opacity:0.000;stroke:#0000FF;stroke-width:1.000px;fill-opacity:0.300;fill:#0000FF" d="M376.000000 658.000000 394.000000 658.000000 394.000000 640.000000 376.000000 640.000000 Z"/>
<path style="stroke-opacity:0.000;stroke:#FF0000;stroke-width:1.000px;fill-opacity:0.300;fill:#FF0000" d="M376.000000 658.000000 394.000000 658.000000 394.000000 640.000000 376.000000 640.000000 Z"/>
<path style="stroke-opacity:0.000;stroke:#0000FF;stroke-width:1.000px;fill-opacity:0.300;fill:#0000FF" d="M376.000000 658.000000 394.000000 658.000000 394.000000 640.000000 376.000000 640.000000 Z"/>
<path style="stroke-opacity:0.000;stroke:#0000FF;stroke-width:1.000px;fill-opacity:0.300;fill:#0000FF" d="M398.000000 680.000000 416.000000 680.000000 416.000000 662.000000 398.000000 662.000000 Z"/>
<path style="stroke-opacity:0.000;stroke:#FF0000;stroke-width:1.000px;fill-opacity:0.300;fill:#FF0000" d="M398.000000 680.000000 416.000000 680.000000 416.000000 662.000000 398.000000 662.000000 Z"/>
<path style="stroke-opacity:0.000;stroke:#0000FF;stroke-width:1.000px;fill-opacity:0.300;fill:#0000FF" d="M398.000000 680.000000 416.000000 680.000000 416.000000 662.000000 398.000000 662.000000 Z"/>
<path style="stroke-opacity:0.000;stroke:#0000FF;stroke-width:1.000px;fill-opacity:0.300;fill:#0000FF" d="M420.000000 702.000000 438.000000 702.000000 438.000000 684.000000 420.000000 684.000000 Z"/>
<path style="stroke-opacity:0.000;stroke:#FF0000;stroke-width:1.000px;fill-opacity:0.300;fill:#FF0000" d="M420.000000 702.000000 438.000000 702.000000 438.000000 684.000000 420.000000 684.000000 Z"/>
<path style="stroke-opacity:0.000;stroke:#FF0000;stroke-width:1.000px;fill-opacity:0.300;fill:#FF0000" d="M420.000000 702.000000 438.000000 702.000000 438.000000 684.000000 420.000000 684.000000 Z"/>
<path style="stroke-opacity:0.000;stroke:#0000FF;stroke-width:1.000px;fill-opacity:0.300;fill:#0000FF" d="M420.000000 724.000000 438.000000 724.000000 438.000000 706.000000 420.000000 706.000000 Z"/>
<path style="stroke-opacity:0.000;stroke:#FF0000;stroke-width:1.000px;fill-opacity:0.300;fill:#FF0000" d="M420.000000 724.000000 438.000000 724.000000 438.000000 706.000000 420.000000 706.000000 Z"/>
<path style="stroke-opacity:0.000;stroke:#FF0000;stroke-width:1.000px;fill-opacity:0.300;fill:#FF0000" d="M420.000000 724.000000 438.000000 724.000000 438.000000 706.000000 420.000000 706.000000 Z"/>
<path style="stroke-opacity:0.000;stroke:#0000FF;stroke-width:1.000px;fill-opacity:0.300;fill:#0000FF" d="M442.000000 746.000000 460.000000 746.000000 460.000000 728.000000 442.000000 728.000000 Z"/>
<path style="stroke-opacity:0.000;stroke:#FF0000;stroke-width:1.000px;fill-opacity:0.300;fill:#FF0000" d="M442.000000 746.000000 460.000000 746.000000 460.000000 728.000000 442.000000 728.000000 Z"/>
<path style="stroke-opacity:0.000;stroke:#FF0000;stroke-width:1.000px;fill-opacity:0.300;fill:#FF0000" d="M442.000000 746.000000 460.000000 746.000000 460.000000 728.000000 442.000000 728.000000 Z"/>
<path style="stroke-opacity:0.000;stroke:#0000FF;stroke-width:1.000px;fill-opacity:0.300;fill:#0000FF" d="M464.000000 768.000000 482.000000 768.000000 482.000000 750.000000 464.000000 750.000000 Z"/>
<path style="stroke-opacity:0.000;stroke:#0000FF;stroke-width:1.000px;fill-opacity:0.300;fill:#0000FF" d="M464.000000 768.000000 482.000000 768.000000 482.000000 750.000000 464.000000 750.000000 Z"/>
<path style="stroke-opacity:0.000;stroke:#0000FF;stroke-width:1.000px;fill-opacity:0.300;fill:#0000FF" d="M464.000000 768.000000 482.000000 768.000000 482.000000 750.000000 464.000000 750.000000 Z"/>
<path style="stroke-opacity:0.000;stroke:#0000FF;stroke-width:1.000px;fill-opacity:0.300;fill:#0000FF" d="M464.000000 768.000000 482.000000 768.000000 482.000000 750.000000 464.000000 750.000000 Z"/>
<path style="stroke-opacity:0.000;stroke:#0000FF;stroke-width:1.000px;fill-opacity:0.300;fill:#0000FF" d="M464.000000 790.000000 482.000000 790.000000 482.000000 772.000000 464.000000 772.000000 Z"/>
<path style="stroke-opacity:0.000;stroke:#0000FF;stroke-width:1.000px;fill-opacity:0.300;fill:#0000FF" d="M464.000000 790.000000 482.000000 790.000000 482.000000 772.000000 464.000000 772.000000 Z"/>
<path style="stroke-opacity:0.000;stroke:#0000FF;stroke-width:1.000px;fill-opacity:0.300;fill:#0000FF" d="M464.000000 790.000000 482.000000 790.000000 482.000000 772.000000 464.000000 772.000000 Z"/>
<path style="stroke-opacity:0.000;stroke:#0000FF;stroke-width:1.000px;fill-opacity:0.300;fill:#0000FF" d="M464.000000 790.000000 482.000000 790.000000 482.000000 772.000000 464.000000 772.000000 Z"/>
<path style="stroke-opacity:0.000;stroke:#0000FF;stroke-width:1.000px;fill-opacity:0.300;fill:#0000FF" d="M486.000000 812.000000 504.000000 812.000000 504.000000 794.000000 486.000000 794.000000 Z"/>
<path style="stroke-opacity:0.000;stroke:#0000FF;stroke-width:1.000px;fill-opacity:0.300;fill:#0000FF" d="M486.000000 812.000000 504.000000 812.000000 504.000000 794.000000 486.000000 794.000000 Z"/>
<path style="stroke-opacity:0.000;stroke:#0000FF;stroke-width:1.000px;fill-opacity:0.300;fill:#0000FF" d="M486.000000 812.000000 504.000000 812.000000 504.000000 794.000000 486.000000 794.000000 Z"/>
<path style="stroke-opacity:0.000;stroke:#0000FF;stroke-width:1.000px;fill-opacity:0.300;fill:#0000FF" d="M486.000000 812.000000 504.000000 812.000000 504.000000 794.000000 486.000000 794.000000 Z"/>
<path style="stroke-opacity:0.000;stroke:#0000FF;stroke-width:1.000px;fill-opacity:0.300;fill:#0000FF" d="M486.000000 834.000000 504.000000 834.000000 504.000000 816.000000 486.000000 816.000000 Z"/>
<path style="stroke-opacity:0.000;stroke:#0000FF;stroke-width:1.000px;fill-opacity:0.300;fill:#0000FF" d="M486.000000 834.000000 504.000000 834.000000 504.000000 816.000000 486.000000 816.000000 Z"/>
<path style="stroke-opacity:0.000;stroke:#0000FF;stroke-width:1.000px;fill-opacity:0.300;fill:#0000FF" d="M486.000000 834.000000 504.000000 834.000000 504.000000 816.000000 486.000000 816.000000 Z"/>
<path style="stroke-opacity:0.000;stroke:#0000FF;stroke-width:1.000px;fill-opacity:0.300;fill:#0000FF" d="M486.000000 834.000000 504.000000 834.000000 504.000000 816.000000 486.000000 816.000000 Z"/>
<path style="stroke-opacity:0.000;stroke:#0000FF;stroke-width:1.000px;fill-opacity:0.300;fill:#0000FF" d="M508.000000 856.000000 526.000000 856.000000 526.000000 838.000000 508.000000 838.000000 Z"/>
<path style="stroke-opacity:0.000;stroke:#0000FF;stroke-width:1.000px;fill-opacity:0.300;fill:#0000FF" d="M508.000000 856.000000 526.000000 856.000000 526.000000 838.000000 508.000000 838.000000 Z"/>
<path style="stroke-opacity:0.000;stroke:#0000FF;stroke-width:1.000px;fill-opacity:0.300;fill:#0000FF" d="M508.000000 856.000000 526.000000 856.000000 526.000000 838.000000 508.000000 838.000000 Z"/>
<path style="stroke-opacity:0.000;stroke:#FF0000;stroke-width:1.000px;fill-opacity:0.300;fill:#FF0000" d="M508.000000 856.000000 526.000000 856.000000 526.000000 838.000000 508.000000 838.000000 Z"/>
<path style="stroke-opacity:0.000;stroke:#0000FF;stroke-width:1.000px;fill-opacity:0.300;fill:#0000FF" d="M530.000000 878.000000 548.000000 878.000000 548.000000 860.000000 530.000000 860.000000 Z"/>
<path style="stroke-opacity:0.000;stroke:#0000FF;stroke-width:1.000px;fill-opacity:0.300;fill:#0000FF" d="M530.000000 878.000000 548.000000 878.000000 548.000000 860.000000 530.000000 860.000000 Z"/>
<path style="stroke-opacity:0.000;stroke:#0000FF;stroke-width:1.000px;fill-opacity:0.300;fill:#0000FF" d="M530.000000 878.000000 548.000000 878.000000 548.000000 860.000000 530.000000 860.000000 Z"/>
<path style="stroke-opacity:0.000;stroke:#0000FF;stroke-width:1.000px;fill-opacity:0.300;fill:#0000FF" d="M530.000000 878.000000 548.000000 878.000000 548.000000 860.000000 530.000000 860.000000 Z"/>
<path style="stroke-opacity:0.000;stroke:#0000FF;stroke-width:1.000px;fill-opacity:0.300;fill:#0000FF" d="M530.000000 900.000000 548.000000 900.000000 548.000000 882.000000 530.000000 882.000000 Z"/>
<path style="stroke-opacity:0.000;stroke:#0000FF;stroke-width:1.000px;fill-opacity:0.300;fill:#0000FF" d="M530.000000 900.000000 548.000000 900.000000 548.000000 882.000000 530.000000 882.000000 Z"/>
<path style="stroke-opacity:0.000;stroke:#0000FF;stroke-width:1.000px;fill-opacity:0.300;fill:#0000FF" d="M530.000000 900.000000 548.000000 900.000000 548.000000 882.000000 530.000000 882.000000 Z"/>
<path style="stroke-opacity:0.000;stroke:#0000FF;stroke-width:1.000px;fill-opacity:0.300;fill:#0000FF" d="M530.000000 900.000000 548.000000 900.000000 548.000000 882.000000 530.000000 882.000000 Z"/>
<path style="stroke-opacity:0.000;stroke:#0000FF;stroke-width:1.000px;fill-opacity:0.300;fill:#0000FF" d="M552.000000 922.000000 570.000000 922.000000 570.000000 904.000000 552.000000 904.000000 Z"/>
<path style="stroke-opacity:0.000;stroke:#0000FF;stroke-width:1.000px;fill-opacity:0.300;fill:#0000FF" d="M552.000000 922.000000 570.000000 922.000000 570.000000 904.000000 552.000000 904.000000 Z"/>
<path style="stroke-opacity:0.000;stroke:#0000FF;stroke-width:1.000px;fill-opacity:0.300;fill:#0000FF" d="M552.000000 922.000000 570.000000 922.000000 570.000000 904.000000 552.000000 904.000000 Z"/>
<path style="stroke-opacity:0.000;stroke:#0000FF;stroke-width:1.000px;fill-opacity:0.300;fill:#0000FF" d="M552.000000 922.000000 570.000000 922.000000 570.000000 904.000000 552.000000 904.000000 Z"/>
<path style="stroke-opacity:0.000;stroke:#0000FF;stroke-width:1.000px;fill-opacity:0.300;fill:#0000FF" d="M552.000000 944.000000 570.000000 944.000000 570.000000 926.000000 552.000000 926.000000 Z"/>
<path style="stroke-opacity:0.000;stroke:#0000FF;stroke-width:1.000px;fill-opacity:0.300;fill:#0000FF" d="M552.000000 944.000000 570.000000 944.000000 570.000000 926.000000 552.000000 926.000000 Z"/>
<path style="stroke-opacity:0.000;stroke:#0000FF;stroke-width:1.000px;fill-opacity:0.300;fill:#0000FF" d="M552.000000 944.000000 570.000000 944.000000 570.000000 926.000000 552.000000 926.000000 Z"/>
<path style="stroke-opacity:0.000;stroke:#0000FF;stroke-width:1.000px;fill-opacity:0.300;fill:#0000FF" d="M552.000000 944.000000 570.000000 944.000000 570.000000 926.000000 552.000000 926.000000 Z"/>
<path style="stroke-opacity:0.000;stroke:#0000FF;stroke-width:1.000px;fill-opacity:0.300;fill:#0000FF" d="M574.000000 966.000000 592.000000 966.000000 592.000000 948.000000 574.000000 948.000000 Z"/>
<path style="stroke-opacity:0.000;stroke:#0000FF;stroke-width:1.000px;fill-opacity:0.300;fill:#0000FF" d="M574.000000 966.000000 592.000000 966.000000 592.000000 948.000000 574.000000 948.000000 Z"/>
<path style="stroke-opacity:0.000;stroke:#0000FF;stroke-width:1.000px;fill-opacity:0.300;fill:#0000FF" d="M574.000000 966.000000 592.000000 966.000000 592.000000 948.000000 574.000000 948.000000 Z"/>
<path style="stroke-opacity:0.000;stroke:#FF0000;stroke-width:1.000px;fill-opacity:0.300;fill:#FF0000" d="M574.000000 966.000000 592.000000 966.000000 592.000000 948.000000 574.000000 948.000000 Z"/>
<path style="stroke-opacity:0.000;stroke:#0000FF;stroke-width:1.000px;fill-opacity:0.300;fill:#0000FF" d="M596.000000 988.000000 614.000000 988.000000 614.000000 970.000000 596.000000 970.000000 Z"/>
<path style="stroke-opacity:0.000;stroke:#0000FF;stroke-width:1.000px;fill-opacity:0.300;fill:#0000FF" d="M596.000000 988.000000 614.000000 988.000000 614.000000 970.000000 596.000000 970.000000 Z"/>
<path style="stroke-opacity:0.000;stroke:#FF0000;stroke-width:1.000px;fill-opacity:0.300;fill:#FF0000" d="M596.000000 988.000000 614.000000 988.000000 614.000000 970.000000 596.000000 970.000000 Z"/>
<path style="stroke-opacity:0.000;stroke:#0000FF;stroke-width:1.000px;fill-opacity:0.300;fill:#0000FF" d="M596.000000 988.000000 614.000000 988.000000 614.000000 970.000000 596.000000 970.000000 Z"/>
<path style="stroke-opacity:0.000;stroke:#0000FF;stroke-width:1.000px;fill-opacity:0.300;fill:#0000FF" d="M596.000000 1010.000000 614.000000 1010.000000 614.000000 992.000000 596.000000 992.000000 Z"/>
<path style="stroke-opacity:0.000;stroke:#0000FF;stroke-width:1.000px;fill-opacity:0.300;fill:#0000FF" d="M596.000000 1010.000000 614.000000 1010.000000 614.000000 992.000000 596.000000 992.000000 Z"/>
<path style="stroke-opacity:0.000;stroke:#FF0000;stroke-width:1.000px;fill-opacity:0.300;fill:#FF0000" d="M596.000000 1010.000000 614.000000 1010.000000 614.000000 992.000000 596.000000 992.000000 Z"/>
<path style="stroke-opacity:0.000;stroke:#0000FF;stroke-width:1.000px;fill-opacity:0.300;fill:#0000FF" d="M596.000000 1010.000000 614.000000 1010.000000 614.000000 992.000000 596.000000 992.000000 Z"/>
<path style="stroke-opacity:0.000;stroke:#0000FF;stroke-width:1.000px;fill-opacity:0.300;fill:#0000FF" d="M618.000000 1032.000000 636.000000 1032.000000 636.000000 1014.000000 618.000000 1014.000000 Z"/>
<path style="stroke-opacity:0.000;stroke:#0000FF;stroke-width:1.000px;fill-opacity:0.300;fill:#0000FF" d="M618.000000 1032.000000 636.000000 1032.000000 636.000000 1014.000000 618.000000 1014.000000 Z"/>
<path style="stroke-opacity:0.000;stroke:#FF0000;stroke-width:1.000px;fill-opacity:0.300;fill:#FF0000" d="M618.000000 1032.000000 636.000000 1032.000000 636.000000 1014.000000 618.000000 1014.000000 Z"/>
<path style="stroke-opacity:0.000;stroke:#FF0000;stroke-width:1.000px;fill-opacity:0.300;fill:#FF0000" d="M618.000000 1032.000000 636.000000 1032.000000 636.000000 1014.000000 618.000000 1014.000000 Z"/>
<path style="stroke-opacity:0.000;stroke:#0000FF;stroke-width:1.000px;fill-opacity:0.300;fill:#0000FF" d="M640.000000 1054.000000 658.000000 1054.000000 658.000000 1036.000000 640.000000 1036.000000 Z"/>
<path style="stroke-opacity:0.000;stroke:#0000FF;stroke-width:1.000px;fill-opacity:0.300;fill:#0000FF" d="M640.000000 1054.000000 658.000000 1054.000000 658.000000 1036.000000 640.000000 1036.000000 Z"/>
<path style="stroke-opacity:0.000;stroke:#0000FF;stroke-width:1.000px;fill-opacity:0.300;fill:#0000FF" d="M640.000000 1054.000000 658.000000 1054.000000 658.000000 1036.000000 640.000000 1036.000000 Z"/>
<path style="stroke-opacity:0.000;stroke:#0000FF;stroke-width:1.000px;fill-opacity:0.300;fill:#0000FF" d="M640.000000 1054.000000 658.000000 1054.000000 658.000000 1036.000000 640.000000 1036.000000 Z"/>
<path style="stroke-opacity:0.000;stroke:#0000FF;stroke-width:1.000px;fill-opacity:0.300;fill:#0000FF" d="M640.000000 1076.000000 658.000000 1076.000000 658.000000 1058.000000 640.000000 1058.000000 Z"/>
<path style="stroke-opacity:0.000;stroke:#0000FF;stroke-width:1.000px;fill-opacity:0.300;fill:#0000FF" d="M640.000000 1076.000000 658.000000 1076.000000 658.000000 1058.000000 640.000000 1058.000000 Z"/>
<path style="stroke-opacity:0.000;stroke:#0000FF;stroke-width:1.000px;fill-opacity:0.300;fill:#0000FF" d="M640.000000 1076.000000 658.000000 1076.000000 658.000000 1058.000000 640.000000 1058.000000 Z"/>
<path style="stroke-opacity:0.000;stroke:#0000FF;stroke-width:1.000px;fill-opacity:0.300;fill:#0000FF" d="M640.000000 1076.000000 658.000000 1076.000000 658.000000 1058.000000 640.000000 1058.000000 Z"/>
<path style="stroke-opacity:0.000;stroke:#0000FF;stroke-width:1.000px;fill-opacity:0.300;fill:#0000FF" d="M662.000000 1098.000000 680.000000 1098.000000 680.000000 1080.000000 662.000000 1080.000000 Z"/>
<path style="stroke-opacity:0.000;stroke:#0000FF;stroke-width:1.000px;fill-opacity:0.300;fill:#0000FF" d="M662.000000 1098.000000 680.000000 1098.000000 680.000000 1080.000000 662.000000 1080.000000 Z"/>
<path style="stroke-opacity:0.000;stroke:#0000FF;stroke-width:1.000px;fill-opacity:0.300;fill:#0000FF" d="M662.000000 1098.000000 680.000000 1098.000000 680.000000 1080.000000 662.000000 1080.000000 Z"/>
<path style="stroke-opacity:0.000;stroke:#0000FF;stroke-width:1.000px;fill-opacity:0.300;fill:#0000FF" d="M662.000000 1098.000000 680.000000 1098.000000 680.000000 1080.000000 662.000000 1080.000000 Z"/>
<path style="stroke-opacity:0.000;stroke:#0000FF;stroke-width:1.000px;fill-opacity:0.300;fill:#0000FF" d="M662.000000 1120.000000 680.000000 1120.000000 680.000000 1102.000000 662.000000 1102.000000 Z"/>
<path style="stroke-opacity:0.000;stroke:#0000FF;stroke-width:1.000px;fill-opacity:0.300;fill:#0000FF" d="M662.000000 1120.000000 680.000000 1120.000000 680.000000 1102.000000 662.000000 1102.000000 Z"/>
<path style="stroke-opacity:0.000;stroke:#0000FF;stroke-width:1.000px;fill-opacity:0.300;fill:#0000FF" d="M662.000000 1120.000000 680.000000 1120.000000 680.000000 1102.000000 662.000000 1102.000000 Z"/>
<path style="stroke-opacity:0.000;stroke:#0000FF;stroke-width:1.000px;fill-opacity:0.300;fill:#0000FF" d="M662.000000 1120.000000 680.000000 1120.000000 680.000000 1102.000000 662.000000 1102.000000 Z"/>
<path style="stroke-opacity:0.000;stroke:#0000FF;stroke-width:1.000px;fill-opacity:0.300;fill:#0000FF" d="M684.000000 1142.000000 702.000000 1142.000000 702.000000 1124.000000 684.000000 1124.000000 Z"/>
<path style="stroke-opacity:0.000;stroke:#0000FF;stroke-width:1.000px;fill-opacity:0.300;fill:#0000FF" d="M684.000000 1142.000000 702.000000 1142.000000 702.000000 1124.000000 684.000000 1124.000000 Z"/>
<path style="stroke-opacity:0.000;stroke:#0000FF;stroke-width:1.000px;fill-opacity:0.300;fill:#0000FF" d="M684.000000 1142.000000 702.000000 1142.000000 702.000000 1124.000000 684.000000 1124.000000 Z"/>
<path style="stroke-opacity:0.000;stroke:#FF0000;stroke-width:1.000px;fill-opacity:0.300;fill:#FF0000" d="M684.000000 1142.000000 702.000000 1142.000000 702.000000 1124.000000 684.000000 1124.000000 Z"/>
<path style="stroke-opacity:0.000;stroke:#0000FF;stroke-width:1.000px;fill-opacity:0.300;fill:#0000FF" d="M706.000000 1164.000000 724.000000 1164.000000 724.000000 1146.000000 706.000000 1146.000000 Z"/>
<path style="stroke-opacity:0.000;stroke:#0000FF;stroke-width:1.000px;fill-opacity:0.300;fill:#0000FF" d="M706.000000 1164.000000 724.000000 1164.000000 724.000000 1146.000000 706.000000 1146.000000 Z"/>
<path style="stroke-opacity:0.000;stroke:#0000FF;stroke-width:1.000px;fill-opacity:0.300;fill:#0000FF" d="M706.000000 1164.000000 724.000000 1164.000000 724.000000 1146.000000 706.000000 1146.000000 Z"/>
<path style="stroke-opacity:0.000;stroke:#0000FF;stroke-width:1.000px;fill-opacity:0.300;fill:#0000FF" d="M706.000000 1164.000000 724.000000 1164.000000 724.000000 1146.000000 706.000000 1146.000000 Z"/>
<path style="stroke-opacity:0.000;stroke:#0000FF;stroke-width:1.000px;fill-opacity:0.300;fill:#0000FF" d="M706.000000 1186.000000 724.000000 1186.000000 724.000000 1168.000000 706.000000 1168.000000 Z"/>
<path style="stroke-opacity:0.000;stroke:#0000FF;stroke-width:1.000px;fill-opacity:0.300;fill:#0000FF" d="M706.000000 1186.000000 724.000000 1186.000000 724.000000 1168.000000 706.000000 1168.000000 Z"/>
<path style="stroke-opacity:0.000;stroke:#0000FF;stroke-width:1.000px;fill-opacity:0.300;fill:#0000FF" d="M706.000000 1186.000000 724.000000 1186.000000 724.000000 1168.000000 706.000000 1168.000000 Z"/>
<path style="stroke-opacity:0.000;stroke:#0000FF;stroke-width:1.000px;fill-opacity:0.300;fill:#0000FF" d="M706.000000 1186.000000 724.000000 1186.000000 724.000000 1168.000000 706.000000 1168.000000 Z"/>
<path style="stroke-opacity:0.000;stroke:#0000FF;stroke-width:1.000px;fill-opacity:0.300;fill:#0000FF" d="M728.000000 1208.000000 746.000000 1208.000000 746.000000 1190.000000 728.000000 1190.000000 Z"/>
<path style="stroke-opacity:0.000;stroke:#0000FF;stroke-width:1.000px;fill-opacity:0.300;fill:#0000FF" d="M728.000000 1208.000000 746.000000 1208.000000 746.000000 1190.000000 728.000000 1190.000000 Z"/>
<path style="stroke-opacity:0.000;stroke:#0000FF;stroke-width:1.000px;fill-opacity:0.300;fill:#0000FF" d="M728.000000 1208.000000 746.000000 1208.000000 746.000000 1190.000000 728.000000 1190.000000 Z"/>
<path style="stroke-opacity:0.000;stroke:#0000FF;stroke-width:1.000px;fill-opacity:0.300;fill:#0000FF" d="M728.000000 1208.000000 746.000000 1208.000000 746.000000 1190.000000 728.000000 1190.000000 Z"/>
<path style="stroke-opacity:0.000;stroke:#0000FF;stroke-width:1.000px;fill-opacity:0.300;fill:#0000FF" d="M728.000000 1230.000000 746.000000 1230.000000 746.000000 1212.000000 728.000000 1212.000000 Z"/>
<path style="stroke-opacity:0.000;stroke:#0000FF;stroke-width:1.000px;fill-opacity:0.300;fill:#0000FF" d="M728.000000 1230.000000 746.000000 1230.000000 746.000000 1212.000000 728.000000 1212.000000 Z"/>
<path style="stroke-opacity:0.000;stroke:#0000FF;stroke-width:1.000px;fill-opacity:0.300;fill:#0000FF" d="M728.000000 1230.000000 746.000000 1230.000000 746.000000 1212.000000 728.000000 1212.000000 Z"/>
<path style="stroke-opacity:0.000;stroke:#0000FF;stroke-width:1.000px;fill-opacity:0.300;fill:#0000FF" d="M728.000000 1230.000000 746.000000 1230.000000 746.000000 1212.000000 728.000000 1212.000000 Z"/>
<path style="stroke-opacity:0.000;stroke:#0000FF;stroke-width:1.000px;fill-opacity:0.300;fill:#0000FF" d="M750.000000 1252.000000 768.000000 1252.000000 768.000000 1234.000000 750.000000 1234.000000 Z"/>
<path style="stroke-opacity:0.000;stroke:#0000FF;stroke-width:1.000px;fill-opacity:0.300;fill:#0000FF" d="M750.000000 1252.000000 768.000000 1252.000000 768.000000 1234.000000 750.000000 1234.000000 Z"/>
<path style="stroke-opacity:0.000;stroke:#0000FF;stroke-width:1.000px;fill-opacity:0.300;fill:#0000FF" d="M750.000000 1252.000000 768.000000 1252.000000 768.000000 1234.000000 750.000000 1234.000000 Z"/>
<path style="stroke-opacity:0.000;stroke:#FF0000;stroke-width:1.000px;fill-opacity:0.300;fill:#FF0000" d="M750.000000 1252.000000 768.000000 1252.000000 768.000000 1234.000000 750.000000 1234.000000 Z"/>
<path style="stroke-opacity:0.000;stroke:#0000FF;stroke-width:1.000px;fill-opacity:0.300;fill:#0000FF" d="M772.000000 1274.000000 790.000000 1274.000000 790.000000 1256.000000 772.000000 1256.000000 Z"/>
<path style="stroke-opacity:0.000;stroke:#0000FF;stroke-width:1.000px;fill-opacity:0.300;fill:#0000FF" d="M772.000000 1274.000000 790.000000 1274.000000 790.000000 1256.000000 772.000000 1256.000000 Z"/>
<path style="stroke-opacity:0.000;stroke:#FF0000;stroke-width:1.000px;fill-opacity:0.300;fill:#FF0000" d="M772.000000 1274.000000 790.000000 1274.000000 790.000000 1256.000000 772.000000 1256.000000 Z"/>
<path style="stroke-opacity:0.000;stroke:#0000FF;stroke-width:1.000px;fill-opacity:0.300;fill:#0000FF" d="M772.000000 1274.000000 790.000000 1274.000000 790.000000 1256.000000 772.000000 1256.000000 Z"/>
<path style="stroke-opacity:0.000;stroke:#0000FF;stroke-width:1.000px;fill-opacity:0.300;fill:#0000FF" d="M772.000000 1296.000000 790.000000 1296.000000 790.000000 1278.000000 772.000000 1278.000000 Z"/>
<path style="stroke-opacity:0.000;stroke:#0000FF;stroke-width:1.000px;fill-opacity:0.300;fill:#0000FF" d="M772.000000 1296.000000 790.000000 1296.000000 790.000000 1278.000000 772.000000 1278.000000 Z"/>
<path style="stroke-opacity:0.000;stroke:#FF0000;stroke-width:1.000px;fill-opacity:0.300;fill:#FF0000" d="M772.000000 1296.000000 790.000000 1296.000000 790.000000 1278.000000 772.000000 1278.000000 Z"/>
<path style="stroke-opacity:0.000;stroke:#0000FF;stroke-width:1.000px;fill-opacity:0.300;fill:#0000FF" d="M772.000000 1296.000000 790.000000 1296.000000 790.000000 1278.000000 772.000000 1278.000000 Z"/>
<path style="stroke-opacity:0.000;stroke:#0000FF;stroke-width:1.000px;fill-opacity:0.300;fill:#0000FF" d="M794.000000 1318.000000 812.000000 1318.000000 812.000000 1300.000000 794.000000 1300.000000 Z"/>
<path style="stroke-opacity:0.000;stroke:#0000FF;stroke-width:1.000px;fill-opacity:0.300;fill:#0000FF" d="M794.000000 1318.000000 812.000000 1318.000000 812.000000 1300.000000 794.000000 1300.000000 Z"/>
<path style="stroke-opacity:0.000;stroke:#FF0000;stroke-width:1.000px;fill-opacity:0.300;fill:#FF0000" d="M794.000000 1318.000000 812.000000 1318.000000 812.000000 1300.000000 794.000000 1300.000000 Z"/>
<path style="stroke-opacity:0.000;stroke:#FF0000;stroke-width:1.000px;fill-opacity:0.300;fill:#FF0000" d="M794.000000 1318.000000 812.000000 1318.000000 812.000000 1300.000000 794.000000 1300.000000 Z"/>
<path style="stroke-opacity:0.000;stroke:#0000FF;stroke-width:1.000px;fill-opacity:0.300;fill:#0000FF" d="M816.000000 1340.000000 834.000000 1340.000000 834.000000 1322.000000 816.000000 1322.000000 Z"/>
<path style="stroke-opacity:0.000;stroke:#FF0000;stroke-width:1.000px;fill-opacity:0.300;fill:#FF0000" d="M816.000000 1340.000000 834.000000 1340.000000 834.000000 1322.000000 816.000000 1322.000000 Z"/>
<path style="stroke-opacity:0.000;stroke:#0000FF;stroke-width:1.000px;fill-opacity:0.300;fill:#0000FF" d="M816.000000 1340.000000 834.000000 1340.000000 834.000000 1322.000000 816.000000 1322.000000 Z"/>
<path style="stroke-opacity:0.000;stroke:#0000FF;stroke-width:1.000px;fill-opacity:0.300;fill:#0000FF" d="M816.000000 1362.000000 834.000000 1362.000000 834.000000 1344.000000 816.000000 1344.000000 Z"/>
<path style="stroke-opacity:0.000;stroke:#FF0000;stroke-width:1.000px;fill-opacity:0.300;fill:#FF0000" d="M816.000000 1362.000000 834.000000 1362.000000 834.000000 1344.000000 816.000000 1344.000000 Z"/>
<path style="stroke-opacity:0.000;stroke:#0000FF;stroke-width:1.000px;fill-opacity:0.300;fill:#0000FF" d="M816.000000 1362.000000 834.000000 1362.000000 834.000000 1344.000000 816.000000 1344.000000 Z"/>
<path style="stroke-opacity:0.000;stroke:#0000FF;stroke-width:1.000px;fill-opacity:0.300;fill:#0000FF" d="M838.000000 1384.000000 856.000000 1384.000000 856.000000 1366.000000 838.000000 1366.000000 Z"/>
<path style="stroke-opacity:0.000;stroke:#FF0000;stroke-width:1.000px;fill-opacity:0.300;fill:#FF0000" d="M838.000000 1384.000000 856.000000 1384.000000 856.000000 1366.000000 838.000000 1366.000000 Z"/>
<path style="stroke-opacity:0.000;stroke:#0000FF;stroke-width:1.000px;fill-opacity:0.300;fill:#0000FF" d="M838.000000 1384.000000 856.000000 1384.000000 856.000000 1366.000000 838.000000 1366.000000 Z"/>
<path style="stroke-opacity:0.000;stroke:#0000FF;stroke-width:1.000px;fill-opacity:0.300;fill:#0000FF" d="M838.000000 1406.000000 856.000000 1406.000000 856.000000 1388.000000 838.000000 1388.000000 Z"/>
<path style="stroke-opacity:0.000;stroke:#FF0000;stroke-width:1.000px;fill-opacity:0.300;fill:#FF0000" d="M838.000000 1406.000000 856.000000 1406.000000 856.000000 1388.000000 838.000000 1388.000000 Z"/>
<path style="stroke-opacity:0.000;stroke:#0000FF;stroke-width:1.000px;fill-opacity:0.300;fill:#0000FF" d="M838.000000 1406.000000 856.000000 1406.000000 856.000000 1388.000000 838.000000 1388.000000 Z"/>
<path style="stroke-opacity:0.000;stroke:#0000FF;stroke-width:1.000px;fill-opacity:0.300;fill:#0000FF" d="M860.000000 1428.000000 878.000000 1428.000000 878.000000 1410.000000 860.000000 1410.000000 Z"/>
<path style="stroke-opacity:0.000;stroke:#FF0000;stroke-width:1.000px;fill-opacity:0.300;fill:#FF0000" d="M860.000000 1428.000000 878.000000 1428.000000 878.000000 1410.000000 860.000000 1410.000000 Z"/>
<path style="stroke-opacity:0.000;stroke:#0000FF;stroke-width:1.000px;fill-opacity:0.300;fill:#0000FF" d="M860.000000 1428.000000 878.000000 1428.000000 878.000000 1410.000000 860.000000 1410.000000 Z"/>
<path style="stroke-opacity:0.000;stroke:#0000FF;stroke-width:1.000px;fill-opacity:0.300;fill:#0000FF" d="M882.000000 1450.000000 900.000000 1450.000000 900.000000 1432.000000 882.000000 1432.000000 Z"/>
<path style="stroke-opacity:0.000;stroke:#FF0000;stroke-width:1.000px;fill-opacity:0.300;fill:#FF0000" d="M882.000000 1450.000000 900.000000 1450.000000 900.000000 1432.000000 882.000000 1432.000000 Z"/>
<path style="stroke-opacity:0.000;stroke:#FF0000;stroke-width:1.000px;fill-opacity:0.300;fill:#FF0000" d="M882.000000 1450.000000 900.000000 1450.000000 900.000000 1432.000000 882.000000 1432.000000 Z"/>
<path style="stroke-opacity:0.000;stroke:#0000FF;stroke-width:1.000px;fill-opacity:0.300;fill:#0000FF" d="M882.000000 1472.000000 900.000000 1472.000000 900.000000 1454.000000 882.000000 1454.000000 Z"/>
<path style="stroke-opacity:0.000;stroke:#FF0000;stroke-width:1.000px;fill-opacity:0.300;fill:#FF0000" d="M882.000000 1472.000000 900.000000 1472.000000 900.000000 1454.000000 882.000000 1454.000000 Z"/>
<path style="stroke-opacity:0.000;stroke:#FF0000;stroke-width:1.000px;fill-opacity:0.300;fill:#FF0000" d="M882.000000 1472.000000 900.000000 1472.000000 900.000000 1454.000000 882.000000 1454.000000 Z"/>
<path style="stroke-opacity:0.000;stroke:#0000FF;stroke-width:1.000px;fill-opacity:0.300;fill:#0000FF" d="M904.000000 1494.000000 922.000000 1494.000000 922.000000 1476.000000 904.000000 1476.000000 Z"/>
<path style="stroke-opacity:0.000;stroke:#FF0000;stroke-width:1.000px;fill-opacity:0.300;fill:#FF0000" d="M904.000000 1494.000000 922.000000 1494.000000 922.000000 1476.000000 904.000000 1476.000000 Z"/>
<path style="stroke-opacity:0.000;stroke:#FF0000;stroke-width:1.000px;fill-opacity:0.300;fill:#FF0000" d="M904.000000 1494.000000 922.000000 1494.000000 922.000000 1476.000000 904.000000 1476.000000 Z"/>
<path style="stroke-opacity:0.000;stroke:#FF0000;stroke-width:1.000px;fill-opacity:0.300;fill:#FF0000" d="M926.000000 1516.000000 944.000000 1516.000000 944.000000 1498.000000 926.000000 1498.000000 Z"/>
<path style="stroke-opacity:0.000;stroke:#0000FF;stroke-width:1.000px;fill-opacity:0.300;fill:#0000FF" d="M926.000000 1516.000000 944.000000 1516.000000 944.000000 1498.000000 926.000000 1498.000000 Z"/>
<path style="stroke-opacity:0.000;stroke:#FF0000;stroke-width:1.000px;fill-opacity:0.300;fill:#FF0000" d="M926.000000 1538.000000 944.000000 1538.000000 944.000000 1520.000000 926.000000 1520.000000 Z"/>
<path style="stroke-opacity:0.000;stroke:#0000FF;stroke-width:1.000px;fill-opacity:0.300;fill:#0000FF" d="M926.000000 1538.000000 944.000000 1538.000000 944.000000 1520.000000 926.000000 1520.000000 Z"/>
<path style="stroke-opacity:0.000;stroke:#FF0000;stroke-width:1.000px;fill-opacity:0.300;fill:#FF0000" d="M948.000000 1560.000000 966.000000 1560.000000 966.000000 1542.000000 948.000000 1542.000000 Z"/>
<path style="stroke-opacity:0.000;stroke:#0000FF;stroke-width:1.000px;fill-opacity:0.300;fill:#0000FF" d="M948.000000 1560.000000 966.000000 1560.000000 966.000000 1542.000000 948.000000 1542.000000 Z"/>
<path style="stroke-opacity:0.000;stroke:#FF0000;stroke-width:1.000px;fill-opacity:0.300;fill:#FF0000" d="M948.000000 1582.000000 966.000000 1582.000000 966.000000 1564.000000 948.000000 1564.000000 Z"/>
<path style="stroke-opacity:0.000;stroke:#0000FF;stroke-width:1.000px;fill-opacity:0.300;fill:#0000FF" d="M948.000000 1582.000000 966.000000 1582.000000 966.000000 1564.000000 948.000000 1564.000000 Z"/>
<path style="stroke-opacity:0.000;stroke:#FF0000;stroke-width:1.000px;fill-opacity:0.300;fill:#FF0000" d="M970.000000 1604.000000 988.000000 1604.000000 988.000000 1586.000000 970.000000 1586.000000 Z"/>
<path style="stroke-opacity:0.000;stroke:#0000FF;stroke-width:1.000px;fill-opacity:0.300;fill:#0000FF" d="M970.000000 1604.000000 988.000000 1604.000000 988.000000 1586.000000 970.000000 1586.000000 Z"/>
<path style="stroke-opacity:0.000;stroke:#FF0000;stroke-width:1.000px;fill-opacity:0.300;fill:#FF0000" d="M992.000000 1626.000000 1010.000000 1626.000000 1010.000000 1608.000000 992.000000 1608.000000 Z"/>
<path style="stroke-opacity:0.000;stroke:#0000FF;stroke-width:1.000px;fill-opacity:0.300;fill:#0000FF" d="M992.000000 1626.000000 1010.000000 1626.000000 1010.000000 1608.000000 992.000000 1608.000000 Z"/>
<path style="stroke-opacity:0.000;stroke:#FF0000;stroke-width:1.000px;fill-opacity:0.300;fill:#FF0000" d="M992.000000 1648.000000 1010.000000 1648.000000 1010.000000 1630.000000 992.000000 1630.000000 Z"/>
<path style="stroke-opacity:0.000;stroke:#0000FF;stroke-width:1.000px;fill-opacity:0.300;fill:#0000FF" d="M992.000000 1648.000000 1010.000000 1648.000000 1010.000000 1630.000000 992.000000 1630.000000 Z"/>
<path style="stroke-opacity:0.000;stroke:#FF0000;stroke-width:1.000px;fill-opacity:0.300;fill:#FF0000" d="M1014.000000 1670.000000 1032.000000 1670.000000 1032.000000 1652.000000 1014.000000 1652.000000 Z"/>
<path style="stroke-opacity:0.000;stroke:#0000FF;stroke-width:1.000px;fill-opacity:0.300;fill:#0000FF" d="M1014.000000 1670.000000 1032.000000 1670.000000 1032.000000 1652.000000 1014.000000 1652.000000 Z"/>
<path style="stroke-opacity:0.000;stroke:#FF0000;stroke-width:1.000px;fill-opacity:0.300;fill:#FF0000" d="M1014.000000 1692.000000 1032.000000 1692.000000 1032.000000 1674.000000 1014.000000 1674.000000 Z"/>
<path style="stroke-opacity:0.000;stroke:#0000FF;stroke-width:1.000px;fill-opacity:0.300;fill:#0000FF" d="M1014.000000 1692.000000 1032.000000 1692.000000 1032.000000 1674.000000 1014.000000 1674.000000 Z"/>
<path style="stroke-opacity:0.000;stroke:#FF0000;stroke-width:1.000px;fill-opacity:0.300;fill:#FF0000" d="M1036.000000 1714.000000 1054.000000 1714.000000 1054.000000 1696.000000 1036.000000 1696.000000 Z"/>
<path style="stroke-opacity:0.000;stroke:#0000FF;stroke-width:1.000px;fill-opacity:0.300;fill:#0000FF" d="M1036.000000 1714.000000 1054.000000 1714.000000 1054.000000 1696.000000 1036.000000 1696.000000 Z"/>
<path style="stroke-opacity:0.000;stroke:#FF0000;stroke-width:1.000px;fill-opacity:0.300;fill:#FF0000" d="M1058.000000 1736.000000 1076.000000 1736.000000 1076.000000 1718.000000 1058.000000 1718.000000 Z"/>
<path style="stroke-opacity:0.000;stroke:#0000FF;stroke-width:1.000px;fill-opacity:0.300;fill:#0000FF" d="M1058.000000 1736.000000 1076.000000 1736.000000 1076.000000 1718.000000 1058.000000 1718.000000 Z"/>
<path style="stroke-opacity:0.000;stroke:#FF0000;stroke-width:1.000px;fill-opacity:0.300;fill:#FF0000" d="M1058.000000 1758.000000 1076.000000 1758.000000 1076.000000 1740.000000 1058.000000 1740.000000 Z"/>
<path style="stroke-opacity:0.000;stroke:#0000FF;stroke-width:1.000px;fill-opacity:0.300;fill:#0000FF" d="M1058.000000 1758.000000 1076.000000 1758.000000 1076.000000 1740.000000 1058.000000 1740.000000 Z"/>
<path style="stroke-opacity:0.000;stroke:#FF0000;stroke-width:1.000px;fill-opacity:0.300;fill:#FF0000" d="M1080.000000 1780.000000 1098.000000 1780.000000 1098.000000 1762.000000 1080.000000 1762.000000 Z"/>
<path style="stroke-opacity:0.000;stroke:#0000FF;stroke-width:1.000px;fill-opacity:0.300;fill:#0000FF" d="M1080.000000 1780.000000 1098.000000 1780.000000 1098.000000 1762.000000 1080.000000 1762.000000 Z"/>
<path style="stroke-opacity:0.000;stroke:#FF0000;stroke-width:1.000px;fill-opacity:0.300;fill:#FF0000" d="M1102.000000 1802.000000 1120.000000 1802.000000 1120.000000 1784.000000 1102.000000 1784.000000 Z"/>
<path style="stroke-opacity:0.000;stroke:#FF0000;stroke-width:1.000px;fill-opacity:0.300;fill:#FF0000" d="M1102.000000 1802.000000 1120.000000 1802.000000 1120.000000 1784.000000 1102.000000 1784.000000 Z"/>
<path style="stroke-opacity:0.000;stroke:#FF0000;stroke-width:1.000px;fill-opacity:0.300;fill:#FF0000" d="M1102.000000 1824.000000 1120.000000 1824.000000 1120.000000 1806.000000 1102.000000 1806.000000 Z"/>
<path style="stroke-opacity:0.000;stroke:#FF0000;stroke-width:1.000px;fill-opacity:0.300;fill:#FF0000" d="M1102.000000 1824.000000 1120.000000 1824.000000 1120.000000 1806.000000 1102.000000 1806.000000 Z"/>
<path style="stroke-opacity:0.000;stroke:#FF0000;stroke-width:1.000px;fill-opacity:0.300;fill:#FF0000" d="M1124.000000 1846.000000 1142.000000 1846.000000 1142.000000 1828.000000 1124.000000 1828.000000 Z"/>
<path style="stroke-opacity:0.000;stroke:#FF0000;stroke-width:1.000px;fill-opacity:0.300;fill:#FF0000" d="M1124.000000 1846.000000 1142.000000 1846.000000 1142.000000 1828.000000 1124.000000 1828.000000 Z"/>
<path style="stroke-opacity:0.000;stroke:#FF0000;stroke-width:1.000px;fill-opacity:0.300;fill:#FF0000" d="M1124.000000 1868.000000 1142.000000 1868.000000 1142.000000 1850.000000 1124.000000 1850.000000 Z"/>
<path style="stroke-opacity:0.000;stroke:#FF0000;stroke-width:1.000px;fill-opacity:0.300;fill:#FF0000" d="M1124.000000 1868.000000 1142.000000 1868.000000 1142.000000 1850.000000 1124.000000 1850.000000 Z"/>
<path style="stroke-opacity:0.000;stroke:#FF0000;stroke-width:1.000px;fill-opacity:0.300;fill:#FF0000" d="M1146.000000 1890.000000 1164.000000 1890.000000 1164.000000 1872.000000 1146.000000 1872.000000 Z"/>
<path style="stroke-opacity:0.000;stroke:#FF0000;stroke-width:1.000px;fill-opacity:0.300;fill:#FF0000" d="M1146.000000 1890.000000 1164.000000 1890.000000 1164.000000 1872.000000 1146.000000 1872.000000 Z"/>
<path style="stroke-opacity:0.000;stroke:#FF0000;stroke-width:1.000px;fill-opacity:0.300;fill:#FF0000" d="M1168.000000 1912.000000 1186.000000 1912.000000 1186.000000 1894.000000 1168.000000 1894.000000 Z"/>
<path style="stroke-opacity:0.000;stroke:#FF0000;stroke-width:1.000px;fill-opacity:0.300;fill:#FF0000" d="M1168.000000 1912.000000 1186.000000 1912.000000 1186.000000 1894.000000 1168.000000 1894.000000 Z"/>
<path style="stroke-opacity:0.000;stroke:#FF0000;stroke-width:1.000px;fill-opacity:0.300;fill:#FF0000" d="M1168.000000 1934.000000 1186.000000 1934.000000 1186.000000 1916.000000 1168.000000 1916.000000 Z"/>
<path style="stroke-opacity:0.000;stroke:#FF0000;stroke-width:1.000px;fill-opacity:0.300;fill:#FF0000" d="M1168.000000 1934.000000 1186.000000 1934.000000 1186.000000 1916.000000 1168.000000 1916.000000 Z"/>
<path style="stroke-opacity:0.000;stroke:#FF0000;stroke-width:1.000px;fill-opacity:0.300;fill:#FF0000" d="M1190.000000 1956.000000 1208.000000 1956.000000 1208.000000 1938.000000 1190.000000 1938.000000 Z"/>
<path style="stroke-opacity:0.000;stroke:#FF0000;stroke-width:1.000px;fill-opacity:0.300;fill:#FF0000" d="M1190.000000 1956.000000 1208.000000 1956.000000 1208.000000 1938.000000 1190.000000 1938.000000 Z"/>
</g>
</svg>
