<svg width="1518" height="1978" viewBox="0 0 1518 1978" xmlns="http://www.w3.org/2000/svg" xmlns:xlink="http://www.w3.org/1999/xlink">
<g transform="rotate(0.000000) translate(0.000000 1978.000000) scale(1.000000 -1.000000)">
<path style="stroke-opacity:1.000;stroke:#FFFFFF;stroke-width:1.000px;fill-opacity:1.000;fill:#FFFFFF" d="M0.000000 0.000000 1518.000000 0.000000 1518.000000 1978.000000 0.000000 1978.000000 Z"/>
<path style="opacity:1.000;stroke:#555555;stroke-width:0.500px;fill:none" d="M23.000000 1978.000000L23.000000 0.000000M46.000000 1978.000000L46.000000 0.000000M69.000000 1978.000000L69.000000 0.000000M92.000000 1978.000000L92.000000 0.000000M115.000000 1978.000000L115.000000 0.000000M138.000000 1978.000000L138.000000 0.000000M161.000000 1978.000000L161.000000 0.000000M184.000000 1978.000000L184.000000 0.000000M207.000000 1978.000000L207.000000 0.000000M230.000000 1978.000000L230.000000 0.000000M253.000000 1978.000000L253.000000 0.000000M276.000000 1978.000000L276.000000 0.000000M299.000000 1978.000000L299.000000 0.000000M322.000000 1978.000000L322.000000 0.000000M345.000000 1978.000000L345.000000 0.000000M368.000000 1978.000000L368.000000 0.000000M391.000000 1978.000000L391.000000 0.000000M414.000000 1978.000000L414.000000 0.000000M437.000000 1978.000000L437.000000 0.000000M460.000000 1978.000000L460.000000 0.000000M483.000000 1978.000000L483.000000 0.000000M506.000000 1978.000000L506.000000 0.000000M529.000000 1978.000000L529.000000 0.000000M552.000000 1978.000000L552.000000 0.000000M575.000000 1978.000000L575.000000 0.000000M598.000000 1978.000000L598.000000 0.000000M621.000000 1978.000000L621.000000 0.000000M644.000000 1978.000000L644.000000 0.000000M667.000000 1978.000000L667.000000 0.000000M690.000000 1978.000000L690.000000 0.000000M713.000000 1978.000000L713.000000 0.000000M736.000000 1978.000000L736.000000 0.000000M759.000000 1978.000000L759.000000 0.000000M782.000000 1978.000000L782.000000 0.000000M805.000000 1978.000000L805.000000 0.000000M828.000000 1978.000000L828.000000 0.000000M851.000000 1978.000000L851.000000 0.000000M874.000000 1978.000000L874.000000 0.000000M897.000000 1978.000000L897.000000 0.000000M920.000000 1978.000000L920.000000 0.000000M943.000000 1978.000000L943.000000 0.000000M966.000000 1978.000000L966.000000 0.000000M989.000000 1978.000000L989.000000 0.000000M1012.000000 1978.000000L1012.000000 0.000000M1035.000000 1978.000000L1035.000000 0.000000M1058.000000 1978.000000L1058.000000 0.000000M1081.000000 1978.000000L1081.000000 0.000000M1104.000000 1978.000000L1104.000000 0.000000M1127.000000 1978.000000L1127.000000 0.000000M1150.000000 1978.000000L1150.000000 0.000000M1173.000000 1978.000000L1173.000000 0.000000M1196.000000 1978.000000L1196.000000 0.000000M1219.000000 1978.000000L1219.000000 0.000000M1242.000000 1978.000000L1242.000000 0.000000M1265.000000 1978.000000L1265.000000 0.000000M1288.000000 1978.000000L1288.000000 0.000000M1311.000000 1978.000000L1311.000000 0.000000M1334.000000 1978.000000L1334.000000 0.000000M1357.000000 1978.000000L1357.000000 0.000000M1380.000000 1978.000000L1380.000000 0.000000M1403.000000 1978.000000L1403.000000 0.000000M1426.000000 1978.000000L1426.000000 0.000000M1449.000000 1978.000000L1449.000000 0.000000M1472.000000 1978.000000L1472.000000 0.000000M1495.000000 1978.000000L1495.000000 0.000000M0.000000 23.000000L1518.000000 23.000000M0.000000 46.000000L1518.000000 46.000000M0.000000 69.000000L1518.000000 69.000000M0.000000 92.000000L1518.000000 92.000000M0.000000 115.000000L1518.000000 115.000000M0.000000 138.000000L1518.000000 138.000000M0.000000 161.000000L1518.000000 161.000000M0.000000 184.000000L1518.000000 184.000000M0.000000 207.000000L1518.000000 207.000000M0.000000 230.000000L1518.000000 230.000000M0.000000 253.000000L1518.000000 253.000000M0.000000 276.000000L1518.000000 276.000000M0.000000 299.000000L1518.000000 299.000000M0.000000 322.000000L1518.000000 322.000000M0.000000 345.000000L1518.000000 345.000000M0.000000 368.000000L1518.000000 368.000000M0.000000 391.000000L1518.000000 391.000000M0.000000 414.000000L1518.000000 414.000000M0.000000 437.000000L1518.000000 437.000000M0.000000 460.000000L1518.000000 460.000000M0.000000 483.000000L1518.000000 483.000000M0.000000 506.000000L1518.000000 506.000000M0.000000 529.000000L1518.000000 529.000000M0.000000 552.000000L1518.000000 552.000000M0.000000 575.000000L1518.000000 575.000000M0.000000 598.000000L1518.000000 598.000000M0.000000 621.000000L1518.000000 621.000000M0.000000 644.000000L1518.000000 644.000000M0.000000 667.000000L1518.000000 667.000000M0.000000 690.000000L1518.000000 690.000000M0.000000 713.000000L1518.000000 713.000000M0.000000 736.000000L1518.000000 736.000000M0.000000 759.000000L1518.000000 759.000000M0.000000 782.000000L1518.000000 782.000000M0.000000 805.000000L1518.000000 805.000000M0.000000 828.000000L1518.000000 828.000000M0.000000 851.000000L1518.000000 851.000000M0.000000 874.000000L1518.000000 874.000000M0.000000 897.000000L1518.000000 897.000000M0.000000 920.000000L1518.000000 920.000000M0.000000 943.000000L1518.000000 943.000000M0.000000 966.000000L1518.000000 966.000000M0.000000 989.000000L1518.000000 989.000000M0.000000 1012.000000L1518.000000 1012.000000M0.000000 1035.000000L1518.000000 1035.000000M0.000000 1058.000000L1518.000000 1058.000000M0.000000 1081.000000L1518.000000 1081.000000M0.000000 1104.000000L1518.000000 1104.000000M0.000000 1127.000000L1518.000000 1127.000000M0.000000 1150.000000L1518.000000 1150.000000M0.000000 1173.000000L1518.000000 1173.000000M0.000000 1196.000000L1518.000000 1196.000000M0.000000 1219.000000L1518.000000 1219.000000M0.000000 1242.000000L1518.000000 1242.000000M0.000000 1265.000000L1518.000000 1265.000000M0.000000 1288.000000L1518.000000 1288.000000M0.000000 1311.000000L1518.000000 1311.000000M0.000000 1334.000000L1518.000000 1334.000000M0.000000 1357.000000L1518.000000 1357.000000M0.000000 1380.000000L1518.000000 1380.000000M0.000000 1403.000000L1518.000000 1403.000000M0.000000 1426.000000L1518.000000 1426.000000M0.000000 1449.000000L1518.000000 1449.000000M0.000000 1472.000000L1518.000000 1472.000000M0.000000 1495.000000L1518.000000 1495.000000M0.000000 1518.000000L1518.000000 1518.000000M0.000000 1541.000000L1518.000000 1541.000000M0.000000 1564.000000L1518.000000 1564.000000M0.000000 1587.000000L1518.000000 1587.000000M0.000000 1610.000000L1518.000000 1610.000000M0.000000 1633.000000L1518.000000 1633.000000M0.000000 1656.000000L1518.000000 1656.000000M0.000000 1679.000000L1518.000000 1679.000000M0.000000 1702.000000L1518.000000 1702.000000M0.000000 1725.000000L1518.000000 1725.000000M0.000000 1748.000000L1518.000000 1748.000000M0.000000 1771.000000L1518.000000 1771.000000M0.000000 1794.000000L1518.000000 1794.000000M0.000000 1817.000000L1518.000000 1817.000000M0.000000 1840.000000L1518.000000 1840.000000M0.000000 1863.000000L1518.000000 1863.000000M0.000000 1886.000000L1518.000000 1886.000000M0.000000 1909.000000L1518.000000 1909.000000M0.000000 1932.000000L1518.000000 1932.000000M0.000000 1955.000000L1518.000000 1955.000000"/>
<path style="stroke-opacity:0.000;stroke:#000000;stroke-width:1.000px;fill-opacity:0.300;fill:#000000" d="M2.000000 21.000000 21.000000 21.000000 21.000000 2.000000 2.000000 2.000000 Z"/>
<path style="stroke-opacity:0.000;stroke:#000000;stroke-width:1.000px;fill-opacity:0.300;fill:#000000" d="M2.000000 44.000000 21.000000 44.000000 21.000000 25.000000 2.000000 25.000000 Z"/>
<path style="stroke-opacity:0.000;stroke:#000000;stroke-width:1.000px;fill-opacity:0.300;fill:#000000" d="M25.000000 67.000000 44.000000 67.000000 44.000000 48.000000 25.000000 48.000000 Z"/>
<path style="stroke-opacity:0.000;stroke:#000000;stroke-width:1.000px;fill-opacity:0.300;fill:#000000" d="M48.000000 90.000000 67.000000 90.000000 67.000000 71.000000 48.000000 71.000000 Z"/>
<path style="stroke-opacity:0.000;stroke:#000000;stroke-width:1.000px;fill-opacity:0.300;fill:#000000" d="M71.000000 113.000000 90.000000 113.000000 90.000000 94.000000 71.000000 94.000000 Z"/>
<path style="stroke-opacity:0.000;stroke:#000000;stroke-width:1.000px;fill-opacity:0.300;fill:#000000" d="M71.000000 136.000000 90.000000 136.000000 90.000000 117.000000 71.000000 117.000000 Z"/>
<path style="stroke-opacity:0.000;stroke:#000000;stroke-width:1.000px;fill-opacity:0.300;fill:#000000" d="M94.000000 159.000000 113.000000 159.000000 113.000000 140.000000 94.000000 140.000000 Z"/>
<path style="stroke-opacity:0.000;stroke:#000000;stroke-width:1.000px;fill-opacity:0.300;fill:#000000" d="M117.000000 182.000000 136.000000 182.000000 136.000000 163.000000 117.000000 163.000000 Z"/>
<path style="stroke-opacity:0.000;stroke:#000000;stroke-width:1.000px;fill-opacity:0.300;fill:#000000" d="M140.000000 205.000000 159.000000 205.000000 159.000000 186.000000 140.000000 186.000000 Z"/>
<path style="stroke-opacity:0.000;stroke:#000000;stroke-width:1.000px;fill-opacity:0.300;fill:#000000" d="M140.000000 228.000000 159.000000 228.000000 159.000000 209.000000 140.000000 209.000000 Z"/>
<path style="stroke-opacity:0.000;stroke:#000000;stroke-width:1.000px;fill-opacity:0.300;fill:#000000" d="M163.000000 251.000000 182.000000 251.000000 182.000000 232.000000 163.000000 232.000000 Z"/>
<path style="stroke-opacity:0.000;stroke:#000000;stroke-width:1.000px;fill-opacity:0.300;fill:#000000" d="M186.000000 274.000000 205.000000 274.000000 205.000000 255.000000 186.000000 255.000000 Z"/>
<path style="stroke-opacity:0.000;stroke:#000000;stroke-width:1.000px;fill-opacity:0.300;fill:#000000" d="M209.000000 297.000000 228.000000 297.000000 228.000000 278.000000 209.000000 278.000000 Z"/>
<path style="stroke-opacity:0.000;stroke:#000000;stroke-width:1.000px;fill-opacity:0.300;fill:#000000" d="M209.000000 320.000000 228.000000 320.000000 228.000000 301.000000 209.000000 301.000000 Z"/>
<path style="stroke-opacity:0.000;stroke:#000000;stroke-width:1.000px;fill-opacity:0.300;fill:#000000" d="M232.000000 343.000000 251.000000 343.000000 251.000000 324.000000 232.000000 324.000000 Z"/>
<path style="stroke-opacity:0.000;stroke:#000000;stroke-width:1.000px;fill-opacity:0.300;fill:#000000" d="M255.000000 366.000000 274.000000 366.000000 274.000000 347.000000 255.000000 347.000000 Z"/>
<path style="stroke-opacity:0.000;stroke:#000000;stroke-width:1.000px;fill-opacity:0.300;fill:#000000" d="M278.000000 389.000000 297.000000 389.000000 297.000000 370.000000 278.000000 370.000000 Z"/>
<path style="stroke-opacity:0.000;stroke:#000000;stroke-width:1.000px;fill-opacity:0.300;fill:#000000" d="M301.000000 412.000000 320.000000 412.000000 320.000000 393.000000 301.000000 393.000000 Z"/>
<path style="stroke-opacity:0.000;stroke:#000000;stroke-width:1.000px;fill-opacity:0.300;fill:#000000" d="M301.000000 435.000000 320.000000 435.000000 320.000000 416.000000 301.000000 416.000000 Z"/>
<path style="stroke-opacity:0.000;stroke:#000000;stroke-width:1.000px;fill-opacity:0.300;fill:#000000" d="M324.000000 458.000000 343.000000 458.000000 343.000000 439.000000 324.000000 439.000000 Z"/>
<path style="stroke-opacity:0.000;stroke:#000000;stroke-width:1.000px;fill-opacity:0.300;fill:#000000" d="M347.000000 481.000000 366.000000 481.000000 366.000000 462.000000 347.000000 462.000000 Z"/>
<path style="stroke-opacity:0.000;stroke:#000000;stroke-width:1.000px;fill-opacity:0.300;fill:#000000" d="M370.000000 504.000000 389.000000 504.000000 389.000000 485.000000 370.000000 485.000000 Z"/>
<path style="stroke-opacity:0.000;stroke:#000000;stroke-width:1.000px;fill-opacity:0.300;fill:#000000" d="M370.000000 527.000000 389.000000 527.000000 389.000000 508.000000 370.000000 508.000000 Z"/>
<path style="stroke-opacity:0.000;stroke:#000000;stroke-width:1.000px;fill-opacity:0.300;fill:#000000" d="M393.000000 550.000000 412.000000 550.000000 412.000000 531.000000 393.000000 531.000000 Z"/>
<path style="stroke-opacity:0.000;stroke:#000000;stroke-width:1.000px;fill-opacity:0.300;fill:#000000" d="M416.000000 573.000000 435.000000 573.000000 435.000000 554.000000 416.000000 554.000000 Z"/>
<path style="stroke-opacity:0.000;stroke:#000000;stroke-width:1.000px;fill-opacity:0.300;fill:#000000" d="M439.000000 596.000000 458.000000 596.000000 458.000000 577.000000 439.000000 577.000000 Z"/>
<path style="stroke-opacity:0.000;stroke:#000000;stroke-width:1.000px;fill-opacity:0.300;fill:#000000" d="M439.000000 619.000000 458.000000 619.000000 458.000000 600.000000 439.000000 600.000000 Z"/>
<path style="stroke-opacity:0.000;stroke:#000000;stroke-width:1.000px;fill-opacity:0.300;fill:#000000" d="M462.000000 642.000000 481.000000 642.000000 481.000000 623.000000 462.000000 623.000000 Z"/>
<path style="stroke-opacity:0.000;stroke:#000000;stroke-width:1.000px;fill-opacity:0.300;fill:#000000" d="M485.000000 665.000000 504.000000 665.000000 504.000000 646.000000 485.000000 646.000000 Z"/>
<path style="stroke-opacity:0.000;stroke:#000000;stroke-width:1.000px;fill-opacity:0.300;fill:#000000" d="M508.000000 688.000000 527.000000 688.000000 527.000000 669.000000 508.000000 669.000000 Z"/>
<path style="stroke-opacity:0.000;stroke:#000000;stroke-width:1.000px;fill-opacity:0.300;fill:#000000" d="M531.000000 711.000000 550.000000 711.000000 550.000000 692.000000 531.000000 692.000000 Z"/>
<path style="stroke-opacity:0.000;stroke:#000000;stroke-width:1.000px;fill-opacity:0.300;fill:#000000" d="M531.000000 734.000000 550.000000 734.000000 550.000000 715.000000 531.000000 715.000000 Z"/>
<path style="stroke-opacity:0.000;stroke:#000000;stroke-width:1.000px;fill-opacity:0.300;fill:#000000" d="M554.000000 757.000000 573.000000 757.000000 573.000000 738.000000 554.000000 738.000000 Z"/>
<path style="stroke-opacity:0.000;stroke:#000000;stroke-width:1.000px;fill-opacity:0.300;fill:#000000" d="M577.000000 780.000000 596.000000 780.000000 596.000000 761.000000 577.000000 761.000000 Z"/>
<path style="stroke-opacity:0.000;stroke:#000000;stroke-width:1.000px;fill-opacity:0.300;fill:#000000" d="M600.000000 803.000000 619.000000 803.000000 619.000000 784.000000 600.000000 784.000000 Z"/>
<path style="stroke-opacity:0.000;stroke:#000000;stroke-width:1.000px;fill-opacity:0.300;fill:#000000" d="M600.000000 826.000000 619.000000 826.000000 619.000000 807.000000 600.000000 807.000000 Z"/>
<path style="stroke-opacity:0.000;stroke:#000000;stroke-width:1.000px;fill-opacity:0.300;fill:#000000" d="M623.000000 849.000000 642.000000 849.000000 642.000000 830.000000 623.000000 830.000000 Z"/>
<path style="stroke-opacity:0.000;stroke:#000000;stroke-width:1.000px;fill-opacity:0.300;fill:#000000" d="M646.000000 872.000000 665.000000 872.000000 665.000000 853.000000 646.000000 853.000000 Z"/>
<path style="stroke-opacity:0.000;stroke:#000000;stroke-width:1.000px;fill-opacity:0.300;fill:#000000" d="M669.000000 895.000000 688.000000 895.000000 688.000000 876.000000 669.000000 876.000000 Z"/>
<path style="stroke-opacity:0.000;stroke:#000000;stroke-width:1.000px;fill-opacity:0.300;fill:#000000" d="M669.000000 918.000000 688.000000 918.000000 688.000000 899.000000 669.000000 899.000000 Z"/>
<path style="stroke-opacity:0.000;stroke:#000000;stroke-width:1.000px;fill-opacity:0.300;fill:#000000" d="M692.000000 941.000000 711.000000 941.000000 711.000000 922.000000 692.000000 922.000000 Z"/>
<path style="stroke-opacity:0.000;stroke:#000000;stroke-width:1.000px;fill-opacity:0.300;fill:#000000" d="M715.000000 964.000000 734.000000 964.000000 734.000000 945.000000 715.000000 945.000000 Z"/>
<path style="stroke-opacity:0.000;stroke:#000000;stroke-width:1.000px;fill-opacity:0.300;fill:#000000" d="M738.000000 987.000000 757.000000 987.000000 757.000000 968.000000 738.000000 968.000000 Z"/>
<path style="stroke-opacity:0.000;stroke:#000000;stroke-width:1.000px;fill-opacity:0.300;fill:#000000" d="M761.000000 1010.000000 780.000000 1010.000000 780.000000 991.000000 761.000000 991.000000 Z"/>
<path style="stroke-opacity:0.000;stroke:#000000;stroke-width:1.000px;fill-opacity:0.300;fill:#000000" d="M761.000000 1033.000000 780.000000 1033.000000 780.000000 1014.000000 761.000000 1014.000000 Z"/>
<path style="stroke-opacity:0.000;stroke:#000000;stroke-width:1.000px;fill-opacity:0.300;fill:#000000" d="M784.000000 1056.000000 803.000000 1056.000000 803.000000 1037.000000 784.000000 1037.000000 Z"/>
<path style="stroke-opacity:0.000;stroke:#000000;stroke-width:1.000px;fill-opacity:0.300;fill:#000000" d="M807.000000 1079.000000 826.000000 1079.000000 826.000000 1060.000000 807.000000 1060.000000 Z"/>
<path style="stroke-opacity:0.000;stroke:#000000;stroke-width:1.000px;fill-opacity:0.300;fill:#000000" d="M830.000000 1102.000000 849.000000 1102.000000 849.000000 1083.000000 830.000000 1083.000000 Z"/>
<path style="stroke-opacity:0.000;stroke:#000000;stroke-width:1.000px;fill-opacity:0.300;fill:#000000" d="M830.000000 1125.000000 849.000000 1125.000000 849.000000 1106.000000 830.000000 1106.000000 Z"/>
<path style="stroke-opacity:0.000;stroke:#000000;stroke-width:1.000px;fill-opacity:0.300;fill:#000000" d="M853.000000 1148.000000 872.000000 1148.000000 872.000000 1129.000000 853.000000 1129.000000 Z"/>
<path style="stroke-opacity:0.000;stroke:#000000;stroke-width:1.000px;fill-opacity:0.300;fill:#000000" d="M876.000000 1171.000000 895.000000 1171.000000 895.000000 1152.000000 876.000000 1152.000000 Z"/>
<path style="stroke-opacity:0.000;stroke:#000000;stroke-width:1.000px;fill-opacity:0.300;fill:#000000" d="M899.000000 1194.000000 918.000000 1194.000000 918.000000 1175.000000 899.000000 1175.000000 Z"/>
<path style="stroke-opacity:0.000;stroke:#000000;stroke-width:1.000px;fill-opacity:0.300;fill:#000000" d="M899.000000 1217.000000 918.000000 1217.000000 918.000000 1198.000000 899.000000 1198.000000 Z"/>
<path style="stroke-opacity:0.000;stroke:#000000;stroke-width:1.000px;fill-opacity:0.300;fill:#000000" d="M922.000000 1240.000000 941.000000 1240.000000 941.000000 1221.000000 922.000000 1221.000000 Z"/>
<path style="stroke-opacity:0.000;stroke:#000000;stroke-width:1.000px;fill-opacity:0.300;fill:#000000" d="M945.000000 1263.000000 964.000000 1263.000000 964.000000 1244.000000 945.000000 1244.000000 Z"/>
<path style="stroke-opacity:0.000;stroke:#000000;stroke-width:1.000px;fill-opacity:0.300;fill:#000000" d="M968.000000 1286.000000 987.000000 1286.000000 987.000000 1267.000000 968.000000 1267.000000 Z"/>
<path style="stroke-opacity:0.000;stroke:#000000;stroke-width:1.000px;fill-opacity:0.300;fill:#000000" d="M968.000000 1309.000000 987.000000 1309.000000 987.000000 1290.000000 968.000000 1290.000000 Z"/>
<path style="stroke-opacity:0.000;stroke:#000000;stroke-width:1.000px;fill-opacity:0.300;fill:#000000" d="M991.000000 1332.000000 1010.000000 1332.000000 1010.000000 1313.000000 991.000000 1313.000000 Z"/>
<path style="stroke-opacity:0.000;stroke:#000000;stroke-width:1.000px;fill-opacity:0.300;fill:#000000" d="M1014.000000 1355.000000 1033.000000 1355.000000 1033.000000 1336.000000 1014.000000 1336.000000 Z"/>
<path style="stroke-opacity:0.000;stroke:#000000;stroke-width:1.000px;fill-opacity:0.300;fill:#000000" d="M1037.000000 1378.000000 1056.000000 1378.000000 1056.000000 1359.000000 1037.000000 1359.000000 Z"/>
<path style="stroke-opacity:0.000;stroke:#000000;stroke-width:1.000px;fill-opacity:0.300;fill:#000000" d="M1060.000000 1401.000000 1079.000000 1401.000000 1079.000000 1382.000000 1060.000000 1382.000000 Z"/>
<path style="stroke-opacity:0.000;stroke:#000000;stroke-width:1.000px;fill-opacity:0.300;fill:#000000" d="M1060.000000 1424.000000 1079.000000 1424.000000 1079.000000 1405.000000 1060.000000 1405.000000 Z"/>
<path style="stroke-opacity:0.000;stroke:#000000;stroke-width:1.000px;fill-opacity:0.300;fill:#000000" d="M1083.000000 1447.000000 1102.000000 1447.000000 1102.000000 1428.000000 1083.000000 1428.000000 Z"/>
<path style="stroke-opacity:0.000;stroke:#000000;stroke-width:1.000px;fill-opacity:0.300;fill:#000000" d="M1106.000000 1470.000000 1125.000000 1470.000000 1125.000000 1451.000000 1106.000000 1451.000000 Z"/>
<path style="stroke-opacity:0.000;stroke:#000000;stroke-width:1.000px;fill-opacity:0.300;fill:#000000" d="M1129.000000 1493.000000 1148.000000 1493.000000 1148.000000 1474.000000 1129.000000 1474.000000 Z"/>
<path style="stroke-opacity:0.000;stroke:#000000;stroke-width:1.000px;fill-opacity:0.300;fill:#000000" d="M1129.000000 1516.000000 1148.000000 1516.000000 1148.000000 1497.000000 1129.000000 1497.000000 Z"/>
<path style="stroke-opacity:0.000;stroke:#000000;stroke-width:1.000px;fill-opacity:0.300;fill:#000000" d="M1152.000000 1539.000000 1171.000000 1539.000000 1171.000000 1520.000000 1152.000000 1520.000000 Z"/>
<path style="stroke-opacity:0.000;stroke:#000000;stroke-width:1.000px;fill-opacity:0.300;fill:#000000" d="M1175.000000 1562.000000 1194.000000 1562.000000 1194.000000 1543.000000 1175.000000 1543.000000 Z"/>
<path style="stroke-opacity:0.000;stroke:#000000;stroke-width:1.000px;fill-opacity:0.300;fill:#000000" d="M1198.000000 1585.000000 1217.000000 1585.000000 1217.000000 1566.000000 1198.000000 1566.000000 Z"/>
<path style="stroke-opacity:0.000;stroke:#000000;stroke-width:1.000px;fill-opacity:0.300;fill:#000000" d="M1198.000000 1608.000000 1217.000000 1608.000000 1217.000000 1589.000000 1198.000000 1589.000000 Z"/>
<path style="stroke-opacity:0.000;stroke:#000000;stroke-width:1.000px;fill-opacity:0.300;fill:#000000" d="M1221.000000 1631.000000 1240.000000 1631.000000 1240.000000 1612.000000 1221.000000 1612.000000 Z"/>
<path style="stroke-opacity:0.000;stroke:#000000;stroke-width:1.000px;fill-opacity:0.300;fill:#000000" d="M1244.000000 1654.000000 1263.000000 1654.000000 1263.000000 1635.000000 1244.000000 1635.000000 Z"/>
<path style="stroke-opacity:0.000;stroke:#000000;stroke-width:1.000px;fill-opacity:0.300;fill:#000000" d="M1267.000000 1677.000000 1286.000000 1677.000000 1286.000000 1658.000000 1267.000000 1658.000000 Z"/>
<path style="stroke-opacity:0.000;stroke:#000000;stroke-width:1.000px;fill-opacity:0.300;fill:#000000" d="M1290.000000 1700.000000 1309.000000 1700.000000 1309.000000 1681.000000 1290.000000 1681.000000 Z"/>
<path style="stroke-opacity:0.000;stroke:#000000;stroke-width:1.000px;fill-opacity:0.300;fill:#000000" d="M1290.000000 1723.000000 1309.000000 1723.000000 1309.000000 1704.000000 1290.000000 1704.000000 Z"/>
<path style="stroke-opacity:0.000;stroke:#000000;stroke-width:1.000px;fill-opacity:0.300;fill:#000000" d="M1313.000000 1746.000000 1332.000000 1746.000000 1332.000000 1727.000000 1313.000000 1727.000000 Z"/>
<path style="stroke-opacity:0.000;stroke:#000000;stroke-width:1.000px;fill-opacity:0.300;fill:#000000" d="M1336.000000 1769.000000 1355.000000 1769.000000 1355.000000 1750.000000 1336.000000 1750.000000 Z"/>
<path style="stroke-opacity:0.000;stroke:#000000;stroke-width:1.000px;fill-opacity:0.300;fill:#000000" d="M1359.000000 1792.000000 1378.000000 1792.000000 1378.000000 1773.000000 1359.000000 1773.000000 Z"/>
<path style="stroke-opacity:0.000;stroke:#000000;stroke-width:1.000px;fill-opacity:0.300;fill:#000000" d="M1359.000000 1815.000000 1378.000000 1815.000000 1378.000000 1796.000000 1359.000000 1796.000000 Z"/>
<path style="stroke-opacity:0.000;stroke:#000000;stroke-width:1.000px;fill-opacity:0.300;fill:#000000" d="M1382.000000 1838.000000 1401.000000 1838.000000 1401.000000 1819.000000 1382.000000 1819.000000 Z"/>
<path style="stroke-opacity:0.000;stroke:#000000;stroke-width:1.000px;fill-opacity:0.300;fill:#000000" d="M1405.000000 1861.000000 1424.000000 1861.000000 1424.000000 1842.000000 1405.000000 1842.000000 Z"/>
<path style="stroke-opacity:0.000;stroke:#000000;stroke-width:1.000px;fill-opacity:0.300;fill:#000000" d="M1428.000000 1884.000000 1447.000000 1884.000000 1447.000000 1865.000000 1428.000000 1865.000000 Z"/>
<path style="stroke-opacity:0.000;stroke:#000000;stroke-width:1.000px;fill-opacity:0.300;fill:#000000" d="M1428.000000 1907.000000 1447.000000 1907.000000 1447.000000 1888.000000 1428.000000 1888.000000 Z"/>
<path style="stroke-opacity:0.000;stroke:#000000;stroke-width:1.000px;fill-opacity:0.300;fill:#000000" d="M1451.000000 1930.000000 1470.000000 1930.000000 1470.000000 1911.000000 1451.000000 1911.000000 Z"/>
<path style="stroke-opacity:0.000;stroke:#000000;stroke-width:1.000px;fill-opacity:0.300;fill:#000000" d="M1474.000000 1953.000000 1493.000000 1953.000000 1493.000000 1934.000000 1474.000000 1934.000000 Z"/>
<path style="stroke-opacity:0.000;stroke:#000000;stroke-width:1.000px;fill-opacity:0.300;fill:#000000" d="M1497.000000 1976.000000 1516.000000 1976.000000 1516.000000 1957.000000 1497.000000 1957.000000 Z"/>
<path style="stroke-opacity:0.000;stroke:#00FF00;stroke-width:1.000px;fill-opacity:0.300;fill:#00FF00" d="M2.000000 21.000000 21.000000 21.000000 21.000000 2.000000 2.000000 2.000000 Z"/>
<path style="stroke-opacity:0.000;stroke:#00FF00;stroke-width:1.000px;fill-opacity:0.300;fill:#00FF00" d="M2.000000 44.000000 21.000000 44.000000 21.000000 25.000000 2.000000 25.000000 Z"/>
<path style="stroke-opacity:0.000;stroke:#00FF00;stroke-width:1.000px;fill-opacity:0.300;fill:#00FF00" d="M25.000000 67.000000 44.000000 67.000000 44.000000 48.000000 25.000000 48.000000 Z"/>
<path style="stroke-opacity:0.000;stroke:#00FF00;stroke-width:1.000px;fill-opacity:0.300;fill:#00FF00" d="M48.000000 90.000000 67.000000 90.000000 67.000000 71.000000 48.000000 71.000000 Z"/>
<path style="stroke-opacity:0.000;stroke:#00FF00;stroke-width:1.000px;fill-opacity:0.300;fill:#00FF00" d="M71.000000 113.000000 90.000000 113.000000 90.000000 94.000000 71.000000 94.000000 Z"/>
<path style="stroke-opacity:0.000;stroke:#00FF00;stroke-width:1.000px;fill-opacity:0.300;fill:#00FF00" d="M71.000000 136.000000 90.000000 136.000000 90.000000 117.000000 71.000000 117.000000 Z"/>
<path style="stroke-opacity:0.000;stroke:#00FF00;stroke-width:1.000px;fill-opacity:0.300;fill:#00FF00" d="M94.000000 159.000000 113.000000 159.000000 113.000000 140.000000 94.000000 140.000000 Z"/>
<path style="stroke-opacity:0.000;stroke:#00FF00;stroke-width:1.000px;fill-opacity:0.300;fill:#00FF00" d="M117.000000 182.000000 136.000000 182.000000 136.000000 163.000000 117.000000 163.000000 Z"/>
<path style="stroke-opacity:0.000;stroke:#00FF00;stroke-width:1.000px;fill-opacity:0.300;fill:#00FF00" d="M140.000000 205.000000 159.000000 205.000000 159.000000 186.000000 140.000000 186.000000 Z"/>
<path style="stroke-opacity:0.000;stroke:#00FF00;stroke-width:1.000px;fill-opacity:0.300;fill:#00FF00" d="M140.000000 228.000000 159.000000 228.000000 159.000000 209.000000 140.000000 209.000000 Z"/>
<path style="stroke-opacity:0.000;stroke:#00FF00;stroke-width:1.000px;fill-opacity:0.300;fill:#00FF00" d="M163.000000 251.000000 182.000000 251.000000 182.000000 232.000000 163.000000 232.000000 Z"/>
<path style="stroke-opacity:0.000;stroke:#00FF00;stroke-width:1.000px;fill-opacity:0.300;fill:#00FF00" d="M186.000000 274.000000 205.000000 274.000000 205.000000 255.000000 186.000000 255.000000 Z"/>
<path style="stroke-opacity:0.000;stroke:#00FF00;stroke-width:1.000px;fill-opacity:0.300;fill:#00FF00" d="M209.000000 297.000000 228.000000 297.000000 228.000000 278.000000 209.000000 278.000000 Z"/>
<path style="stroke-opacity:0.000;stroke:#00FF00;stroke-width:1.000px;fill-opacity:0.300;fill:#00FF00" d="M209.000000 320.000000 228.000000 320.000000 228.000000 301.000000 209.000000 301.000000 Z"/>
<path style="stroke-opacity:0.000;stroke:#00FF00;stroke-width:1.000px;fill-opacity:0.300;fill:#00FF00" d="M232.000000 343.000000 251.000000 343.000000 251.000000 324.000000 232.000000 324.000000 Z"/>
<path style="stroke-opacity:0.000;stroke:#00FF00;stroke-width:1.000px;fill-opacity:0.300;fill:#00FF00" d="M255.000000 366.000000 274.000000 366.000000 274.000000 347.000000 255.000000 347.000000 Z"/>
<path style="stroke-opacity:0.000;stroke:#00FF00;stroke-width:1.000px;fill-opacity:0.300;fill:#00FF00" d="M278.000000 389.000000 297.000000 389.000000 297.000000 370.000000 278.000000 370.000000 Z"/>
<path style="stroke-opacity:0.000;stroke:#00FF00;stroke-width:1.000px;fill-opacity:0.300;fill:#00FF00" d="M301.000000 412.000000 320.000000 412.000000 320.000000 393.000000 301.000000 393.000000 Z"/>
<path style="stroke-opacity:0.000;stroke:#00FF00;stroke-width:1.000px;fill-opacity:0.300;fill:#00FF00" d="M301.000000 435.000000 320.000000 435.000000 320.000000 416.000000 301.000000 416.000000 Z"/>
<path style="stroke-opacity:0.000;stroke:#0000FF;stroke-width:1.000px;fill-opacity:0.300;fill:#0000FF" d="M324.000000 458.000000 343.000000 458.000000 343.000000 439.000000 324.000000 439.000000 Z"/>
<path style="stroke-opacity:0.000;stroke:#0000FF;stroke-width:1.000px;fill-opacity:0.300;fill:#0000FF" d="M324.000000 458.000000 343.000000 458.000000 343.000000 439.000000 324.000000 439.000000 Z"/>
<path style="stroke-opacity:0.000;stroke:#0000FF;stroke-width:1.000px;fill-opacity:0.300;fill:#0000FF" d="M324.000000 458.000000 343.000000 458.000000 343.000000 439.000000 324.000000 439.000000 Z"/>
<path style="stroke-opacity:0.000;stroke:#0000FF;stroke-width:1.000px;fill-opacity:0.300;fill:#0000FF" d="M347.000000 481.000000 366.000000 481.000000 366.000000 462.000000 347.000000 462.000000 Z"/>
<path style="stroke-opacity:0.000;stroke:#0000FF;stroke-width:1.000px;fill-opacity:0.300;fill:#0000FF" d="M347.000000 481.000000 366.000000 481.000000 366.000000 462.000000 347.000000 462.000000 Z"/>
<path style="stroke-opacity:0.000;stroke:#0000FF;stroke-width:1.000px;fill-opacity:0.300;fill:#0000FF" d="M347.000000 481.000000 366.000000 481.000000 366.000000 462.000000 347.000000 462.000000 Z"/>
<path style="stroke-opacity:0.000;stroke:#0000FF;stroke-width:1.000px;fill-opacity:0.300;fill:#0000FF" d="M370.000000 504.000000 389.000000 504.000000 389.000000 485.000000 370.000000 485.000000 Z"/>
<path style="stroke-opacity:0.000;stroke:#0000FF;stroke-width:1.000px;fill-opacity:0.300;fill:#0000FF" d="M370.000000 504.000000 389.000000 504.000000 389.000000 485.000000 370.000000 485.000000 Z"/>
<path style="stroke-opacity:0.000;stroke:#FF0000;stroke-width:1.000px;fill-opacity:0.300;fill:#FF0000" d="M370.000000 504.000000 389.000000 504.000000 389.000000 485.000000 370.000000 485.000000 Z"/>
<path style="stroke-opacity:0.000;stroke:#0000FF;stroke-width:1.000px;fill-opacity:0.300;fill:#0000FF" d="M370.000000 527.000000 389.000000 527.000000 389.000000 508.000000 370.000000 508.000000 Z"/>
<path style="stroke-opacity:0.000;stroke:#0000FF;stroke-width:1.000px;fill-opacity:0.300;fill:#0000FF" d="M370.000000 527.000000 389.000000 527.000000 389.000000 508.000000 370.000000 508.000000 Z"/>
<path style="stroke-opacity:0.000;stroke:#FF0000;stroke-width:1.000px;fill-opacity:0.300;fill:#FF0000" d="M370.000000 527.000000 389.000000 527.000000 389.000000 508.000000 370.000000 508.000000 Z"/>
<path style="stroke-opacity:0.000;stroke:#0000FF;stroke-width:1.000px;fill-opacity:0.300;fill:#0000FF" d="M393.000000 550.000000 412.000000 550.000000 412.000000 531.000000 393.000000 531.000000 Z"/>
<path style="stroke-opacity:0.000;stroke:#0000FF;stroke-width:1.000px;fill-opacity:0.300;fill:#0000FF" d="M393.000000 550.000000 412.000000 550.000000 412.000000 531.000000 393.000000 531.000000 Z"/>
<path style="stroke-opacity:0.000;stroke:#0000FF;stroke-width:1.000px;fill-opacity:0.300;fill:#0000FF" d="M393.000000 550.000000 412.000000 550.000000 412.000000 531.000000 393.000000 531.000000 Z"/>
<path style="stroke-opacity:0.000;stroke:#0000FF;stroke-width:1.000px;fill-opacity:0.300;fill:#0000FF" d="M416.000000 573.000000 435.000000 573.000000 435.000000 554.000000 416.000000 554.000000 Z"/>
<path style="stroke-opacity:0.000;stroke:#0000FF;stroke-width:1.000px;fill-opacity:0.300;fill:#0000FF" d="M416.000000 573.000000 435.000000 573.000000 435.000000 554.000000 416.000000 554.000000 Z"/>
<path style="stroke-opacity:0.000;stroke:#0000FF;stroke-width:1.000px;fill-opacity:0.300;fill:#0000FF" d="M416.000000 573.000000 435.000000 573.000000 435.000000 554.000000 416.000000 554.000000 Z"/>
<path style="stroke-opacity:0.000;stroke:#0000FF;stroke-width:1.000px;fill-opacity:0.300;fill:#0000FF" d="M439.000000 596.000000 458.000000 596.000000 458.000000 577.000000 439.000000 577.000000 Z"/>
<path style="stroke-opacity:0.000;stroke:#0000FF;stroke-width:1.000px;fill-opacity:0.300;fill:#0000FF" d="M439.000000 596.000000 458.000000 596.000000 458.000000 577.000000 439.000000 577.000000 Z"/>
<path style="stroke-opacity:0.000;stroke:#FF0000;stroke-width:1.000px;fill-opacity:0.300;fill:#FF0000" d="M439.000000 596.000000 458.000000 596.000000 458.000000 577.000000 439.000000 577.000000 Z"/>
<path style="stroke-opacity:0.000;stroke:#0000FF;stroke-width:1.000px;fill-opacity:0.300;fill:#0000FF" d="M439.000000 619.000000 458.000000 619.000000 458.000000 600.000000 439.000000 600.000000 Z"/>
<path style="stroke-opacity:0.000;stroke:#0000FF;stroke-width:1.000px;fill-opacity:0.300;fill:#0000FF" d="M439.000000 619.000000 458.000000 619.000000 458.000000 600.000000 439.000000 600.000000 Z"/>
<path style="stroke-opacity:0.000;stroke:#FF0000;stroke-width:1.000px;fill-opacity:0.300;fill:#FF0000" d="M439.000000 619.000000 458.000000 619.000000 458.000000 600.000000 439.000000 600.000000 Z"/>
<path style="stroke-opacity:0.000;stroke:#0000FF;stroke-width:1.000px;fill-opacity:0.300;fill:#0000FF" d="M462.000000 642.000000 481.000000 642.000000 481.000000 623.000000 462.000000 623.000000 Z"/>
<path style="stroke-opacity:0.000;stroke:#FF0000;stroke-width:1.000px;fill-opacity:0.300;fill:#FF0000" d="M462.000000 642.000000 481.000000 642.000000 481.000000 623.000000 462.000000 623.000000 Z"/>
<path style="stroke-opacity:0.000;stroke:#0000FF;stroke-width:1.000px;fill-opacity:0.300;fill:#0000FF" d="M462.000000 642.000000 481.000000 642.000000 481.000000 623.000000 462.000000 623.000000 Z"/>
<path style="stroke-opacity:0.000;stroke:#0000FF;stroke-width:1.000px;fill-opacity:0.300;fill:#0000FF" d="M485.000000 665.000000 504.000000 665.000000 504.000000 646.000000 485.000000 646.000000 Z"/>
<path style="stroke-opacity:0.000;stroke:#FF0000;stroke-width:1.000px;fill-opacity:0.300;fill:#FF0000" d="M485.000000 665.000000 504.000000 665.000000 504.000000 646.000000 485.000000 646.000000 Z"/>
<path style="stroke-opacity:0.000;stroke:#0000FF;stroke-width:1.000px;fill-opacity:0.300;fill:#0000FF" d="M485.000000 665.000000 504.000000 665.000000 504.000000 646.000000 485.000000 646.000000 Z"/>
<path style="stroke-opacity:0.000;stroke:#0000FF;stroke-width:1.000px;fill-opacity:0.300;fill:#0000FF" d="M508.000000 688.000000 527.000000 688.000000 527.000000 669.000000 508.000000 669.000000 Z"/>
<path style="stroke-opacity:0.000;stroke:#FF0000;stroke-width:1.000px;fill-opacity:0.300;fill:#FF0000" d="M508.000000 688.000000 527.000000 688.000000 527.000000 669.000000 508.000000 669.000000 Z"/>
<path style="stroke-opacity:0.000;stroke:#0000FF;stroke-width:1.000px;fill-opacity:0.300;fill:#0000FF" d="M508.000000 688.000000 527.000000 688.000000 527.000000 669.000000 508.000000 669.000000 Z"/>
<path style="stroke-opacity:0.000;stroke:#0000FF;stroke-width:1.000px;fill-opacity:0.300;fill:#0000FF" d="M531.000000 711.000000 550.000000 711.000000 550.000000 692.000000 531.000000 692.000000 Z"/>
<path style="stroke-opacity:0.000;stroke:#FF0000;stroke-width:1.000px;fill-opacity:0.300;fill:#FF0000" d="M531.000000 711.000000 550.000000 711.000000 550.000000 692.000000 531.000000 692.000000 Z"/>
<path style="stroke-opacity:0.000;stroke:#FF0000;stroke-width:1.000px;fill-opacity:0.300;fill:#FF0000" d="M531.000000 711.000000 550.000000 711.000000 550.000000 692.000000 531.000000 692.000000 Z"/>
<path style="stroke-opacity:0.000;stroke:#0000FF;stroke-width:1.000px;fill-opacity:0.300;fill:#0000FF" d="M531.000000 734.000000 550.000000 734.000000 550.000000 715.000000 531.000000 715.000000 Z"/>
<path style="stroke-opacity:0.000;stroke:#FF0000;stroke-width:1.000px;fill-opacity:0.300;fill:#FF0000" d="M531.000000 734.000000 550.000000 734.000000 550.000000 715.000000 531.000000 715.000000 Z"/>
<path style="stroke-opacity:0.000;stroke:#FF0000;stroke-width:1.000px;fill-opacity:0.300;fill:#FF0000" d="M531.000000 734.000000 550.000000 734.000000 550.000000 715.000000 531.000000 715.000000 Z"/>
<path style="stroke-opacity:0.000;stroke:#0000FF;stroke-width:1.000px;fill-opacity:0.300;fill:#0000FF" d="M554.000000 757.000000 573.000000 757.000000 573.000000 738.000000 554.000000 738.000000 Z"/>
<path style="stroke-opacity:0.000;stroke:#0000FF;stroke-width:1.000px;fill-opacity:0.300;fill:#0000FF" d="M554.000000 757.000000 573.000000 757.000000 573.000000 738.000000 554.000000 738.000000 Z"/>
<path style="stroke-opacity:0.000;stroke:#0000FF;stroke-width:1.000px;fill-opacity:0.300;fill:#0000FF" d="M554.000000 757.000000 573.000000 757.000000 573.000000 738.000000 554.000000 738.000000 Z"/>
<path style="stroke-opacity:0.000;stroke:#0000FF;stroke-width:1.000px;fill-opacity:0.300;fill:#0000FF" d="M577.000000 780.000000 596.000000 780.000000 596.000000 761.000000 577.000000 761.000000 Z"/>
<path style="stroke-opacity:0.000;stroke:#0000FF;stroke-width:1.000px;fill-opacity:0.300;fill:#0000FF" d="M577.000000 780.000000 596.000000 780.000000 596.000000 761.000000 577.000000 761.000000 Z"/>
<path style="stroke-opacity:0.000;stroke:#0000FF;stroke-width:1.000px;fill-opacity:0.300;fill:#0000FF" d="M577.000000 780.000000 596.000000 780.000000 596.000000 761.000000 577.000000 761.000000 Z"/>
<path style="stroke-opacity:0.000;stroke:#0000FF;stroke-width:1.000px;fill-opacity:0.300;fill:#0000FF" d="M600.000000 803.000000 619.000000 803.000000 619.000000 784.000000 600.000000 784.000000 Z"/>
<path style="stroke-opacity:0.000;stroke:#0000FF;stroke-width:1.000px;fill-opacity:0.300;fill:#0000FF" d="M600.000000 803.000000 619.000000 803.000000 619.000000 784.000000 600.000000 784.000000 Z"/>
<path style="stroke-opacity:0.000;stroke:#FF0000;stroke-width:1.000px;fill-opacity:0.300;fill:#FF0000" d="M600.000000 803.000000 619.000000 803.000000 619.000000 784.000000 600.000000 784.000000 Z"/>
<path style="stroke-opacity:0.000;stroke:#0000FF;stroke-width:1.000px;fill-opacity:0.300;fill:#0000FF" d="M600.000000 826.000000 619.000000 826.000000 619.000000 807.000000 600.000000 807.000000 Z"/>
<path style="stroke-opacity:0.000;stroke:#0000FF;stroke-width:1.000px;fill-opacity:0.300;fill:#0000FF" d="M600.000000 826.000000 619.000000 826.000000 619.000000 807.000000 600.000000 807.000000 Z"/>
<path style="stroke-opacity:0.000;stroke:#FF0000;stroke-width:1.000px;fill-opacity:0.300;fill:#FF0000" d="M600.000000 826.000000 619.000000 826.000000 619.000000 807.000000 600.000000 807.000000 Z"/>
<path style="stroke-opacity:0.000;stroke:#0000FF;stroke-width:1.000px;fill-opacity:0.300;fill:#0000FF" d="M623.000000 849.000000 642.000000 849.000000 642.000000 830.000000 623.000000 830.000000 Z"/>
<path style="stroke-opacity:0.000;stroke:#0000FF;stroke-width:1.000px;fill-opacity:0.300;fill:#0000FF" d="M623.000000 849.000000 642.000000 849.000000 642.000000 830.000000 623.000000 830.000000 Z"/>
<path style="stroke-opacity:0.000;stroke:#0000FF;stroke-width:1.000px;fill-opacity:0.300;fill:#0000FF" d="M623.000000 849.000000 642.000000 849.000000 642.000000 830.000000 623.000000 830.000000 Z"/>
<path style="stroke-opacity:0.000;stroke:#0000FF;stroke-width:1.000px;fill-opacity:0.300;fill:#0000FF" d="M646.000000 872.000000 665.000000 872.000000 665.000000 853.000000 646.000000 853.000000 Z"/>
<path style="stroke-opacity:0.000;stroke:#0000FF;stroke-width:1.000px;fill-opacity:0.300;fill:#0000FF" d="M646.000000 872.000000 665.000000 872.000000 665.000000 853.000000 646.000000 853.000000 Z"/>
<path style="stroke-opacity:0.000;stroke:#0000FF;stroke-width:1.000px;fill-opacity:0.300;fill:#0000FF" d="M646.000000 872.000000 665.000000 872.000000 665.000000 853.000000 646.000000 853.000000 Z"/>
<path style="stroke-opacity:0.000;stroke:#0000FF;stroke-width:1.000px;fill-opacity:0.300;fill:#0000FF" d="M669.000000 895.000000 688.000000 895.000000 688.000000 876.000000 669.000000 876.000000 Z"/>
<path style="stroke-opacity:0.000;stroke:#0000FF;stroke-width:1.000px;fill-opacity:0.300;fill:#0000FF" d="M669.000000 895.000000 688.000000 895.000000 688.000000 876.000000 669.000000 876.000000 Z"/>
<path style="stroke-opacity:0.000;stroke:#FF0000;stroke-width:1.000px;fill-opacity:0.300;fill:#FF0000" d="M669.000000 895.000000 688.000000 895.000000 688.000000 876.000000 669.000000 876.000000 Z"/>
<path style="stroke-opacity:0.000;stroke:#0000FF;stroke-width:1.000px;fill-opacity:0.300;fill:#0000FF" d="M669.000000 918.000000 688.000000 918.000000 688.000000 899.000000 669.000000 899.000000 Z"/>
<path style="stroke-opacity:0.000;stroke:#0000FF;stroke-width:1.000px;fill-opacity:0.300;fill:#0000FF" d="M669.000000 918.000000 688.000000 918.000000 688.000000 899.000000 669.000000 899.000000 Z"/>
<path style="stroke-opacity:0.000;stroke:#FF0000;stroke-width:1.000px;fill-opacity:0.300;fill:#FF0000" d="M669.000000 918.000000 688.000000 918.000000 688.000000 899.000000 669.000000 899.000000 Z"/>
<path style="stroke-opacity:0.000;stroke:#0000FF;stroke-width:1.000px;fill-opacity:0.300;fill:#0000FF" d="M692.000000 941.000000 711.000000 941.000000 711.000000 922.000000 692.000000 922.000000 Z"/>
<path style="stroke-opacity:0.000;stroke:#FF0000;stroke-width:1.000px;fill-opacity:0.300;fill:#FF0000" d="M692.000000 941.000000 711.000000 941.000000 711.000000 922.000000 692.000000 922.000000 Z"/>
<path style="stroke-opacity:0.000;stroke:#0000FF;stroke-width:1.000px;fill-opacity:0.300;fill:#0000FF" d="M692.000000 941.000000 711.000000 941.000000 711.000000 922.000000 692.000000 922.000000 Z"/>
<path style="stroke-opacity:0.000;stroke:#0000FF;stroke-width:1.000px;fill-opacity:0.300;fill:#0000FF" d="M715.000000 964.000000 734.000000 964.000000 734.000000 945.000000 715.000000 945.000000 Z"/>
<path style="stroke-opacity:0.000;stroke:#FF0000;stroke-width:1.000px;fill-opacity:0.300;fill:#FF0000" d="M715.000000 964.000000 734.000000 964.000000 734.000000 945.000000 715.000000 945.000000 Z"/>
<path style="stroke-opacity:0.000;stroke:#0000FF;stroke-width:1.000px;fill-opacity:0.300;fill:#0000FF" d="M715.000000 964.000000 734.000000 964.000000 734.000000 945.000000 715.000000 945.000000 Z"/>
<path style="stroke-opacity:0.000;stroke:#0000FF;stroke-width:1.000px;fill-opacity:0.300;fill:#0000FF" d="M738.000000 987.000000 757.000000 987.000000 757.000000 968.000000 738.000000 968.000000 Z"/>
<path style="stroke-opacity:0.000;stroke:#FF0000;stroke-width:1.000px;fill-opacity:0.300;fill:#FF0000" d="M738.000000 987.000000 757.000000 987.000000 757.000000 968.000000 738.000000 968.000000 Z"/>
<path style="stroke-opacity:0.000;stroke:#0000FF;stroke-width:1.000px;fill-opacity:0.300;fill:#0000FF" d="M738.000000 987.000000 757.000000 987.000000 757.000000 968.000000 738.000000 968.000000 Z"/>
<path style="stroke-opacity:0.000;stroke:#0000FF;stroke-width:1.000px;fill-opacity:0.300;fill:#0000FF" d="M761.000000 1010.000000 780.000000 1010.000000 780.000000 991.000000 761.000000 991.000000 Z"/>
<path style="stroke-opacity:0.000;stroke:#FF0000;stroke-width:1.000px;fill-opacity:0.300;fill:#FF0000" d="M761.000000 1010.000000 780.000000 1010.000000 780.000000 991.000000 761.000000 991.000000 Z"/>
<path style="stroke-opacity:0.000;stroke:#FF0000;stroke-width:1.000px;fill-opacity:0.300;fill:#FF0000" d="M761.000000 1010.000000 780.000000 1010.000000 780.000000 991.000000 761.000000 991.000000 Z"/>
<path style="stroke-opacity:0.000;stroke:#0000FF;stroke-width:1.000px;fill-opacity:0.300;fill:#0000FF" d="M761.000000 1033.000000 780.000000 1033.000000 780.000000 1014.000000 761.000000 1014.000000 Z"/>
<path style="stroke-opacity:0.000;stroke:#FF0000;stroke-width:1.000px;fill-opacity:0.300;fill:#FF0000" d="M761.000000 1033.000000 780.000000 1033.000000 780.000000 1014.000000 761.000000 1014.000000 Z"/>
<path style="stroke-opacity:0.000;stroke:#FF0000;stroke-width:1.000px;fill-opacity:0.300;fill:#FF0000" d="M761.000000 1033.000000 780.000000 1033.000000 780.000000 1014.000000 761.000000 1014.000000 Z"/>
<path style="stroke-opacity:0.000;stroke:#FF0000;stroke-width:1.000px;fill-opacity:0.300;fill:#FF0000" d="M784.000000 1056.000000 803.000000 1056.000000 803.000000 1037.000000 784.000000 1037.000000 Z"/>
<path style="stroke-opacity:0.000;stroke:#0000FF;stroke-width:1.000px;fill-opacity:0.300;fill:#0000FF" d="M784.000000 1056.000000 803.000000 1056.000000 803.000000 1037.000000 784.000000 1037.000000 Z"/>
<path style="stroke-opacity:0.000;stroke:#FF0000;stroke-width:1.000px;fill-opacity:0.300;fill:#FF0000" d="M807.000000 1079.000000 826.000000 1079.000000 826.000000 1060.000000 807.000000 1060.000000 Z"/>
<path style="stroke-opacity:0.000;stroke:#0000FF;stroke-width:1.000px;fill-opacity:0.300;fill:#0000FF" d="M807.000000 1079.000000 826.000000 1079.000000 826.000000 1060.000000 807.000000 1060.000000 Z"/>
<path style="stroke-opacity:0.000;stroke:#FF0000;stroke-width:1.000px;fill-opacity:0.300;fill:#FF0000" d="M830.000000 1102.000000 849.000000 1102.000000 849.000000 1083.000000 830.000000 1083.000000 Z"/>
<path style="stroke-opacity:0.000;stroke:#0000FF;stroke-width:1.000px;fill-opacity:0.300;fill:#0000FF" d="M830.000000 1102.000000 849.000000 1102.000000 849.000000 1083.000000 830.000000 1083.000000 Z"/>
<path style="stroke-opacity:0.000;stroke:#FF0000;stroke-width:1.000px;fill-opacity:0.300;fill:#FF0000" d="M830.000000 1125.000000 849.000000 1125.000000 849.000000 1106.000000 830.000000 1106.000000 Z"/>
<path style="stroke-opacity:0.000;stroke:#0000FF;stroke-width:1.000px;fill-opacity:0.300;fill:#0000FF" d="M830.000000 1125.000000 849.000000 1125.000000 849.000000 1106.000000 830.000000 1106.000000 Z"/>
<path style="stroke-opacity:0.000;stroke:#FF0000;stroke-width:1.000px;fill-opacity:0.300;fill:#FF0000" d="M853.000000 1148.000000 872.000000 1148.000000 872.000000 1129.000000 853.000000 1129.000000 Z"/>
<path style="stroke-opacity:0.000;stroke:#0000FF;stroke-width:1.000px;fill-opacity:0.300;fill:#0000FF" d="M853.000000 1148.000000 872.000000 1148.000000 872.000000 1129.000000 853.000000 1129.000000 Z"/>
<path style="stroke-opacity:0.000;stroke:#FF0000;stroke-width:1.000px;fill-opacity:0.300;fill:#FF0000" d="M876.000000 1171.000000 895.000000 1171.000000 895.000000 1152.000000 876.000000 1152.000000 Z"/>
<path style="stroke-opacity:0.000;stroke:#0000FF;stroke-width:1.000px;fill-opacity:0.300;fill:#0000FF" d="M876.000000 1171.000000 895.000000 1171.000000 895.000000 1152.000000 876.000000 1152.000000 Z"/>
<path style="stroke-opacity:0.000;stroke:#FF0000;stroke-width:1.000px;fill-opacity:0.300;fill:#FF0000" d="M899.000000 1194.000000 918.000000 1194.000000 918.000000 1175.000000 899.000000 1175.000000 Z"/>
<path style="stroke-opacity:0.000;stroke:#0000FF;stroke-width:1.000px;fill-opacity:0.300;fill:#0000FF" d="M899.000000 1194.000000 918.000000 1194.000000 918.000000 1175.000000 899.000000 1175.000000 Z"/>
<path style="stroke-opacity:0.000;stroke:#FF0000;stroke-width:1.000px;fill-opacity:0.300;fill:#FF0000" d="M899.000000 1217.000000 918.000000 1217.000000 918.000000 1198.000000 899.000000 1198.000000 Z"/>
<path style="stroke-opacity:0.000;stroke:#0000FF;stroke-width:1.000px;fill-opacity:0.300;fill:#0000FF" d="M899.000000 1217.000000 918.000000 1217.000000 918.000000 1198.000000 899.000000 1198.000000 Z"/>
<path style="stroke-opacity:0.000;stroke:#FF0000;stroke-width:1.000px;fill-opacity:0.300;fill:#FF0000" d="M922.000000 1240.000000 941.000000 1240.000000 941.000000 1221.000000 922.000000 1221.000000 Z"/>
<path style="stroke-opacity:0.000;stroke:#0000FF;stroke-width:1.000px;fill-opacity:0.300;fill:#0000FF" d="M922.000000 1240.000000 941.000000 1240.000000 941.000000 1221.000000 922.000000 1221.000000 Z"/>
<path style="stroke-opacity:0.000;stroke:#FF0000;stroke-width:1.000px;fill-opacity:0.300;fill:#FF0000" d="M945.000000 1263.000000 964.000000 1263.000000 964.000000 1244.000000 945.000000 1244.000000 Z"/>
<path style="stroke-opacity:0.000;stroke:#0000FF;stroke-width:1.000px;fill-opacity:0.300;fill:#0000FF" d="M945.000000 1263.000000 964.000000 1263.000000 964.000000 1244.000000 945.000000 1244.000000 Z"/>
<path style="stroke-opacity:0.000;stroke:#FF0000;stroke-width:1.000px;fill-opacity:0.300;fill:#FF0000" d="M968.000000 1286.000000 987.000000 1286.000000 987.000000 1267.000000 968.000000 1267.000000 Z"/>
<path style="stroke-opacity:0.000;stroke:#0000FF;stroke-width:1.000px;fill-opacity:0.300;fill:#0000FF" d="M968.000000 1286.000000 987.000000 1286.000000 987.000000 1267.000000 968.000000 1267.000000 Z"/>
<path style="stroke-opacity:0.000;stroke:#FF0000;stroke-width:1.000px;fill-opacity:0.300;fill:#FF0000" d="M968.000000 1309.000000 987.000000 1309.000000 987.000000 1290.000000 968.000000 1290.000000 Z"/>
<path style="stroke-opacity:0.000;stroke:#0000FF;stroke-width:1.000px;fill-opacity:0.300;fill:#0000FF" d="M968.000000 1309.000000 987.000000 1309.000000 987.000000 1290.000000 968.000000 1290.000000 Z"/>
<path style="stroke-opacity:0.000;stroke:#FF0000;stroke-width:1.000px;fill-opacity:0.300;fill:#FF0000" d="M991.000000 1332.000000 1010.000000 1332.000000 1010.000000 1313.000000 991.000000 1313.000000 Z"/>
<path style="stroke-opacity:0.000;stroke:#FF0000;stroke-width:1.000px;fill-opacity:0.300;fill:#FF0000" d="M991.000000 1332.000000 1010.000000 1332.000000 1010.000000 1313.000000 991.000000 1313.000000 Z"/>
<path style="stroke-opacity:0.000;stroke:#FF0000;stroke-width:1.000px;fill-opacity:0.300;fill:#FF0000" d="M1014.000000 1355.000000 1033.000000 1355.000000 1033.000000 1336.000000 1014.000000 1336.000000 Z"/>
<path style="stroke-opacity:0.000;stroke:#FF0000;stroke-width:1.000px;fill-opacity:0.300;fill:#FF0000" d="M1014.000000 1355.000000 1033.000000 1355.000000 1033.000000 1336.000000 1014.000000 1336.000000 Z"/>
<path style="stroke-opacity:0.000;stroke:#FF0000;stroke-width:1.000px;fill-opacity:0.300;fill:#FF0000" d="M1037.000000 1378.000000 1056.000000 1378.000000 1056.000000 1359.000000 1037.000000 1359.000000 Z"/>
<path style="stroke-opacity:0.000;stroke:#FF0000;stroke-width:1.000px;fill-opacity:0.300;fill:#FF0000" d="M1037.000000 1378.000000 1056.000000 1378.000000 1056.000000 1359.000000 1037.000000 1359.000000 Z"/>
<path style="stroke-opacity:0.000;stroke:#FF0000;stroke-width:1.000px;fill-opacity:0.300;fill:#FF0000" d="M1060.000000 1401.000000 1079.000000 1401.000000 1079.000000 1382.000000 1060.000000 1382.000000 Z"/>
<path style="stroke-opacity:0.000;stroke:#FF0000;stroke-width:1.000px;fill-opacity:0.300;fill:#FF0000" d="M1060.000000 1401.000000 1079.000000 1401.000000 1079.000000 1382.000000 1060.000000 1382.000000 Z"/>
<path style="stroke-opacity:0.000;stroke:#FF0000;stroke-width:1.000px;fill-opacity:0.300;fill:#FF0000" d="M1060.000000 1424.000000 1079.000000 1424.000000 1079.000000 1405.000000 1060.000000 1405.000000 Z"/>
<path style="stroke-opacity:0.000;stroke:#FF0000;stroke-width:1.000px;fill-opacity:0.300;fill:#FF0000" d="M1060.000000 1424.000000 1079.000000 1424.000000 1079.000000 1405.000000 1060.000000 1405.000000 Z"/>
<path style="stroke-opacity:0.000;stroke:#00FF00;stroke-width:1.000px;fill-opacity:0.300;fill:#00FF00" d="M1083.000000 1447.000000 1102.000000 1447.000000 1102.000000 1428.000000 1083.000000 1428.000000 Z"/>
<path style="stroke-opacity:0.000;stroke:#00FF00;stroke-width:1.000px;fill-opacity:0.300;fill:#00FF00" d="M1106.000000 1470.000000 1125.000000 1470.000000 1125.000000 1451.000000 1106.000000 1451.000000 Z"/>
<path style="stroke-opacity:0.000;stroke:#00FF00;stroke-width:1.000px;fill-opacity:0.300;fill:#00FF00" d="M1129.000000 1493.000000 1148.000000 1493.000000 1148.000000 1474.000000 1129.000000 1474.000000 Z"/>
<path style="stroke-opacity:0.000;stroke:#00FF00;stroke-width:1.000px;fill-opacity:0.300;fill:#00FF00" d="M1129.000000 1516.000000 1148.000000 1516.000000 1148.000000 1497.000000 1129.000000 1497.000000 Z"/>
<path style="stroke-opacity:0.000;stroke:#00FF00;stroke-width:1.000px;fill-opacity:0.300;fill:#00FF00" d="M1152.000000 1539.000000 1171.000000 1539.000000 1171.000000 1520.000000 1152.000000 1520.000000 Z"/>
<path style="stroke-opacity:0.000;stroke:#00FF00;stroke-width:1.000px;fill-opacity:0.300;fill:#00FF00" d="M1175.000000 1562.000000 1194.000000 1562.000000 1194.000000 1543.000000 1175.000000 1543.000000 Z"/>
<path style="stroke-opacity:0.000;stroke:#00FF00;stroke-width:1.000px;fill-opacity:0.300;fill:#00FF00" d="M1198.000000 1585.000000 1217.000000 1585.000000 1217.000000 1566.000000 1198.000000 1566.000000 Z"/>
<path style="stroke-opacity:0.000;stroke:#00FF00;stroke-width:1.000px;fill-opacity:0.300;fill:#00FF00" d="M1198.000000 1608.000000 1217.000000 1608.000000 1217.000000 1589.000000 1198.000000 1589.000000 Z"/>
<path style="stroke-opacity:0.000;stroke:#00FF00;stroke-width:1.000px;fill-opacity:0.300;fill:#00FF00" d="M1221.000000 1631.000000 1240.000000 1631.000000 1240.000000 1612.000000 1221.000000 1612.000000 Z"/>
<path style="stroke-opacity:0.000;stroke:#00FF00;stroke-width:1.000px;fill-opacity:0.300;fill:#00FF00" d="M1244.000000 1654.000000 1263.000000 1654.000000 1263.000000 1635.000000 1244.000000 1635.000000 Z"/>
<path style="stroke-opacity:0.000;stroke:#00FF00;stroke-width:1.000px;fill-opacity:0.300;fill:#00FF00" d="M1267.000000 1677.000000 1286.000000 1677.000000 1286.000000 1658.000000 1267.000000 1658.000000 Z"/>
<path style="stroke-opacity:0.000;stroke:#00FF00;stroke-width:1.000px;fill-opacity:0.300;fill:#00FF00" d="M1290.000000 1700.000000 1309.000000 1700.000000 1309.000000 1681.000000 1290.000000 1681.000000 Z"/>
<path style="stroke-opacity:0.000;stroke:#00FF00;stroke-width:1.000px;fill-opacity:0.300;fill:#00FF00" d="M1290.000000 1723.000000 1309.000000 1723.000000 1309.000000 1704.000000 1290.000000 1704.000000 Z"/>
<path style="stroke-opacity:0.000;stroke:#00FF00;stroke-width:1.000px;fill-opacity:0.300;fill:#00FF00" d="M1313.000000 1746.000000 1332.000000 1746.000000 1332.000000 1727.000000 1313.000000 1727.000000 Z"/>
<path style="stroke-opacity:0.000;stroke:#00FF00;stroke-width:1.000px;fill-opacity:0.300;fill:#00FF00" d="M1336.000000 1769.000000 1355.000000 1769.000000 1355.000000 1750.000000 1336.000000 1750.000000 Z"/>
<path style="stroke-opacity:0.000;stroke:#00FF00;stroke-width:1.000px;fill-opacity:0.300;fill:#00FF00" d="M1359.000000 1792.000000 1378.000000 1792.000000 1378.000000 1773.000000 1359.000000 1773.000000 Z"/>
<path style="stroke-opacity:0.000;stroke:#00FF00;stroke-width:1.000px;fill-opacity:0.300;fill:#00FF00" d="M1359.000000 1815.000000 1378.000000 1815.000000 1378.000000 1796.000000 1359.000000 1796.000000 Z"/>
<path style="stroke-opacity:0.000;stroke:#00FF00;stroke-width:1.000px;fill-opacity:0.300;fill:#00FF00" d="M1382.000000 1838.000000 1401.000000 1838.000000 1401.000000 1819.000000 1382.000000 1819.000000 Z"/>
<path style="stroke-opacity:0.000;stroke:#00FF00;stroke-width:1.000px;fill-opacity:0.300;fill:#00FF00" d="M1405.000000 1861.000000 1424.000000 1861.000000 1424.000000 1842.000000 1405.000000 1842.000000 Z"/>
<path style="stroke-opacity:0.000;stroke:#00FF00;stroke-width:1.000px;fill-opacity:0.300;fill:#00FF00" d="M1428.000000 1884.000000 1447.000000 1884.000000 1447.000000 1865.000000 1428.000000 1865.000000 Z"/>
<path style="stroke-opacity:0.000;stroke:#00FF00;stroke-width:1.000px;fill-opacity:0.300;fill:#00FF00" d="M1428.000000 1907.000000 1447.000000 1907.000000 1447.000000 1888.000000 1428.000000 1888.000000 Z"/>
<path style="stroke-opacity:0.000;stroke:#00FF00;stroke-width:1.000px;fill-opacity:0.300;fill:#00FF00" d="M1451.000000 1930.000000 1470.000000 1930.000000 1470.000000 1911.000000 1451.000000 1911.000000 Z"/>
<path style="stroke-opacity:0.000;stroke:#00FF00;stroke-width:1.000px;fill-opacity:0.300;fill:#00FF00" d="M1474.000000 1953.000000 1493.000000 1953.000000 1493.000000 1934.000000 1474.000000 1934.000000 Z"/>
<path style="stroke-opacity:0.000;stroke:#00FF00;stroke-width:1.000px;fill-opacity:0.300;fill:#00FF00" d="M1497.000000 1976.000000 1516.000000 1976.000000 1516.000000 1957.000000 1497.000000 1957.000000 Z"/>
</g>
</svg>
