<svg width="1500" height="2000" viewBox="0 0 1500 2000" xmlns="http://www.w3.org/2000/svg" xmlns:xlink="http://www.w3.org/1999/xlink">
<g transform="rotate(0.000000) translate(0.000000 2000.000000) scale(1.000000 -1.000000)">
<path style="stroke-opacity:1.000;stroke:#FFFFFF;stroke-width:1.000px;fill-opacity:1.000;fill:#FFFFFF" d="M0.000000 0.000000 1500.000000 0.000000 1500.000000 2000.000000 0.000000 2000.000000 Z"/>
<path style="opacity:1.000;stroke:#555555;stroke-width:0.500px;fill:none" d="M250.000000 2000.000000L250.000000 0.000000M500.000000 2000.000000L500.000000 0.000000M750.000000 2000.000000L750.000000 0.000000M1000.000000 2000.000000L1000.000000 0.000000M1250.000000 2000.000000L1250.000000 0.000000M0.000000 250.000000L1500.000000 250.000000M0.000000 500.000000L1500.000000 500.000000M0.000000 750.000000L1500.000000 750.000000M0.000000 1000.000000L1500.000000 1000.000000M0.000000 1250.000000L1500.000000 1250.000000M0.000000 1500.000000L1500.000000 1500.000000M0.000000 1750.000000L1500.000000 1750.000000"/>
<path style="stroke-opacity:0.000;stroke:#000000;stroke-width:1.000px;fill-opacity:0.300;fill:#000000" d="M2.000000 248.000000 248.000000 248.000000 248.000000 2.000000 2.000000 2.000000 Z"/>
<path style="stroke-opacity:0.000;stroke:#000000;stroke-width:1.000px;fill-opacity:0.300;fill:#000000" d="M2.000000 498.000000 248.000000 498.000000 248.000000 252.000000 2.000000 252.000000 Z"/>
<path style="stroke-opacity:0.000;stroke:#000000;stroke-width:1.000px;fill-opacity:0.300;fill:#000000" d="M252.000000 748.000000 498.000000 748.000000 498.000000 502.000000 252.000000 502.000000 Z"/>
<path style="stroke-opacity:0.000;stroke:#000000;stroke-width:1.000px;fill-opacity:0.300;fill:#000000" d="M502.000000 998.000000 748.000000 998.000000 748.000000 752.000000 502.000000 752.000000 Z"/>
<path style="stroke-opacity:0.000;stroke:#000000;stroke-width:1.000px;fill-opacity:0.300;fill:#000000" d="M752.000000 1248.000000 998.000000 1248.000000 998.000000 1002.000000 752.000000 1002.000000 Z"/>
<path style="stroke-opacity:0.000;stroke:#000000;stroke-width:1.000px;fill-opacity:0.300;fill:#000000" d="M752.000000 1498.000000 998.000000 1498.000000 998.000000 1252.000000 752.000000 1252.000000 Z"/>
<path style="stroke-opacity:0.000;stroke:#000000;stroke-width:1.000px;fill-opacity:0.300;fill:#000000" d="M1002.000000 1748.000000 1248.000000 1748.000000 1248.000000 1502.000000 1002.000000 1502.000000 Z"/>
<path style="stroke-opacity:0.000;stroke:#000000;stroke-width:1.000px;fill-opacity:0.300;fill:#000000" d="M1252.000000 1998.000000 1498.000000 1998.000000 1498.000000 1752.000000 1252.000000 1752.000000 Z"/>
<path style="stroke-opacity:0.000;stroke:#00FF00;stroke-width:1.000px;fill-opacity:0.300;fill:#00FF00" d="M2.000000 248.000000 248.000000 248.000000 248.000000 2.000000 2.000000 2.000000 Z"/>
<path style="stroke-opacity:0.000;stroke:#00FF00;stroke-width:1.000px;fill-opacity:0.300;fill:#00FF00" d="M2.000000 498.000000 248.000000 498.000000 248.000000 252.000000 2.000000 252.000000 Z"/>
<path style="stroke-opacity:0.000;stroke:#0000FF;stroke-width:1.000px;fill-opacity:0.300;fill:#0000FF" d="M252.000000 748.000000 498.000000 748.000000 498.000000 502.000000 252.000000 502.000000 Z"/>
<path style="stroke-opacity:0.000;stroke:#0000FF;stroke-width:1.000px;fill-opacity:0.300;fill:#0000FF" d="M502.000000 998.000000 748.000000 998.000000 748.000000 752.000000 502.000000 752.000000 Z"/>
<path style="stroke-opacity:0.000;stroke:#FF0000;stroke-width:1.000px;fill-opacity:0.300;fill:#FF0000" d="M752.000000 1248.000000 998.000000 1248.000000 998.000000 1002.000000 752.000000 1002.000000 Z"/>
<path style="stroke-opacity:0.000;stroke:#FF0000;stroke-width:1.000px;fill-opacity:0.300;fill:#FF0000" d="M752.000000 1498.000000 998.000000 1498.000000 998.000000 1252.000000 752.000000 1252.000000 Z"/>
<path style="stroke-opacity:0.000;stroke:#00FF00;stroke-width:1.000px;fill-opacity:0.300;fill:#00FF00" d="M1002.000000 1748.000000 1248.000000 1748.000000 1248.000000 1502.000000 1002.000000 1502.000000 Z"/>
<path style="stroke-opacity:0.000;stroke:#00FF00;stroke-width:1.000px;fill-opacity:0.300;fill:#00FF00" d="M1252.000000 1998.000000 1498.000000 1998.000000 1498.000000 1752.000000 1252.000000 1752.000000 Z"/>
</g>
</svg>
