<svg width="1540" height="2002" viewBox="0 0 1540 2002" xmlns="http://www.w3.org/2000/svg" xmlns:xlink="http://www.w3.org/1999/xlink">
<g transform="rotate(0.000000) translate(0.000000 2002.000000) scale(1.000000 -1.000000)">
<path style="stroke-opacity:1.000;stroke:#FFFFFF;stroke-width:1.000px;fill-opacity:1.000;fill:#FFFFFF" d="M0.000000 0.000000 1540.000000 0.000000 1540.000000 2002.000000 0.000000 2002.000000 Z"/>
<path style="opacity:1.000;stroke:#555555;stroke-width:0.500px;fill:none" d="M77.000000 2002.000000L77.000000 0.000000M154.000000 2002.000000L154.000000 0.000000M231.000000 2002.000000L231.000000 0.000000M308.000000 2002.000000L308.000000 0.000000M385.000000 2002.000000L385.000000 0.000000M462.000000 2002.000000L462.000000 0.000000M539.000000 2002.000000L539.000000 0.000000M616.000000 2002.000000L616.000000 0.000000M693.000000 2002.000000L693.000000 0.000000M770.000000 2002.000000L770.000000 0.000000M847.000000 2002.000000L847.000000 0.000000M924.000000 2002.000000L924.000000 0.000000M1001.000000 2002.000000L1001.000000 0.000000M1078.000000 2002.000000L1078.000000 0.000000M1155.000000 2002.000000L1155.000000 0.000000M1232.000000 2002.000000L1232.000000 0.000000M1309.000000 2002.000000L1309.000000 0.000000M1386.000000 2002.000000L1386.000000 0.000000M1463.000000 2002.000000L1463.000000 0.000000M0.000000 77.000000L1540.000000 77.000000M0.000000 154.000000L1540.000000 154.000000M0.000000 231.000000L1540.000000 231.000000M0.000000 308.000000L1540.000000 308.000000M0.000000 385.000000L1540.000000 385.000000M0.000000 462.000000L1540.000000 462.000000M0.000000 539.000000L1540.000000 539.000000M0.000000 616.000000L1540.000000 616.000000M0.000000 693.000000L1540.000000 693.000000M0.000000 770.000000L1540.000000 770.000000M0.000000 847.000000L1540.000000 847.000000M0.000000 924.000000L1540.000000 924.000000M0.000000 1001.000000L1540.000000 1001.000000M0.000000 1078.000000L1540.000000 1078.000000M0.000000 1155.000000L1540.000000 1155.000000M0.000000 1232.000000L1540.000000 1232.000000M0.000000 1309.000000L1540.000000 1309.000000M0.000000 1386.000000L1540.000000 1386.000000M0.000000 1463.000000L1540.000000 1463.000000M0.000000 1540.000000L1540.000000 1540.000000M0.000000 1617.000000L1540.000000 1617.000000M0.000000 1694.000000L1540.000000 1694.000000M0.000000 1771.000000L1540.000000 1771.000000M0.000000 1848.000000L1540.000000 1848.000000M0.000000 1925.000000L1540.000000 1925.000000"/>
<path style="stroke-opacity:0.000;stroke:#000000;stroke-width:1.000px;fill-opacity:0.300;fill:#000000" d="M2.000000 75.000000 75.000000 75.000000 75.000000 2.000000 2.000000 2.000000 Z"/>
<path style="stroke-opacity:0.000;stroke:#000000;stroke-width:1.000px;fill-opacity:0.300;fill:#000000" d="M2.000000 152.000000 75.000000 152.000000 75.000000 79.000000 2.000000 79.000000 Z"/>
<path style="stroke-opacity:0.000;stroke:#000000;stroke-width:1.000px;fill-opacity:0.300;fill:#000000" d="M79.000000 229.000000 152.000000 229.000000 152.000000 156.000000 79.000000 156.000000 Z"/>
<path style="stroke-opacity:0.000;stroke:#000000;stroke-width:1.000px;fill-opacity:0.300;fill:#000000" d="M156.000000 306.000000 229.000000 306.000000 229.000000 233.000000 156.000000 233.000000 Z"/>
<path style="stroke-opacity:0.000;stroke:#000000;stroke-width:1.000px;fill-opacity:0.300;fill:#000000" d="M233.000000 383.000000 306.000000 383.000000 306.000000 310.000000 233.000000 310.000000 Z"/>
<path style="stroke-opacity:0.000;stroke:#000000;stroke-width:1.000px;fill-opacity:0.300;fill:#000000" d="M233.000000 460.000000 306.000000 460.000000 306.000000 387.000000 233.000000 387.000000 Z"/>
<path style="stroke-opacity:0.000;stroke:#000000;stroke-width:1.000px;fill-opacity:0.300;fill:#000000" d="M310.000000 537.000000 383.000000 537.000000 383.000000 464.000000 310.000000 464.000000 Z"/>
<path style="stroke-opacity:0.000;stroke:#000000;stroke-width:1.000px;fill-opacity:0.300;fill:#000000" d="M387.000000 614.000000 460.000000 614.000000 460.000000 541.000000 387.000000 541.000000 Z"/>
<path style="stroke-opacity:0.000;stroke:#000000;stroke-width:1.000px;fill-opacity:0.300;fill:#000000" d="M464.000000 691.000000 537.000000 691.000000 537.000000 618.000000 464.000000 618.000000 Z"/>
<path style="stroke-opacity:0.000;stroke:#000000;stroke-width:1.000px;fill-opacity:0.300;fill:#000000" d="M464.000000 768.000000 537.000000 768.000000 537.000000 695.000000 464.000000 695.000000 Z"/>
<path style="stroke-opacity:0.000;stroke:#000000;stroke-width:1.000px;fill-opacity:0.300;fill:#000000" d="M541.000000 845.000000 614.000000 845.000000 614.000000 772.000000 541.000000 772.000000 Z"/>
<path style="stroke-opacity:0.000;stroke:#000000;stroke-width:1.000px;fill-opacity:0.300;fill:#000000" d="M618.000000 922.000000 691.000000 922.000000 691.000000 849.000000 618.000000 849.000000 Z"/>
<path style="stroke-opacity:0.000;stroke:#000000;stroke-width:1.000px;fill-opacity:0.300;fill:#000000" d="M695.000000 999.000000 768.000000 999.000000 768.000000 926.000000 695.000000 926.000000 Z"/>
<path style="stroke-opacity:0.000;stroke:#000000;stroke-width:1.000px;fill-opacity:0.300;fill:#000000" d="M772.000000 1076.000000 845.000000 1076.000000 845.000000 1003.000000 772.000000 1003.000000 Z"/>
<path style="stroke-opacity:0.000;stroke:#000000;stroke-width:1.000px;fill-opacity:0.300;fill:#000000" d="M772.000000 1153.000000 845.000000 1153.000000 845.000000 1080.000000 772.000000 1080.000000 Z"/>
<path style="stroke-opacity:0.000;stroke:#000000;stroke-width:1.000px;fill-opacity:0.300;fill:#000000" d="M849.000000 1230.000000 922.000000 1230.000000 922.000000 1157.000000 849.000000 1157.000000 Z"/>
<path style="stroke-opacity:0.000;stroke:#000000;stroke-width:1.000px;fill-opacity:0.300;fill:#000000" d="M926.000000 1307.000000 999.000000 1307.000000 999.000000 1234.000000 926.000000 1234.000000 Z"/>
<path style="stroke-opacity:0.000;stroke:#000000;stroke-width:1.000px;fill-opacity:0.300;fill:#000000" d="M1003.000000 1384.000000 1076.000000 1384.000000 1076.000000 1311.000000 1003.000000 1311.000000 Z"/>
<path style="stroke-opacity:0.000;stroke:#000000;stroke-width:1.000px;fill-opacity:0.300;fill:#000000" d="M1003.000000 1461.000000 1076.000000 1461.000000 1076.000000 1388.000000 1003.000000 1388.000000 Z"/>
<path style="stroke-opacity:0.000;stroke:#000000;stroke-width:1.000px;fill-opacity:0.300;fill:#000000" d="M1080.000000 1538.000000 1153.000000 1538.000000 1153.000000 1465.000000 1080.000000 1465.000000 Z"/>
<path style="stroke-opacity:0.000;stroke:#000000;stroke-width:1.000px;fill-opacity:0.300;fill:#000000" d="M1157.000000 1615.000000 1230.000000 1615.000000 1230.000000 1542.000000 1157.000000 1542.000000 Z"/>
<path style="stroke-opacity:0.000;stroke:#000000;stroke-width:1.000px;fill-opacity:0.300;fill:#000000" d="M1234.000000 1692.000000 1307.000000 1692.000000 1307.000000 1619.000000 1234.000000 1619.000000 Z"/>
<path style="stroke-opacity:0.000;stroke:#000000;stroke-width:1.000px;fill-opacity:0.300;fill:#000000" d="M1234.000000 1769.000000 1307.000000 1769.000000 1307.000000 1696.000000 1234.000000 1696.000000 Z"/>
<path style="stroke-opacity:0.000;stroke:#000000;stroke-width:1.000px;fill-opacity:0.300;fill:#000000" d="M1311.000000 1846.000000 1384.000000 1846.000000 1384.000000 1773.000000 1311.000000 1773.000000 Z"/>
<path style="stroke-opacity:0.000;stroke:#000000;stroke-width:1.000px;fill-opacity:0.300;fill:#000000" d="M1388.000000 1923.000000 1461.000000 1923.000000 1461.000000 1850.000000 1388.000000 1850.000000 Z"/>
<path style="stroke-opacity:0.000;stroke:#000000;stroke-width:1.000px;fill-opacity:0.300;fill:#000000" d="M1465.000000 2000.000000 1538.000000 2000.000000 1538.000000 1927.000000 1465.000000 1927.000000 Z"/>
<path style="stroke-opacity:0.000;stroke:#00FF00;stroke-width:1.000px;fill-opacity:0.300;fill:#00FF00" d="M2.000000 75.000000 75.000000 75.000000 75.000000 2.000000 2.000000 2.000000 Z"/>
<path style="stroke-opacity:0.000;stroke:#00FF00;stroke-width:1.000px;fill-opacity:0.300;fill:#00FF00" d="M2.000000 152.000000 75.000000 152.000000 75.000000 79.000000 2.000000 79.000000 Z"/>
<path style="stroke-opacity:0.000;stroke:#0000FF;stroke-width:1.000px;fill-opacity:0.300;fill:#0000FF" d="M79.000000 229.000000 152.000000 229.000000 152.000000 156.000000 79.000000 156.000000 Z"/>
<path style="stroke-opacity:0.000;stroke:#0000FF;stroke-width:1.000px;fill-opacity:0.300;fill:#0000FF" d="M79.000000 229.000000 152.000000 229.000000 152.000000 156.000000 79.000000 156.000000 Z"/>
<path style="stroke-opacity:0.000;stroke:#0000FF;stroke-width:1.000px;fill-opacity:0.300;fill:#0000FF" d="M156.000000 306.000000 229.000000 306.000000 229.000000 233.000000 156.000000 233.000000 Z"/>
<path style="stroke-opacity:0.000;stroke:#0000FF;stroke-width:1.000px;fill-opacity:0.300;fill:#0000FF" d="M156.000000 306.000000 229.000000 306.000000 229.000000 233.000000 156.000000 233.000000 Z"/>
<path style="stroke-opacity:0.000;stroke:#0000FF;stroke-width:1.000px;fill-opacity:0.300;fill:#0000FF" d="M233.000000 383.000000 306.000000 383.000000 306.000000 310.000000 233.000000 310.000000 Z"/>
<path style="stroke-opacity:0.000;stroke:#FF0000;stroke-width:1.000px;fill-opacity:0.300;fill:#FF0000" d="M233.000000 383.000000 306.000000 383.000000 306.000000 310.000000 233.000000 310.000000 Z"/>
<path style="stroke-opacity:0.000;stroke:#0000FF;stroke-width:1.000px;fill-opacity:0.300;fill:#0000FF" d="M233.000000 460.000000 306.000000 460.000000 306.000000 387.000000 233.000000 387.000000 Z"/>
<path style="stroke-opacity:0.000;stroke:#FF0000;stroke-width:1.000px;fill-opacity:0.300;fill:#FF0000" d="M233.000000 460.000000 306.000000 460.000000 306.000000 387.000000 233.000000 387.000000 Z"/>
<path style="stroke-opacity:0.000;stroke:#0000FF;stroke-width:1.000px;fill-opacity:0.300;fill:#0000FF" d="M310.000000 537.000000 383.000000 537.000000 383.000000 464.000000 310.000000 464.000000 Z"/>
<path style="stroke-opacity:0.000;stroke:#0000FF;stroke-width:1.000px;fill-opacity:0.300;fill:#0000FF" d="M310.000000 537.000000 383.000000 537.000000 383.000000 464.000000 310.000000 464.000000 Z"/>
<path style="stroke-opacity:0.000;stroke:#0000FF;stroke-width:1.000px;fill-opacity:0.300;fill:#0000FF" d="M387.000000 614.000000 460.000000 614.000000 460.000000 541.000000 387.000000 541.000000 Z"/>
<path style="stroke-opacity:0.000;stroke:#0000FF;stroke-width:1.000px;fill-opacity:0.300;fill:#0000FF" d="M387.000000 614.000000 460.000000 614.000000 460.000000 541.000000 387.000000 541.000000 Z"/>
<path style="stroke-opacity:0.000;stroke:#0000FF;stroke-width:1.000px;fill-opacity:0.300;fill:#0000FF" d="M464.000000 691.000000 537.000000 691.000000 537.000000 618.000000 464.000000 618.000000 Z"/>
<path style="stroke-opacity:0.000;stroke:#FF0000;stroke-width:1.000px;fill-opacity:0.300;fill:#FF0000" d="M464.000000 691.000000 537.000000 691.000000 537.000000 618.000000 464.000000 618.000000 Z"/>
<path style="stroke-opacity:0.000;stroke:#0000FF;stroke-width:1.000px;fill-opacity:0.300;fill:#0000FF" d="M464.000000 768.000000 537.000000 768.000000 537.000000 695.000000 464.000000 695.000000 Z"/>
<path style="stroke-opacity:0.000;stroke:#FF0000;stroke-width:1.000px;fill-opacity:0.300;fill:#FF0000" d="M464.000000 768.000000 537.000000 768.000000 537.000000 695.000000 464.000000 695.000000 Z"/>
<path style="stroke-opacity:0.000;stroke:#FF0000;stroke-width:1.000px;fill-opacity:0.300;fill:#FF0000" d="M541.000000 845.000000 614.000000 845.000000 614.000000 772.000000 541.000000 772.000000 Z"/>
<path style="stroke-opacity:0.000;stroke:#0000FF;stroke-width:1.000px;fill-opacity:0.300;fill:#0000FF" d="M541.000000 845.000000 614.000000 845.000000 614.000000 772.000000 541.000000 772.000000 Z"/>
<path style="stroke-opacity:0.000;stroke:#FF0000;stroke-width:1.000px;fill-opacity:0.300;fill:#FF0000" d="M618.000000 922.000000 691.000000 922.000000 691.000000 849.000000 618.000000 849.000000 Z"/>
<path style="stroke-opacity:0.000;stroke:#0000FF;stroke-width:1.000px;fill-opacity:0.300;fill:#0000FF" d="M618.000000 922.000000 691.000000 922.000000 691.000000 849.000000 618.000000 849.000000 Z"/>
<path style="stroke-opacity:0.000;stroke:#FF0000;stroke-width:1.000px;fill-opacity:0.300;fill:#FF0000" d="M695.000000 999.000000 768.000000 999.000000 768.000000 926.000000 695.000000 926.000000 Z"/>
<path style="stroke-opacity:0.000;stroke:#0000FF;stroke-width:1.000px;fill-opacity:0.300;fill:#0000FF" d="M695.000000 999.000000 768.000000 999.000000 768.000000 926.000000 695.000000 926.000000 Z"/>
<path style="stroke-opacity:0.000;stroke:#FF0000;stroke-width:1.000px;fill-opacity:0.300;fill:#FF0000" d="M772.000000 1076.000000 845.000000 1076.000000 845.000000 1003.000000 772.000000 1003.000000 Z"/>
<path style="stroke-opacity:0.000;stroke:#FF0000;stroke-width:1.000px;fill-opacity:0.300;fill:#FF0000" d="M772.000000 1076.000000 845.000000 1076.000000 845.000000 1003.000000 772.000000 1003.000000 Z"/>
<path style="stroke-opacity:0.000;stroke:#FF0000;stroke-width:1.000px;fill-opacity:0.300;fill:#FF0000" d="M772.000000 1153.000000 845.000000 1153.000000 845.000000 1080.000000 772.000000 1080.000000 Z"/>
<path style="stroke-opacity:0.000;stroke:#FF0000;stroke-width:1.000px;fill-opacity:0.300;fill:#FF0000" d="M772.000000 1153.000000 845.000000 1153.000000 845.000000 1080.000000 772.000000 1080.000000 Z"/>
<path style="stroke-opacity:0.000;stroke:#00FF00;stroke-width:1.000px;fill-opacity:0.300;fill:#00FF00" d="M849.000000 1230.000000 922.000000 1230.000000 922.000000 1157.000000 849.000000 1157.000000 Z"/>
<path style="stroke-opacity:0.000;stroke:#00FF00;stroke-width:1.000px;fill-opacity:0.300;fill:#00FF00" d="M926.000000 1307.000000 999.000000 1307.000000 999.000000 1234.000000 926.000000 1234.000000 Z"/>
<path style="stroke-opacity:0.000;stroke:#00FF00;stroke-width:1.000px;fill-opacity:0.300;fill:#00FF00" d="M1003.000000 1384.000000 1076.000000 1384.000000 1076.000000 1311.000000 1003.000000 1311.000000 Z"/>
<path style="stroke-opacity:0.000;stroke:#00FF00;stroke-width:1.000px;fill-opacity:0.300;fill:#00FF00" d="M1003.000000 1461.000000 1076.000000 1461.000000 1076.000000 1388.000000 1003.000000 1388.000000 Z"/>
<path style="stroke-opacity:0.000;stroke:#00FF00;stroke-width:1.000px;fill-opacity:0.300;fill:#00FF00" d="M1080.000000 1538.000000 1153.000000 1538.000000 1153.000000 1465.000000 1080.000000 1465.000000 Z"/>
<path style="stroke-opacity:0.000;stroke:#00FF00;stroke-width:1.000px;fill-opacity:0.300;fill:#00FF00" d="M1157.000000 1615.000000 1230.000000 1615.000000 1230.000000 1542.000000 1157.000000 1542.000000 Z"/>
<path style="stroke-opacity:0.000;stroke:#00FF00;stroke-width:1.000px;fill-opacity:0.300;fill:#00FF00" d="M1234.000000 1692.000000 1307.000000 1692.000000 1307.000000 1619.000000 1234.000000 1619.000000 Z"/>
<path style="stroke-opacity:0.000;stroke:#00FF00;stroke-width:1.000px;fill-opacity:0.300;fill:#00FF00" d="M1234.000000 1769.000000 1307.000000 1769.000000 1307.000000 1696.000000 1234.000000 1696.000000 Z"/>
<path style="stroke-opacity:0.000;stroke:#00FF00;stroke-width:1.000px;fill-opacity:0.300;fill:#00FF00" d="M1311.000000 1846.000000 1384.000000 1846.000000 1384.000000 1773.000000 1311.000000 1773.000000 Z"/>
<path style="stroke-opacity:0.000;stroke:#00FF00;stroke-width:1.000px;fill-opacity:0.300;fill:#00FF00" d="M1388.000000 1923.000000 1461.000000 1923.000000 1461.000000 1850.000000 1388.000000 1850.000000 Z"/>
<path style="stroke-opacity:0.000;stroke:#00FF00;stroke-width:1.000px;fill-opacity:0.300;fill:#00FF00" d="M1465.000000 2000.000000 1538.000000 2000.000000 1538.000000 1927.000000 1465.000000 1927.000000 Z"/>
</g>
</svg>
